<svg xmlns="http://www.w3.org/2000/svg" viewBox="0 0 1030 1030"><g id="b5c8d856-9e56-4f4c-bfe8-e23239a02ea4" data-name="Layer 2"><g id="a35ba0c2-7b86-4b7d-a9ea-a945de56b672" data-name="Gray Scale"><path d="M862.64,397.46C826.2,266,715.14,161.61,571.72,140.83a355,355,0,0,0-375.46,208A84.54,84.54,0,0,0,107.35,427l-5,68.53a84.52,84.52,0,0,0,75.35,90.21c12.39,38.13,30.87,64.41,44.3,81.46,5.92,7.5,10.86,13.23,13.87,17.37A99.14,99.14,0,0,0,250,699.77c46.86,41.88,160.79,88.87,250.33,88.87,129.37,0,202.77-24.61,289.62-84.89.24-.16.46-.32.69-.49a149.88,149.88,0,0,0,27.73-24.44c10.95-12.52,19-26.24,30-44.14.59,0,1.18,0,1.76,0a84.65,84.65,0,0,0,84.25-78.38l5-68.54A84.64,84.64,0,0,0,862.64,397.46Zm-78.53,259q-4.22,4.26-8.66,8.34c-62,58.57-164,88.38-255.25,88.38a446.31,446.31,0,0,1-49.65-2.81c-57.45-5.29-108.52-20-151-46a246.92,246.92,0,0,1-63.33-55.44A261.54,261.54,0,0,1,230,609.56c-8.09-14.8-22.8-66.48-22.8-72.84,0-72.11,22.33-193.21,137.89-255.24h0c36.53-12,78.86-18.05,125.64-18.05a623.14,623.14,0,0,1,79.88,5.39c95.29,12.34,172.74,42,224.12,85.82h0C820.09,417,833.2,491,833.2,536.72a165.67,165.67,0,0,1-27.75,92.6C814,617.59,794.58,645.86,784.11,656.44Z" style="fill:#f4f4f4"/><rect width="1030" height="1030" style="fill:none"/><path d="M218.5,694c1.34-7.63,2.5-14.22,2.8-18.36q.25-3.4.56-6.8a96.85,96.85,0,0,1-22.24-17.7,13.39,13.39,0,0,1-3.69-10.57c0-1.76-.57-4.67-3.63-5.78a31.66,31.66,0,0,0-3.27-1,12,12,0,0,0-5.34-.42A15,15,0,0,1,158.1,633c-7.18-12-21.53-29.29-30.55-31.61-.29-.07-.57-.13-.85-.17-.77-.12-1.42-.22-2.87,1.07-5.26,4.69-5.5,8.73,3.23,24.83,4.38,8.06,8.9,16.39,5.49,25.51-2.22,6-8.53,12-19.58,11a80.53,80.53,0,0,1-10.81-2c-7.47-1.74-12.79-2.62-16.6-2.62a15.2,15.2,0,0,0-3.85.43c6.14,11.77,34.35,22.78,45.21,29.58-6.73,3-9.12,6.43-9.56,9.48a14.63,14.63,0,0,1,0,2,14.11,14.11,0,0,0,2.68,6.2,316.23,316.23,0,0,0,25.65,19.05c11.64,7.79,34.94,21.93,65.51,29.66l.15,0C212,731.27,215.77,709.55,218.5,694Z" style="fill:#f4f4f4"/><path d="M801.19,779.52c.38-27.34-5.62-54.15-10-73.73-2.55-11.39-4.57-20.4-5.12-27.77s-1.22-14.59-2-21.86c-60.86,64.26-168.24,97-263.89,97-96.74,0-204.29-33-264.78-97.68-.89,7.44-1.64,15-2.2,22.54-.43,5.73-1.65,12.69-3.2,21.51-3.46,19.71-8.2,46.71-6.44,75.48,1.67,27.28,8.77,50.36,21.59,70.11-6.19,22.33,2.84,56.22,25,85.52,15.34,20.28,34.53,35.49,54,42.81,17.11,6.43,32,5.82,42-1.73h0c10-7.55,14.63-21.74,13.09-40a95.53,95.53,0,0,0-1.67-11.25q51.93,10.63,121,10.66,76,0,131.86-11.16A95.74,95.74,0,0,0,648,932.48c-2.3,18.22,1.78,32.67,11.49,40.66s24.66,9.23,42.11,3.48c19.85-6.54,39.73-21,56-40.7h0c15.32-18.6,25.56-39.87,28.82-59.9,2-12.3,1.18-23-2.28-31.33C795.22,826.26,800.83,804.8,801.19,779.52Z" style="fill:#f4f4f4"/><path d="M851.47,674.44a13.48,13.48,0,0,1-4.68,10.18,96.88,96.88,0,0,1-24,15.62c4.7,21,10.92,49.41,10.48,79.9,0,2-.09,3.88-.17,5.8,1.93-.38,3.84-.78,5.7-1.2,4.66-1.06,9.12-2.25,13.37-3.53,2.83-.85,5.57-1.74,8.21-2.65a223.37,223.37,0,0,0,33.14-14.62,315.16,315.16,0,0,0,27.34-16.54,14.06,14.06,0,0,0,3.25-5.92,16.65,16.65,0,0,1,.15-2c-.15-3.08-2.21-6.69-8.62-10.35,11.45-5.74,40.58-14,47.81-25.17a14.13,14.13,0,0,0-2.71-.67l-1.09-.13c-3.79-.36-9.17,0-16.77,1a79.38,79.38,0,0,1-11,1h0c-11.09-.1-16.81-6.67-18.46-12.81-2.53-9.39,2.76-17.26,7.87-24.87,10.22-15.21,10.36-19.25,5.56-24.42-1-1.07-1.6-1.31-2.17-1.35a3.58,3.58,0,0,0-.57,0,9,9,0,0,0-1.78.28c-9.31,2.28-24.47,17.45-32.49,28.39a15,15,0,0,1-14.3,6h0a15.05,15.05,0,0,1-11.21-8.07,7.15,7.15,0,0,0-2.3-.31c-.28,0-.59,0-.93,0a24.93,24.93,0,0,0-3.7.5c-.55.11-1.15.25-1.78.42C852.48,669.85,851.66,672.69,851.47,674.44Z" style="fill:#f4f4f4"/><path d="M800,553.76h0Zm0,0v0Zm0,0v0Zm-556.74-.12v0Zm0,0v0Zm0,0v0Zm0,0h0Z" style="fill:#272727"/><path d="M525.61,242.26c-275.42,0-318.41,194.4-318.41,294.46,0,142.94,168.55,216.44,313,216.44,143.34,0,313-73.5,313-216.44C833.2,445.66,781.19,242.26,525.61,242.26Z" style="fill:#484848"/><path d="M995.29,696.54c-3.53-8.74-11.48-19.79-29.29-22.75a64.2,64.2,0,0,0-12.83-.71,58.08,58.08,0,0,0,5.44-13.47c3.43-13.56,0-26.32-9.77-36.89a32.6,32.6,0,0,0-26.51-10.87c-18.33,1.08-36,16.84-46.75,28.76-6.28-2.5-15.29-3.81-27.55-.61a36.62,36.62,0,0,0-3.71,1.21c-13,4.88-19.18,15.68-21.59,24.37-1.24.92-2.81,2-4.64,3.16q.12,4.69.19,9.46c0,.2.05.39.08.6l0,.19c.73,5.07,2.3,12.09,4.07,20,.09.41.19.84.28,1.26a96.88,96.88,0,0,0,24-15.62,13.48,13.48,0,0,0,4.68-10.18c.19-1.75,1-4.59,4.15-5.41.63-.17,1.23-.31,1.78-.42a24.93,24.93,0,0,1,3.7-.5c.34,0,.65,0,.93,0a7.15,7.15,0,0,1,2.3.31,15,15,0,0,0,25.51,2.06c8-10.94,23.18-26.11,32.49-28.39a9,9,0,0,1,1.78-.28,3.58,3.58,0,0,1,.57,0c.57,0,1.19.28,2.17,1.35,4.8,5.17,4.66,9.21-5.56,24.42-5.11,7.61-10.4,15.48-7.87,24.87,1.65,6.14,7.37,12.71,18.46,12.81a79.24,79.24,0,0,0,10.94-1c7.61-1,13-1.4,16.78-1l1.09.13a14.13,14.13,0,0,1,2.71.67c-7.23,11.14-36.36,19.43-47.81,25.17,6.41,3.66,8.47,7.27,8.62,10.35a16.65,16.65,0,0,0-.15,2,14.06,14.06,0,0,1-3.25,5.92,316.41,316.41,0,0,1-27.33,16.54,224.06,224.06,0,0,1-33.15,14.62c-2.64.91-5.38,1.8-8.21,2.65-4.25,1.28-8.71,2.47-13.37,3.53-1.86.42-3.77.82-5.7,1.2-.94,21.76-5.42,41.7-13.36,59.65,42.12-7.41,83.8-27.71,124.27-60.58a31,31,0,0,0,18.5-25.45,32.35,32.35,0,0,0-.26-8.81c15.48-5.65,26.07-13.64,31.59-23.87A35.1,35.1,0,0,0,995.29,696.54Z" style="fill:#b8b8b8"/><path d="M862.64,397.46C826.2,266,715.14,161.61,571.72,140.83a355,355,0,0,0-375.46,208A84.54,84.54,0,0,0,107.35,427l-5,68.53a84.52,84.52,0,0,0,75.35,90.21c12.39,38.13,30.87,64.41,44.3,81.46,5.92,7.5,10.86,13.23,13.87,17.37A99.14,99.14,0,0,0,250,699.77c46.86,41.88,160.79,88.87,250.33,88.87,129.37,0,202.77-24.61,289.62-84.89.24-.16.46-.32.69-.49a149.88,149.88,0,0,0,27.73-24.44c10.95-12.52,19-26.24,30-44.14.59,0,1.18,0,1.76,0a84.65,84.65,0,0,0,84.25-78.38l5-68.54A84.64,84.64,0,0,0,862.64,397.46Zm-540.57-172a329.76,329.76,0,0,1,198.11-66.11,335.63,335.63,0,0,1,48.34,3.5C667.84,177.28,750.6,234.46,800.82,313c-58.55-53.45-143.45-89.69-244.55-102.78s-192.21.85-262.16,38.59A341.22,341.22,0,0,1,322.07,225.5Zm231.53,5.32c116.11,15,209.45,61.46,263.13,129.5a254,254,0,0,0-24.48-24.13c-32.82-28.26-75.31-51-125.57-67.6-34.2-11.27-72-19.67-112.81-24.95-2.42-.32-4.84-.61-7.25-.89-97.76-11.66-183-1.45-246.83,29.67a247.88,247.88,0,0,0-38.39,23.12C330.29,238.86,434.37,215.39,553.6,230.82ZM170,440.85a360.07,360.07,0,0,0-3.71,55.73q-.12,8.4.2,16.77a73.4,73.4,0,0,1-41.1-27.6l4.17-57.08a62.24,62.24,0,0,1,57.8-57.57A357.93,357.93,0,0,0,170,440.85Zm675.75,107c-.36,2.76-.76,5.49-1.2,8.23q-.42,2.65-.88,5.3l-1,2.31c-.28.65-.55,1.29-.83,1.93l0,.06q-1.15,2.65-2.37,5.3c-3.34,7.3-7.41,14.2-10.73,21.45a215.94,215.94,0,0,1-16.57,29.65,230.23,230.23,0,0,1-28.06,34.34q-4.22,4.26-8.66,8.34c-62,58.57-164,88.38-255.25,88.38a446.31,446.31,0,0,1-49.65-2.81c-57.45-5.29-108.52-20-151-46a246.92,246.92,0,0,1-63.33-55.44A261.54,261.54,0,0,1,230,609.56a307.87,307.87,0,0,1-21.08-48.32c-2.45-7.19-4.73-14.58-6.8-22.22-2.23-8.23-5.21-16.26-7.37-24.56q-.81-3.09-1.56-6.2c-.52-2.19-1-4.39-1.51-6.59v-.1a293.76,293.76,0,0,1,2.43-38.09c.22-1.7.47-3.37.72-5q1.38-9.46,3.35-18.5c.88-4,1.83-8,2.88-11.92a225.9,225.9,0,0,1,11.57-32.9c19.5-44,52.37-77.5,98.28-99.88a271.66,271.66,0,0,1,34.18-13.76c36.53-12,78.86-18.05,125.64-18.05a623.14,623.14,0,0,1,79.88,5.39c95.29,12.34,172.74,42,224.12,85.82l.94.79c31.25,26.92,52.42,58.67,63.45,94.93A203.91,203.91,0,0,1,846,481.87q.74,5.34,1.22,10.8.69,8,.83,16.17A268.51,268.51,0,0,1,845.77,547.87Zm71.33-61.69L913,543.09a73.39,73.39,0,0,1-44.45,23.79c.94-5.22,1.77-10.46,2.45-15.75q.85-6.54,1.4-13a352.65,352.65,0,0,0-4.08-117.29A62.32,62.32,0,0,1,917.1,486.18Z" style="fill:#b8b8b8"/><path d="M211.31,755.4l-.15,0c-30.58-7.73-53.87-21.87-65.51-29.66A316.23,316.23,0,0,1,120,706.65a14.11,14.11,0,0,1-2.68-6.2,14.63,14.63,0,0,0,0-2c.44-3.05,2.83-6.45,9.56-9.48-10.86-6.8-39.07-17.81-45.21-29.58a15.2,15.2,0,0,1,3.85-.43c3.81,0,9.13.88,16.6,2.62a80.53,80.53,0,0,0,10.81,2c11,1,17.36-5,19.58-11,3.41-9.12-1.11-17.45-5.49-25.51-8.73-16.1-8.49-20.14-3.23-24.83,1.45-1.29,2.1-1.19,2.87-1.07.28,0,.56.1.85.17,9,2.32,23.37,19.57,30.55,31.61a15,15,0,0,0,25.59.36,12,12,0,0,1,5.34.42,31.66,31.66,0,0,1,3.27,1c3.06,1.11,3.6,4,3.63,5.78a13.39,13.39,0,0,0,3.69,10.57,96.85,96.85,0,0,0,22.24,17.7c1-11.54,2.41-23,4-33.94l-.5-.44c-1.72-9.69-7.68-22.33-22.77-27.85-11.9-4.34-21-3.9-27.48-2-9.63-12.88-25.68-30.24-43.82-33.05a32.61,32.61,0,0,0-27.43,8.32c-10.77,9.6-15.33,22-13.21,35.8a58.55,58.55,0,0,0,4.15,13.93A63.5,63.5,0,0,0,82,629.1C64,630.36,55,640.61,50.66,649a35.15,35.15,0,0,0-1.38,30.35C53.82,690,63.6,699,78.48,706.08a32,32,0,0,0-1.09,8.74,31,31,0,0,0,16,27.08c39.09,38.43,80.83,63.16,124.36,73.71A197,197,0,0,1,211.64,777C211.19,769.64,211.12,762.42,211.31,755.4Z" style="fill:#b8b8b8"/><path d="M28.84,640l-.33.06Z" style="fill:#272727"/><path d="M29.49,639.87c-.21,0-.43.1-.65.13Z" style="fill:#c2c2c2"/><path d="M501.61,674.56c-1.06-.46-2.1-1-3.11-1.5C499.51,673.6,500.54,674.1,501.61,674.56Z" style="fill:#898989"/><path d="M536.5,675.25c-.24.1-.48.21-.73.3C536,675.46,536.26,675.35,536.5,675.25Z" style="fill:#898989"/><path d="M540.05,673.69l-.7.36Z" style="fill:#898989"/><path d="M505,675.87c-1.06-.36-2.1-.77-3.12-1.2C502.87,675.1,503.91,675.51,505,675.87Z" style="fill:#898989"/><path d="M543.32,671.9l-.56.34Z" style="fill:#898989"/><path d="M532.66,676.55l-.62.19Z" style="fill:#898989"/><path d="M512.18,677.7c-1-.17-2-.39-3-.63C510.15,677.31,511.15,677.53,512.18,677.7Z" style="fill:#898989"/><path d="M528.45,677.55l-.3.07Z" style="fill:#898989"/><path d="M508.5,676.92c-1.05-.27-2.09-.58-3.11-.91C506.41,676.34,507.45,676.66,508.5,676.92Z" style="fill:#898989"/><path d="M516,678.18c-.93-.08-1.84-.21-2.75-.34C514.15,678,515.06,678.1,516,678.18Z" style="fill:#898989"/><path d="M519.87,678.35h0c-.45,0-.89,0-1.34-.05C519,678.31,519.44,678.35,519.87,678.35Z" style="fill:#898989"/><path d="M546.34,669.88l-.34.26Z" style="fill:#898989"/><path d="M549.11,667.66l-.08.07Z" style="fill:#898989"/><path d="M513.63,673l-.55-.07Z" style="fill:#898989"/><path d="M510,672.33l-.12,0Z" style="fill:#898989"/><path d="M549.14,628.06c-3.39,0-7.19.87-11.58,1.89-5.33,1.23-11.37,2.62-17.69,2.62s-12.36-1.39-17.69-2.62c-4.39-1-8.19-1.89-11.58-1.89-4.49,0-12,1.82-12,14,0,.51.06,1,.09,1.5a2.35,2.35,0,0,1,.37,0,3.75,3.75,0,0,1,.47,0,2.87,2.87,0,0,1,.84.28c.24.13.52.25.76.38.81.42,1.64.83,2.51,1.23,9.16,4.13,21.66,6.47,35,6.47,14.69,0,28.42-2.86,37.63-7.73q1.31-.69,2.49-1.44l.47-.28a2.64,2.64,0,0,1,1.32-.42,1,1,0,0,1,.17,0,2.89,2.89,0,0,1,.49.07v0C561.18,629.88,553.63,628.06,549.14,628.06Z" style="fill:#fff"/><path d="M532,676.74c-1.18.32-2.38.59-3.59.81C529.66,677.33,530.86,677.06,532,676.74Z" style="fill:#202020"/><path d="M539.35,674.05q-1.4.65-2.85,1.2Q538,674.7,539.35,674.05Z" style="fill:#202020"/><path d="M542.76,672.24c-.87.52-1.79,1-2.71,1.45C541,673.24,541.88,672.76,542.76,672.24Z" style="fill:#202020"/><path d="M546,670.14c-.86.62-1.76,1.2-2.68,1.76C544.24,671.34,545.14,670.76,546,670.14Z" style="fill:#202020"/><path d="M535.77,675.55c-1,.37-2,.7-3.11,1C533.72,676.25,534.76,675.92,535.77,675.55Z" style="fill:#202020"/><path d="M520,678.35a46.67,46.67,0,0,0,8.17-.73,46.31,46.31,0,0,1-8.23.73Z" style="fill:#202020"/><path d="M549,667.73c-.86.76-1.76,1.47-2.69,2.15C547.27,669.2,548.17,668.48,549,667.73Z" style="fill:#202020"/><path d="M518.58,678.3c-.86,0-1.73,0-2.59-.12C516.85,678.25,517.72,678.27,518.58,678.3Z" style="fill:#202020"/><path d="M498.5,673.06l-.06,0Z" style="fill:#202020"/><path d="M501.85,674.67l-.24-.11Z" style="fill:#202020"/><path d="M509.15,677.07l-.65-.15Z" style="fill:#202020"/><path d="M513.24,677.84c-.35-.05-.71-.08-1.06-.14C512.53,677.76,512.89,677.79,513.24,677.84Z" style="fill:#202020"/><path d="M505.39,676l-.42-.14Z" style="fill:#202020"/><path d="M561.18,642.06a2.89,2.89,0,0,0-.49-.07,1,1,0,0,0-.17,0,2.64,2.64,0,0,0-1.32.42l-.47.28q-1.18.75-2.49,1.44c-9.21,4.87-22.94,7.73-37.63,7.73-13.35,0-25.85-2.34-35-6.47-.87-.4-1.7-.81-2.51-1.23-.24-.13-.52-.25-.76-.38a2.87,2.87,0,0,0-.84-.28,3.75,3.75,0,0,0-.47,0,2.35,2.35,0,0,0-.37,0,34,34,0,0,0,10.89,23.06l.14.13c.47.44.94.87,1.43,1.29l.3.25q.68.57,1.38,1.11l.48.36c.43.32.86.64,1.31.94l.72.47c.38.25.77.51,1.16.75.65.39,1.3.77,2,1.13l.06,0c1,.54,2.05,1,3.11,1.5l.24.11c1,.43,2.06.84,3.12,1.2l.42.14c1,.33,2.06.64,3.11.91l.65.15c1,.24,2,.46,3,.63.35.06.71.09,1.06.14.91.13,1.82.26,2.75.34s1.73.09,2.59.12c.45,0,.89.05,1.34.05a46.31,46.31,0,0,0,8.23-.73l.3-.07c1.21-.22,2.41-.49,3.59-.81l.62-.19c1.06-.3,2.1-.63,3.11-1,.25-.09.49-.2.73-.3q1.46-.56,2.85-1.2l.7-.36c.92-.45,1.84-.93,2.71-1.45l.56-.34c.92-.56,1.82-1.14,2.68-1.76l.34-.26c.93-.68,1.83-1.39,2.69-2.15l.08-.07a34.45,34.45,0,0,0,12-22.84,4.57,4.57,0,0,0-.07-1.28C561.12,643.05,561.18,642.56,561.18,642.06Z" style="fill:#a7a7a7"/><path d="M822.46,699c-1.77-7.9-3.34-14.92-4.07-20-.17-1.17-.3-2.23-.37-3.18-1.36-18.17-3.48-36.55-5.8-53.54a231.49,231.49,0,0,1-28.06,34.34q-4.23,4.26-8.66,8.34c-62,58.57-164,88.39-255.26,88.39a446.48,446.48,0,0,1-49.65-2.82c-57.45-5.29-108.52-20-151-46a246.9,246.9,0,0,1-63.33-55.44A261.54,261.54,0,0,1,230,609.73q-.81,4.51-1.6,9.22c-2.55,15.18-4.86,31.68-6.39,48.46q-.39,4.2-.7,8.4c-.31,4.14-1.47,10.73-2.81,18.36-3.52,20.08-8.85,50.43-6.86,83,1.78,29.05,9.13,55.05,21.9,77.63a107.43,107.43,0,0,0,.23,15c2.23,26.32,13.77,54.45,32.49,79.2s42.66,43.49,67.39,52.79a93,93,0,0,0,32.55,6.35c14.56,0,27.39-4.12,38.12-12.24,11.91-9,19.81-22,23.27-37.84q11.19,1.44,22.94,2.48a36.1,36.1,0,0,0,14.34,3H583.16A36.18,36.18,0,0,0,599,959.78q10.07-1,19.71-2.16c2.82,16,10.19,29.33,21.74,38.85,11,9.1,25.18,13.91,40.86,13.91a95.2,95.2,0,0,0,29.71-5.09c25.17-8.29,49.93-26.1,69.73-50.13s32.52-51.75,35.84-78a98.9,98.9,0,0,0,.11-25.19c10.59-21.09,16.14-45.12,16.51-71.79C833.66,749.05,827.19,720.11,822.46,699ZM397.89,953.29c-2.08,8-6,14.35-11.63,18.6h0c-10,7.54-24.89,8.16-42,1.72-19.49-7.32-38.68-22.52-54-42.81a145.87,145.87,0,0,1-17.72-30.23c-8.79-20.38-11.43-40.4-7.3-55.29,2.09-7.55,5.92-13.78,11.58-18.06,5.39-4.08,12.16-6.15,20.13-6.15a62.78,62.78,0,0,1,21.89,4.41c19.48,7.33,38.67,22.53,54,42.82C385.44,885,394,903.2,397.68,920.68a93.49,93.49,0,0,1,1.67,11.25A63.79,63.79,0,0,1,397.89,953.29Zm193.33-91.41a18.91,18.91,0,0,0,0,4.16v19.14c-2.06,19.32-12.8,43.35-58.59,43.35-53.21,0-59.14-13.25-75.77-23.08V859a8.07,8.07,0,0,1,8.05-8.06H583.16a8.07,8.07,0,0,1,8.06,8.06Zm195.2,14.31a106.93,106.93,0,0,1-6.08,21.72,142.5,142.5,0,0,1-22.74,38.18h0c-16.23,19.71-36.1,34.16-56,40.71-17.45,5.74-32.4,4.51-42.11-3.49-5.7-4.69-9.44-11.62-11.11-20.22a65.13,65.13,0,0,1-.37-20.44,94,94,0,0,1,2.46-12.47c4.51-17,13.75-34.45,26.77-50.25,16.24-19.71,36.11-34.17,56-40.71a65,65,0,0,1,20.21-3.57c8.85,0,16.22,2.38,21.9,7.05a30.69,30.69,0,0,1,8.79,12.16C787.6,853.2,788.42,863.88,786.42,876.19Zm11-64c-1-.9-1.94-1.77-3-2.61-17.93-14.78-43-17.91-70.57-8.83-25.16,8.3-49.93,26.1-69.72,50.13-17.87,21.7-30,46.39-34.58,70.34V859a36.44,36.44,0,0,0-36.39-36.39H464.91A36.43,36.43,0,0,0,428.53,859v64.35c-3.35-24.55-14.47-50.3-31.78-73.17-18.73-24.75-42.66-43.5-67.39-52.8-27.1-10.18-52.2-8.09-70.67,5.89a58.77,58.77,0,0,0-8.88,8.3,163.4,163.4,0,0,1-6.19-36.41c-1.75-28.66,2.94-55.56,6.4-75.25,46.86,41.88,160.79,88.87,250.33,88.87,129.37,0,202.77-24.61,289.62-84.89.24-.16.46-.32.69-.49.19.84.38,1.67.57,2.54,4.38,19.57,10.38,46.39,10,73.72A149.16,149.16,0,0,1,797.39,812.16Z" style="fill:#b8b8b8"/><path d="M808.23,507.68l-11.69-3.57L743,487.77l-17.18-54.3a16.21,16.21,0,0,0-19.33,5.8l-38.65,55.2-67.37-.53A16.35,16.35,0,0,0,584.2,512.8l-6.48-8.61a16.3,16.3,0,0,1,13.14-26.11l67.37.53,38.64-55.2a16.32,16.32,0,0,1,25-2,16.5,16.5,0,0,0-28.76-3.15L654,474.13l-68.22-.54A16.5,16.5,0,0,0,572.52,500l41.06,54.46-9.34,28a0,0,0,0,0,0,0L592,619.21A16.51,16.51,0,0,0,613,640l64.5-22.22,54.87,40.53a16.51,16.51,0,0,0,26.31-13.58l-1.21-68.2L813,536.91A16.52,16.52,0,0,0,808.23,507.68Z" style="fill:#e4e4e4"/><path d="M466.62,452.57l-12.54-.05-57.46-.27L357.2,394.39a16.93,16.93,0,0,0-30.07,4.22l-22,66.49L238,484.7a16.93,16.93,0,0,0-5.27,29.91L289.12,556l-.91,30.29a0,0,0,0,0,0,0L287,626a16.94,16.94,0,0,0,26.82,14.26l56.84-40.88L436.55,623a17,17,0,0,0,21.86-21.11l-21.32-66.68,42.85-55.35A17,17,0,0,0,466.62,452.57Zm-123.21-36-21.46,65-65.7,19.15a16.61,16.61,0,0,0-10.31,23.1l-8.82-6.48a16.55,16.55,0,0,1,5.15-29.24L308,468.94l21.46-65a16.56,16.56,0,0,1,29.4-4.13l3.94,5.78A16.55,16.55,0,0,0,343.41,416.57Z" style="fill:#e4e4e4"/><path d="M1007,847.08,972.6,823.72l-.12-41.66a10.05,10.05,0,0,0-16.25-7.87l-33,25.6L906,794.36h0l-22.5-7.12a10.13,10.13,0,0,0-12.59,13l14,39.18-24.41,33.9a10.07,10.07,0,0,0,4.41,15.25,3.86,3.86,0,0,0-1.89,1.46l-9.43,13.48-7.1,0h0l-9.29-.06a4,4,0,0,0-3.21,6.37l9.83,13.11-5.22,15.6a4,4,0,0,0,5,5l15.51-5.38,13.16,9.74a4,4,0,0,0,6.34-3.28l0-3-.21-13.48,13.36-9.59a4,4,0,0,0-1.12-7L875,906.78l-4.91-15.66a3.94,3.94,0,0,0-1.2-1.83H869l41.68-1.4,24.6,33.51a10.11,10.11,0,0,0,17.83-3.19l2.1-7.17,9.64-32.87L1004.47,865A10.09,10.09,0,0,0,1007,847.08Z" style="fill:#e4e4e4"/><path d="M835,165.22,797.83,140l-.12-45a10.75,10.75,0,0,0-8-10.41,4.49,4.49,0,0,0,2.35-2.4l1.31-3.11,6-14.25,18.44-3.91a4.56,4.56,0,0,0,2-7.9L805.62,40.81l2-18.69a4.53,4.53,0,0,0-6.88-4.35l-16.1,9.81-7.43-3.31h0l-9.72-4.33a4.58,4.58,0,0,0-6.31,5.21l4.3,18.28-12.66,14a4.53,4.53,0,0,0,3,7.58l18.75,1.48,9.33,16.28a4.5,4.5,0,0,0,1.5,1.56,10.81,10.81,0,0,0-5.26,2.22l-35.66,27.65L726,108.29s0,0,0,0l-24.3-7.7a10.89,10.89,0,0,0-12.48,4.51,4.46,4.46,0,0,0-2-3.31L671.67,91.25l0-18.8a4.5,4.5,0,0,0-3.41-4.37,2.38,2.38,0,0,0,1.54-1.6l.51-1.74,2.34-8,9.61-3.2a2.44,2.44,0,0,0,.62-4.34l-8.35-5.67,0-10.11a2.44,2.44,0,0,0-3.94-1.91l-8,6.21-4.17-1.32h0l-5.46-1.73a2.46,2.46,0,0,0-3,3.17l3.39,9.5-5.92,8.23a2.44,2.44,0,0,0,2.06,3.87l10.11-.34,6,8.13a2.43,2.43,0,0,0,.92.75,4.44,4.44,0,0,0-2.06.9l-14.9,11.55L641.64,78h0l-10.15-3.22a4.57,4.57,0,0,0-5.68,5.89l6.32,17.68-11,15.3a4.53,4.53,0,0,0,3.82,7.19l18.8-.63,11.1,15.12a4.57,4.57,0,0,0,8-1.44l1-3.24,4.35-14.83,17.87-5.95a4.65,4.65,0,0,0,1.53-.86,10.82,10.82,0,0,0,.46,5.67L703.17,157l-26.37,36.6A10.86,10.86,0,0,0,686,210.81l45-1.51,26.56,36.19A10.93,10.93,0,0,0,776.78,242l2.27-7.75,10.41-35.49,42.79-14.24A10.9,10.9,0,0,0,835,165.22Z" style="fill:#e4e4e4"/><path d="M183.52,881.29l-30.23-20.51-.1-36.61a8.76,8.76,0,0,0-7-8.59A3.66,3.66,0,0,0,150,813l.76-2.6,3.48-11.9,14.36-4.74a3.65,3.65,0,0,0,.92-6.49l-12.48-8.49-.05-15.1a3.65,3.65,0,0,0-5.89-2.87l-12,9.25-6.23-2h0l-8.15-2.6a3.66,3.66,0,0,0-4.56,4.71l5.08,14.21-8.84,12.26a3.65,3.65,0,0,0,3.08,5.79l15.1-.47,8.92,12.17a3.61,3.61,0,0,0,2.06,1.38,8.75,8.75,0,0,0-6.69,1.78l-29,22.49L94.82,835h0l-19.76-6.26A8.9,8.9,0,0,0,64,840.18l12.3,34.42L54.85,904.38a8.83,8.83,0,0,0,7.44,14l36.61-1.23,21.6,29.44a8.89,8.89,0,0,0,15.67-2.81l1.84-6.3,8.47-28.88L181.28,897A8.86,8.86,0,0,0,183.52,881.29Z" style="fill:#e4e4e4"/></g></g></svg>