<svg xmlns="http://www.w3.org/2000/svg" viewBox="0 0 1030.13 1030"><g id="f15fd18a-443f-4ff8-894a-766b39d5d9b5" data-name="Layer 2"><g id="fddec4f3-597b-4119-922d-219352c7623f" data-name="Gray Scale"><path d="M784,647c-60.19,66.66-169.81,100.64-267.25,100.64-101.19,0-214.19-36.07-272.81-106.81-5.13,24.2-11.41,58.16-14,92.29-3.57,47.87-84.68,270.34,281.35,270.34,390.74,0,287.22-219.54,283.41-270.34C792.49,702.54,787.93,671,784,647Z" style="fill:#e3e3e3"/><path d="M794.77,733.14C792.49,702.54,787.93,671,784,647c-31,34.31-75,60-123.81,76.77h0a126.73,126.73,0,0,1,13.49,28C641.58,762.9,577.12,781,503.65,778.6c-69.59-2.26-129.92-22.3-162.73-35.57a99.08,99.08,0,0,1,15.17-25.44h0c-44.84-17.79-84.53-43.42-112.15-76.75-5.13,24.2-11.41,58.16-14,92.29-3.5,46.92-81.45,261.52,260,270.07-61.72-1.56-109.72-9.86-146.93-22.68a159,159,0,0,1-7.1-23.31c34.57,13.51,93.46,32,160.82,34.19,4.54.14,9.06.21,13.53.21,74.42,0,138-19.49,166.55-29.82-3.78,10.9-8.37,20-13.75,26.47C871.57,937.68,798,775.83,794.77,733.14ZM337.33,752.35c33.67,13.6,95.15,33.95,166,36.24q6.82.23,13.54.22c69.1,0,128.91-16.81,159.92-27.49A285.93,285.93,0,0,1,685,797.83c-24.49,9.42-97.65,34.21-183,31.47-78.17-2.53-144.68-27.51-173.58-40.12A215.76,215.76,0,0,1,337.33,752.35ZM327,799.44c30.94,13.25,97.22,37.34,174.7,39.85q6.82.23,13.54.22c78.79,0,145.5-21.85,171.22-31.55,1.64,12.37,2.73,25.17,3.26,38-14.48,6-94.39,37.07-189.34,34-80.53-2.6-148.66-29-176.08-41.22A383.06,383.06,0,0,1,327,799.44ZM680.52,949.76c-24,9.27-97.56,34.42-183.43,31.65-70.27-2.27-131.12-22.69-163.7-35.95-2.52-12.73-4.74-27.43-6.37-43.21,32.2,13.48,96.57,36,171.39,38.45,4.54.15,9.06.22,13.53.22,84.31,0,154.77-25,176-33.4A279.21,279.21,0,0,1,680.52,949.76Zm8.42-53.43c-11.76,4.95-93.12,37.5-190.21,34.38C421.29,928.2,355.31,903.67,326,891c-1.1-13.36-1.74-27.29-1.78-41.3,30.43,13.13,97.4,37.81,175.85,40.35q6.82.21,13.53.22c84.89,0,155.76-25.37,176.45-33.57C690.27,870.08,689.9,883.45,688.94,896.33Z" style="fill:#b4b4b4"/><rect x="0.13" width="1030" height="1030" style="fill:none"/><path d="M522.18,236.76c-275.42,0-318.41,194.39-318.41,294.46,0,142.93,168.55,216.44,313,216.44,143.34,0,313-73.51,313-216.44C829.77,440.15,777.76,236.76,522.18,236.76Z" style="fill:#b4b4b4"/><path d="M421,256.87C412.21,233,474.21,78.52,508.63,78.52S612.88,238.1,600.94,256.87,429.83,280.73,421,256.87Z" style="fill:#e2e2e2"/><path d="M629.68,257.51c4.49-19.5,111.88-94.4,134.52-79.57S764,327.86,748,335.06,625.19,277,629.68,257.51Z" style="fill:#e2e2e2"/><path d="M766.36,349.2c12-11.28,119.49-13.5,128.19,7s-68.5,102.34-82.68,100S754.41,360.47,766.36,349.2Z" style="fill:#e2e2e2"/><ellipse cx="352.26" cy="549.01" rx="117.69" ry="117.68" transform="translate(-191.18 188.22) rotate(-23.73)" style="fill:#e6e6e6"/><ellipse cx="666.89" cy="549.01" rx="117.69" ry="117.68" transform="translate(-164.57 314.86) rotate(-23.73)" style="fill:#e6e6e6"/><path d="M335.1,378.19c13.24.78,25.84,0,25.84-4.44,0-4.26-8.25-7.82-21.49-8.61s-26.43,0-26.43,5.76S321.87,377.4,335.1,378.19Z" style="fill:#202020"/><path d="M676.94,378.19c-13.24.78-25.84,0-25.84-4.44,0-4.26,8.25-7.82,21.49-8.61s26.43,0,26.43,5.76S690.17,377.4,676.94,378.19Z" style="fill:#202020"/><path d="M571,654.82H467a5,5,0,1,0,0,9.87h3.44c2.2,11.33,3.81,23.74,9.38,23.74s9.26-12.68,10.71-23.74h58.08c2.2,11.33,3.82,23.74,9.38,23.74s9.27-12.68,10.72-23.74H571a5,5,0,1,0,0-9.87Z" style="fill:#e6e6e6"/><path d="M875,600.64s-8-14.4-9.67-11S866.7,602,866.7,602s-31.64,67.24-77.36,80.62c.23,1.71.46,3.42.68,5.15a69.56,69.56,0,0,0,19.84-8c32.59-19.15,54.79-69.31,54.79-69.31s1.79-3.3,2.32,0,.75,44.59.75,44.59-8.59-9.64-12.06-8.4-13.81,19.62-47.12,37.39a81.19,81.19,0,0,1-18.08,7.24q.84,6.66,1.62,13.49a62.17,62.17,0,0,1,13.62.75c29.27,5.08,58.83,19.12,63.88,33.23,0,0,40.52-63.73,107.59-43.2,0,0,9.1-46.72,37.18-68.31,0,0,10.94-7.07,14.1-12.25C1028.45,614.87,920.22,593.39,875,600.64Zm.93,35.63s-3.14-31,2-27.89,52.18,24.38,89.47,79.2C967.47,687.58,892,618.14,876,636.27Zm5.7-33.82s58.16,1.6,105.47,18Z" style="fill:#b4b4b4"/><path d="M170.18,603.24s4.33-9,3.1-12.71-11.59,10.19-11.59,10.19C115.57,587,0,593.54,0,593.54c2.58,5.84,12.81,15.66,12.81,15.66,26.31,26.36,29.39,76.31,29.39,76.31,72.73-12.2,106.21,59.8,106.21,59.8,7.2-14,39.94-24.6,71.15-25.88a63.36,63.36,0,0,1,11.6.65c.85-8.45,1.89-16.81,3.05-24.94C192,671.69,170.18,603.24,170.18,603.24Zm-149.47.14c75.29-9.89,133.81-1.68,133.81-1.68Zm133.65,39.78c-14.26-21.11-101,35.5-101,35.5,46.38-52,98.28-67.7,104.12-70.28S154.36,643.16,154.36,643.16Zm5.95,29.38s7.77-44,11.21-42.23,15.74,43.25,48,66.34Z" style="fill:#b4b4b4"/><path d="M961.09,901.78c1.21-14.93-4.83-52.21-13.28-54.7-8.64-2.56-33,26.23-39.6,39.58a119.29,119.29,0,0,1-29.94-13.41c9.61-14.63,24.42-57.65,16.92-65s-48.6,8.8-63.29,19.07a228.18,228.18,0,0,1-16.83-29.2c17.26-6.14,59.58-36.07,57.55-47.68-2.37-13.53-67.38-27.26-76.15-22.15-8.18,4.76,2.54,59.16,10.67,69.26,7.32,49.8,4.59,113.82-61.53,157.17a86.29,86.29,0,0,0,18.73,14.54c24.81,14.55,136.39,11.9,160.82,9.17,20.64-2.31,63.6-11.59,63.49-43.6C988.58,917.34,983.42,909.82,961.09,901.78Z" style="fill:#e2e2e2"/><path d="M794.78,733.5q-.59-7.68-1.33-15.38c-2.21-22.87-5.41-45.46-8.39-64.27-.36-2.32-.73-4.58-1.08-6.77-20.44,22.6-46.55,41.45-76,56.48l-1.64,29-1.93,33.87-1.77,31.24-3,52.78-2.92,51.48L696.14,913l-2.7,47.5-.61,10.81-.51,8.88c2.36-.79,4.68-1.61,6.95-2.44q4.93-1.8,9.61-3.72,5.85-2.39,11.29-4.93,10-4.71,18.69-9.89c31.2-18.6,49.6-41.49,59.83-65.63a140.14,140.14,0,0,0,9.59-35.22c.66-4.7,1.11-9.4,1.38-14.08a226.61,226.61,0,0,0-2-42.8C803.67,771.88,795.77,746.85,794.78,733.5Z" style="opacity:0.1"/><path d="M253.2,547.88a107,107,0,1,0,107-107A107,107,0,0,0,253.2,547.88Zm133.67-80.29c12.3,18.46-24.61,36.91-43.06,49.21s-49.21,30.75-67.66,18.45,12.3-55.35,30.76-67.66S374.56,449.14,386.87,467.59Z" style="fill:#202020"/><path d="M659.75,440.84a107,107,0,1,0,107,107A107,107,0,0,0,659.75,440.84Zm-51.46,69.81c-18.45,24.6-36.9,43.06-43,30.75s4-33.64,18.45-55.35c12.3-18.46,36.91-30.76,43.06-24.61C636.47,471.17,618.73,496.73,608.29,510.65Z" style="fill:#202020"/><path d="M961.09,901.78c-.24,3-.77,5.07-1.62,5.81-5.15,4.49-52.43-7.85-53-15.64-.08-1.15.55-3,1.69-5.29a119.29,119.29,0,0,1-29.94-13.41c-1.82,2.78-3.46,4.54-4.72,4.83-7.9,1.82-50.5-37.54-46.69-46,.58-1.29,2.38-3,5-4.81a228.18,228.18,0,0,1-16.83-29.2c-2.86,1-5,1.38-6.2.9a4.76,4.76,0,0,1-1.73-1.47c7.32,49.8,4.59,113.82-61.53,157.17a86.29,86.29,0,0,0,18.73,14.54c24.81,14.55,136.39,11.9,160.82,9.17,20.64-2.31,63.6-11.59,63.49-43.6C988.58,917.34,983.42,909.82,961.09,901.78Z" style="fill:#b4b4b4"/><path d="M571,664.69H467a5,5,0,1,1,0-9.87H571a5,5,0,1,1,0,9.87Z" style="fill:#202020"/></g></g></svg>