<svg xmlns="http://www.w3.org/2000/svg" viewBox="0 0 1030.54 1030"><g id="a131d0bf-262a-4fce-a0e3-c313fe3b8d99" data-name="Layer 2"><g id="bef90afe-26f3-4865-887e-a27648f92227" data-name="Gray Scale"><path d="M921.1,851.17s-29.1,42.41-63.75,66.26C827.14,938.23,782.69,967,706.87,969a194.45,194.45,0,0,0,46.75-26c81-60.74,48.62-166,41.46-202.44,0,0,10.85,27.52,39.35,36.37,21.22,6.59,33-.18,33-.18s-3.64-36.41,40.4-86.58c0,0,49.59,50.7,27.78,92.19,0,0,22.56-28.4,95,17.13C1030.54,799.47,984.63,860.47,921.1,851.17Z" style="fill:#575757"/><path d="M867.38,776.73a24.58,24.58,0,0,1-6.74,2.24c-.52,20,1.54,29.44,7.44,41.43-4,4.12-10,7.57-18.74,7.22-20.89-.84-24.21-21.83-24.21-21.83s-8.87-1.66-8.39-13.51c10.45.42,16.29-5.1,20.78-9.59a10.91,10.91,0,0,0,2.71-4.25c-1.85-.4-3.78-.9-5.8-1.53-.63-.2-1.25-.42-1.86-.63l-.14.2c-4.1,5.36-11,10.62-22,10.17a29.08,29.08,0,0,1-6.27-.93q.42,2.65.79,5.38a29.74,29.74,0,0,0,3.37.26,15.31,15.31,0,0,1-2.3,8.38c.27,2.43.5,4.89.71,7.39,2.14-1.82,4.21-5,4.32-10.65-.23,11.86,8.67,13.34,8.67,13.34s3.76,20.91,24.66,21.31c-.22,11.86-9.18,13-9.18,13a30.74,30.74,0,0,1-4.89,10.33c-3.75,5.13-10.11,10.22-20.57,10a27.13,27.13,0,0,1-5.87-.74q-.76,3.64-1.72,7.29h.13c-.08,4.3-1.31,7.18-2.85,9.12a130,130,0,0,1-11.57,25.25c8.29-6.06,10.41-16.07,10.41-16.07s8.94-1.21,9.06-13.07c-.12,11.86,8.79,13.26,8.79,13.26s3.94,20.88,24.85,21.09a17.72,17.72,0,0,1-.95,5.81c-10.83,11.86-26.45,20.91-43.34,26.41-10.17-5.91-14.9-19.67-14.9-19.67a10.36,10.36,0,0,1-4.72-2.43q-2.22,2.7-4.65,5.34a10.08,10.08,0,0,0,3.64,1.38s4.84,12.7,15.26,18.16c-19.48,8.7-39.3,12.43-52.81,14.84a11.37,11.37,0,0,1-3.6-5c-2.23,1.31-4.39,2.53-6.45,3.64a13,13,0,0,0,2.85,3.5c-4.51.6-8.61,1-12.24,1.31h-.1c-7.37,3.49-12,5.14-12,5.14,75.82-2,120.27-30.8,150.48-51.6,34.65-23.86,63.75-66.26,63.75-66.26C864.12,844.52,867.38,776.73,867.38,776.73Zm-13.71,57.64c9,.51,14.16-3.06,17.76-7.27,6.57,13,21.15,24.3,37.21,27.45-5.43,7.12-7.57,8.4-13.23,14.48a25.83,25.83,0,0,1-9.72,1.21C864.81,869.05,861.84,848,861.84,848S853,846.21,853.67,834.37Zm-6,82-1.48,1a17.45,17.45,0,0,0,1-5.79,26.53,26.53,0,0,0,8.67-1.21Q851.79,913.51,847.69,916.37Zm19.2-21.77q-6.89,5.68-13.81,10.56a26.15,26.15,0,0,1-8.7.88c-20.88-1.18-23.85-22.22-23.85-22.22s-8.84-1.8-8.17-13.65c10.45.59,17-4.26,20.94-9.25a30.63,30.63,0,0,0,5.27-10.13s9-.79,9.66-12.64c-.67,11.85,8.17,13.65,8.17,13.65s3,21,23.85,22.22c-.67,11.84-9.66,12.64-9.66,12.64A30.12,30.12,0,0,1,866.89,894.6Zm21.6-13.43q-6.93,7.27-14,13.58a30.16,30.16,0,0,0,3.4-8.07s8.95-1.13,9.18-13a26,26,0,0,0,9.67-1.57Q892.63,876.83,888.49,881.17Z" style="fill:#ddd"/><path d="M782,641.8c-59.8,68-170.63,102.64-269.05,102.64-100.52,0-212.72-35.6-271.66-105.43-5,23.94-10.84,56.44-13.28,89.09C224.39,776,143.28,998.45,509.31,998.45c390.75,0,287.22-219.55,283.42-270.35C790.43,697.42,785.85,665.8,782,641.8Z" style="fill:#575757"/><path d="M798.4,869.79c-21.37.27-25.89-21-25.89-21s-9.14-1.22-9.29-13.34c10.68-.13,17-5.54,20.68-10.91a31.25,31.25,0,0,0,4.65-10.7s9.11-1.45,9-13.57c.15,12.12,9.3,13.33,9.3,13.33a23.37,23.37,0,0,0,.92,3q-.22-4.12-.58-8.19c-2.72-1.35-6.53-4.63-6.63-12.43a28.62,28.62,0,0,0,5.16-.52c-.39-2.86-.82-5.68-1.27-8.45a27.34,27.34,0,0,1-7.26,1c-21.36.27-25.88-21-25.88-21s-9.14-1.21-9.29-13.33c10.68-.14,17-5.55,20.68-10.91a31.34,31.34,0,0,0,4.65-10.71,10.65,10.65,0,0,0,5.64-3.3c0-.26-.05-.52-.07-.78-.31-4.05-.65-8.12-1-12.18-1.4,9-8.72,10.15-8.72,10.15a31.25,31.25,0,0,1-4.65,10.7c-3.66,5.37-10,10.78-20.68,10.91-21.37.28-25.88-21-25.88-21s-9.15-1.21-9.3-13.33C744,713.11,748,691.77,748,691.77s9.1-1.44,8.95-13.56c.15,12.12,9.29,13.33,9.29,13.33s4.45,20.84,25.33,21c-.17-1.76-.35-3.51-.53-5.26-17.86-2.26-21.8-20.73-21.8-20.73s-9.14-1.21-9.29-13.33c10.68-.13,17-5.54,20.68-10.91a31.82,31.82,0,0,0,3.61-7.13q-.41-2.65-.81-5.22a32.22,32.22,0,0,1-4.11,8.62c-3.66,5.36-10,10.77-20.68,10.91a29.16,29.16,0,0,1-5.26-.41q-3.54,2.84-7.22,5.56a29.08,29.08,0,0,0,5.94.54c.15,12.12-8.95,13.56-8.95,13.56s-4,21.34-25.34,21.62c-8.67.11-14.56-3.33-18.51-7.44q-4.21,2.07-8.52,4c3.91,4.72,10.12,9,19.79,8.88.15,12.12-9,13.56-9,13.56a31.34,31.34,0,0,1-4.65,10.71c-3.66,5.36-10,10.77-20.68,10.91-21.37.27-25.88-21-25.88-21a10.92,10.92,0,0,1-7.2-5.09q-9.28,2.85-18.75,5.29a10.24,10.24,0,0,1-3.9,1.75,31.34,31.34,0,0,1-4.65,10.71c-3.67,5.36-10,10.77-20.69,10.91-12.61.16-19.35-7.17-22.75-13.2-12.9,1.74-25.8,2.93-38.56,3.55-.18.27-.34.54-.53.82-3.66,5.36-10,10.77-20.68,10.91a24.38,24.38,0,0,1-21.91-11.8c-12.47-.64-25-1.81-37.59-3.51a30.11,30.11,0,0,1-2.39,4.2c-3.66,5.37-10,10.78-20.68,10.91-21.37.28-25.88-21-25.88-21a11,11,0,0,1-7.42-5.46q-7.2-1.95-14.31-4.12a11.08,11.08,0,0,1-8,7.37A31.34,31.34,0,0,1,369.8,743c-3.66,5.36-10,10.77-20.68,10.91-21.37.27-25.88-21-25.88-21s-9.15-1.22-9.3-13.34a24.39,24.39,0,0,0,21.62-12.39c-2.57-1.18-5.13-2.38-7.66-3.61-3.57,5.64-10,11.63-21.24,11.77-21.36.27-25.89-21-25.89-21s-9.13-1.21-9.28-13.33a25.38,25.38,0,0,0,12.42-3.19c4,2.83,8.19,5.55,12.44,8.17q-10.25-6.51-19.7-13.74A25.56,25.56,0,0,1,265,675.12c-21.37.27-25.88-21-25.88-21a6.77,6.77,0,0,1-.71-.16c-.32,1.67-.63,3.36-.95,5.07.89,3.34,6.43,20.65,25.74,20.4.16,12.13-9,13.57-9,13.57s-3.93,21.05-24.92,21.6q-.59,5.79-1.05,11.63c.36,11.72,9.28,12.91,9.28,12.91s4.52,21.24,25.89,21c.15,12.12-9,13.57-9,13.57s-4,21.34-25.34,21.61a26.33,26.33,0,0,1-10.29-1.82c-.21,2.84-.39,5.73-.52,8.66a27.48,27.48,0,0,0,7.78,1c.13,9.74-5.73,12.58-8,13.33,0,3.4.15,6.84.36,10.31a28.88,28.88,0,0,0,1.85-5.62s9.11-1.44,9-13.57c.15,12.13,9.29,13.34,9.29,13.34s4.52,21.23,25.88,21c.16,12.12-8.94,13.57-8.94,13.57s-4,21.34-25.35,21.61q-.8,0-1.56,0a143,143,0,0,0,11.19,23.47,6.06,6.06,0,0,0,.8.18,21.75,21.75,0,0,0,.63,2.17,142.75,142.75,0,0,0,10.17,14.33,24.69,24.69,0,0,0,15.08,4.46,15.21,15.21,0,0,1-2.49,9.25c1.85,1.79,3.79,3.55,5.79,5.29a15.23,15.23,0,0,0,2.4-9.11c.15,12.12,9.29,13.33,9.29,13.33a30.2,30.2,0,0,0,2.73,7,208.59,208.59,0,0,0,33.23,18.73,22.26,22.26,0,0,1-.29-3.22c21.37-.28,25.35-21.62,25.35-21.62s9.1-1.45,8.94-13.57c.16,12.12,9.29,13.34,9.29,13.34s4.53,21.23,25.89,21c.16,12.12-8.95,13.56-8.95,13.56a31,31,0,0,1-3.77,9.33c2.54.6,5.14,1.18,7.77,1.74a30.52,30.52,0,0,0,2.76-7.53s9.11-1.44,8.95-13.56c.16,12.12,9.3,13.33,9.3,13.33a31.23,31.23,0,0,0,6.7,12.78q5.22.78,10.62,1.48c-9.43-6-11.81-17.17-11.81-17.17s-9.14-1.21-9.3-13.34c21.37-.27,25.35-21.61,25.35-21.61s9.1-1.45,8.94-13.57c.16,12.12,9.29,13.34,9.29,13.34s4.53,21.23,25.89,20.95c.16,12.13-8.95,13.57-8.95,13.57a31.34,31.34,0,0,1-4.65,10.71,24.25,24.25,0,0,1-12.08,9.46q-7.14-.56-13.94-1.28c8.15.92,16.58,1.71,25.35,2.33a25.07,25.07,0,0,0,7.6-7.32,31.25,31.25,0,0,0,4.65-10.7s9.11-1.45,8.95-13.57c.16,12.12,9.3,13.33,9.3,13.33s3.45,16.2,18.55,20.12c2.11,0,4.23,0,6.37,0q9.31,0,18.26-.17a24,24,0,0,0,14.12-10.06,31.34,31.34,0,0,0,4.65-10.71s9.11-1.44,9-13.57c.16,12.13,9.3,13.34,9.3,13.34s2.78,13,14.25,18.53q21.78-1.77,41-4.62a26.75,26.75,0,0,0,3.81-4.45,31.25,31.25,0,0,0,4.65-10.7s9.11-1.45,9-13.57c.16,12.12,9.3,13.33,9.3,13.33a31.52,31.52,0,0,0,4.37,9.77q7.31-1.58,14.2-3.33-3.08.75-6.24,1.46a31.34,31.34,0,0,1-5.67-11.57s-9.15-1.21-9.3-13.34c21.37-.27,25.34-21.61,25.34-21.61s9.1-1.45,8.95-13.57c.15,12.12,9.29,13.33,9.29,13.33s4.52,21.24,25.89,21a15.26,15.26,0,0,1-2.37,9.05c2.78-1.19,5.49-2.41,8.11-3.65a19.29,19.29,0,0,0,.31-3.8,21.45,21.45,0,0,0,.33,3.49c1.44-.69,2.86-1.38,4.25-2.09a19.26,19.26,0,0,1-.61-4.68c21.37-.27,25.35-21.61,25.35-21.61s9.1-1.45,8.94-13.57c.1,7.9,4,11.17,6.73,12.48,2-1.8,3.83-3.62,5.63-5.47-2.72-1.28-6.71-4.53-6.82-12.52,10.69-.14,17-5.54,20.69-10.91a31.25,31.25,0,0,0,4.65-10.7s9.11-1.45,9-13.57a19.83,19.83,0,0,0,.56,4.44c1-2.68,2-5.36,2.85-8.06v0h0c.78-2.45,1.48-4.92,2.12-7.39A29.41,29.41,0,0,1,798.4,869.79ZM758,759.94c.15,12.12,9.29,13.34,9.29,13.34s4.52,21.23,25.89,21c.15,12.12-9,13.56-9,13.56a31.34,31.34,0,0,1-4.65,10.71c-3.66,5.36-10,10.77-20.68,10.91-21.37.27-25.89-21-25.89-21s-9.14-1.21-9.29-13.34C745,794.85,749,773.51,749,773.51S758.11,772.06,758,759.94Zm-5.17,75.69c.16,12.12-8.94,13.56-8.94,13.56s-4,21.35-25.35,21.62-25.89-21-25.89-21-9.13-1.21-9.29-13.33c10.69-.14,17-5.55,20.69-10.92a31.25,31.25,0,0,0,4.65-10.7s9.11-1.45,9-13.57c.16,12.12,9.3,13.34,9.3,13.34S731.43,835.9,752.79,835.63ZM703,743.87a31.34,31.34,0,0,0,4.65-10.71s9.11-1.44,9-13.56c.15,12.12,9.3,13.33,9.3,13.33s4.51,21.23,25.88,21c.15,12.12-9,13.57-9,13.57s-4,21.34-25.34,21.61-25.89-21-25.89-21-9.14-1.21-9.29-13.33C693,754.64,699.3,749.23,703,743.87ZM676.23,761c.15,12.12,9.29,13.33,9.29,13.33s4.52,21.23,25.89,21c.15,12.12-9,13.57-9,13.57a31.25,31.25,0,0,1-4.65,10.7c-3.66,5.37-10,10.78-20.68,10.92-21.37.27-25.88-21-25.88-21s-9.15-1.21-9.3-13.33c21.36-.27,25.34-21.61,25.34-21.61S676.38,773.11,676.23,761Zm-171.36,97.4s9.1-1.45,9-13.57c.15,12.12,9.29,13.33,9.29,13.33s4.52,21.23,25.89,21c.15,12.12-9,13.57-9,13.57a31.25,31.25,0,0,1-4.65,10.7c-3.66,5.37-10,10.78-20.68,10.91-21.37.28-25.89-21-25.89-21s-9.14-1.21-9.29-13.33C500.89,879.73,504.87,858.39,504.87,858.39ZM473.32,874c-21.37.27-25.89-21-25.89-21s-9.14-1.21-9.29-13.33c10.69-.14,17-5.55,20.68-10.92a31.17,31.17,0,0,0,4.66-10.7s9.1-1.45,8.95-13.57c.15,12.12,9.3,13.33,9.3,13.33s4.51,21.24,25.88,21c.15,12.12-8.95,13.56-8.95,13.56S494.69,873.67,473.32,874Zm55.84-22s-9.14-1.21-9.29-13.33c10.69-.14,17-5.55,20.68-10.91A31.34,31.34,0,0,0,545.2,817s9.11-1.44,9-13.56c.15,12.12,9.3,13.33,9.3,13.33s4.51,21.23,25.88,21c.15,12.12-9,13.57-9,13.57s-4,21.34-25.34,21.61S529.16,851.94,529.16,851.94Zm57.44,5.4s9.1-1.45,8.95-13.57c.15,12.12,9.28,13.34,9.28,13.34s4.53,21.23,25.9,20.95c.15,12.13-9,13.57-9,13.57a31.34,31.34,0,0,1-4.65,10.71c-3.66,5.36-10,10.77-20.68,10.91-21.37.27-25.89-21-25.89-21s-9.14-1.21-9.29-13.34C582.62,878.68,586.6,857.34,586.6,857.34Zm24.29-6.44s-9.14-1.22-9.29-13.34c10.68-.13,17-5.54,20.68-10.91a31.25,31.25,0,0,0,4.65-10.7s9.11-1.45,9-13.57c.15,12.12,9.3,13.33,9.3,13.33s4.51,21.24,25.88,21c.15,12.12-9,13.57-9,13.57s-4,21.34-25.34,21.62S610.89,850.9,610.89,850.9Zm10.35-105.32a31.49,31.49,0,0,0,4.66-10.71,10.82,10.82,0,0,0,6.93-5c1.24-.33,2.46-.68,3.69-1a10.93,10.93,0,0,0,7.63,5.84s4.51,21.23,25.88,21c.15,12.12-8.95,13.57-8.95,13.57s-4,21.34-25.34,21.61-25.89-21-25.89-21-9.14-1.21-9.29-13.33C611.25,756.35,617.58,750.94,621.24,745.58ZM594.5,762c.15,12.12,9.29,13.33,9.29,13.33s4.52,21.23,25.89,21c.15,12.12-8.95,13.56-8.95,13.56a31.49,31.49,0,0,1-4.66,10.71c-3.66,5.37-10,10.77-20.68,10.91-21.37.27-25.88-21-25.88-21s-9.15-1.21-9.3-13.33c21.37-.28,25.34-21.62,25.34-21.62S594.65,774.16,594.5,762Zm-55-14.42a30.37,30.37,0,0,0,2-3.46q11.34-.72,22.78-2.1c2.89,6.27,9.63,15.77,24,15.59.16,12.12-8.94,13.56-8.94,13.56s-4,21.34-25.35,21.62-25.89-21-25.89-21-9.13-1.21-9.29-13.33C529.53,758.4,535.86,753,539.53,747.62Zm-26.76,15.46c.16,12.12,9.29,13.34,9.29,13.34s4.52,21.23,25.89,21c.15,12.12-9,13.57-9,13.57a31.25,31.25,0,0,1-4.66,10.71c-3.66,5.36-10,10.77-20.68,10.91-21.37.27-25.88-21-25.88-21s-9.14-1.22-9.3-13.34c21.37-.27,25.35-21.61,25.35-21.61S512.93,775.2,512.77,763.08Zm-55-14.49a32,32,0,0,0,3.28-6.25q11.09,1.27,22.14,1.94c3.19,6.21,10,14.5,23.36,14.33.16,12.12-8.94,13.57-8.94,13.57s-4,21.34-25.35,21.61-25.89-21-25.89-21-9.13-1.21-9.29-13.33C447.8,759.36,454.14,754,457.8,748.59ZM431,764.13c.16,12.12,9.29,13.33,9.29,13.33s4.52,21.23,25.89,21c.16,12.12-9,13.57-9,13.57a31.17,31.17,0,0,1-4.66,10.7c-3.66,5.37-10,10.78-20.68,10.91-21.37.28-25.88-21-25.88-21s-9.14-1.21-9.3-13.33c21.37-.27,25.35-21.62,25.35-21.62S431.2,776.25,431,764.13Zm-5.16,75.68c.15,12.12-8.94,13.57-8.94,13.57s-4,21.34-25.35,21.61-25.89-21-25.89-21-9.13-1.22-9.29-13.34c10.69-.14,17-5.55,20.68-10.91a31.17,31.17,0,0,0,4.66-10.7s9.11-1.45,8.95-13.57c.16,12.12,9.3,13.33,9.3,13.33S404.51,840.09,425.88,839.81Zm-49.83-91.28a31.17,31.17,0,0,0,4.66-10.7,11.15,11.15,0,0,0,8.28-8.15l1.64.45a11.06,11.06,0,0,0,8.33,7.46s4.51,21.24,25.88,21c.16,12.12-8.94,13.57-8.94,13.57s-4,21.34-25.35,21.61-25.89-21-25.89-21-9.13-1.22-9.29-13.34C366.06,759.3,372.39,753.9,376.05,748.53Zm-26.74,16.64c.16,12.12,9.29,13.34,9.29,13.34s4.53,21.23,25.89,21c.16,12.12-8.95,13.56-8.95,13.56a31.34,31.34,0,0,1-4.65,10.71c-3.67,5.36-10,10.77-20.69,10.91-21.36.27-25.88-21-25.88-21s-9.14-1.21-9.3-13.33c21.37-.28,25.35-21.62,25.35-21.62S349.47,777.29,349.31,765.17Zm-5.16,75.69c.16,12.12-8.94,13.57-8.94,13.57s-4,21.34-25.35,21.61-25.89-21-25.89-21-9.13-1.21-9.29-13.33c10.69-.14,17-5.55,20.69-10.91A31.34,31.34,0,0,0,300,820.13s9.11-1.45,9-13.57c.16,12.12,9.3,13.34,9.3,13.34S322.78,841.13,344.15,840.86Zm-36.22-116c.15,12.12,9.29,13.33,9.29,13.33s4.52,21.24,25.89,21c.15,12.12-8.95,13.57-8.95,13.57s-4,21.34-25.35,21.61-25.88-21-25.88-21-9.14-1.21-9.29-13.33c10.68-.14,17-5.54,20.68-10.91A31.34,31.34,0,0,0,299,738.39S308.08,737,307.93,724.83ZM241.55,733s-9.15-1.21-9.3-13.33c21.37-.28,25.34-21.62,25.34-21.62s9.1-1.45,9-13.57c.15,12.12,9.29,13.34,9.29,13.34s4.52,21.23,25.89,21c.15,12.12-9,13.56-9,13.56a31.34,31.34,0,0,1-4.65,10.71c-3.66,5.36-10,10.77-20.68,10.91C246.06,754.23,241.55,733,241.55,733Zm1,81.74s-9.14-1.22-9.3-13.34c21.37-.27,25.35-21.61,25.35-21.61s9.1-1.45,8.95-13.57c.15,12.12,9.28,13.33,9.28,13.33s4.53,21.24,25.89,21c.16,12.12-8.95,13.57-8.95,13.57a31.25,31.25,0,0,1-4.65,10.7c-3.66,5.37-10,10.78-20.69,10.92C247.11,836,242.59,814.74,242.59,814.74Zm26.93,102.69c-21.37.28-25.88-21-25.88-21s-9.14-1.21-9.3-13.33c21.37-.28,25.35-21.62,25.35-21.62s9.1-1.44,8.94-13.56c.16,12.12,9.29,13.33,9.29,13.33s4.52,21.23,25.89,21c.16,12.12-8.95,13.57-8.95,13.57a31.17,31.17,0,0,1-4.66,10.7C286.54,911.89,280.21,917.3,269.52,917.43Zm66.73,18.73s-4,21.34-25.34,21.62-25.89-21-25.89-21-9.14-1.22-9.29-13.34c10.69-.13,17-5.54,20.68-10.91a31.25,31.25,0,0,0,4.65-10.7s9.11-1.45,9-13.57c.15,12.12,9.3,13.33,9.3,13.33s4.51,21.24,25.88,21C345.35,934.72,336.25,936.16,336.25,936.16Zm15-19.77c-21.37.27-25.88-21-25.88-21s-9.14-1.22-9.3-13.34c21.37-.27,25.34-21.61,25.34-21.61s9.1-1.45,8.95-13.57c.15,12.12,9.29,13.33,9.29,13.33s4.52,21.24,25.89,21c.15,12.13-9,13.57-9,13.57a31.34,31.34,0,0,1-4.65,10.71C368.27,910.84,361.94,916.25,351.25,916.39ZM418,935.12s-4,21.34-25.34,21.61-25.89-21-25.89-21-9.14-1.21-9.29-13.33c10.68-.14,17-5.55,20.68-10.91a31.34,31.34,0,0,0,4.65-10.71s9.11-1.44,9-13.57c.15,12.13,9.3,13.34,9.3,13.34s4.51,21.23,25.88,21C427.08,933.67,418,935.12,418,935.12Zm15-19.78c-21.37.27-25.88-21-25.88-21s-9.15-1.21-9.3-13.33c21.36-.28,25.34-21.62,25.34-21.62s9.1-1.45,8.95-13.57c.15,12.12,9.29,13.34,9.29,13.34s4.52,21.23,25.89,21c.15,12.12-9,13.56-9,13.56a31.34,31.34,0,0,1-4.65,10.71C450,909.8,443.66,915.2,433,915.34Zm41.38,40.34c-21.36.28-25.88-21-25.88-21s-9.14-1.21-9.29-13.33c10.68-.14,17-5.54,20.68-10.91a31.34,31.34,0,0,0,4.65-10.7s9.11-1.45,9-13.57c.15,12.12,9.29,13.33,9.29,13.33s4.52,21.24,25.88,21c.16,12.12-8.94,13.57-8.94,13.57S495.73,955.41,474.36,955.68Zm66.73,18.73a31.26,31.26,0,0,1-4.65,10.71c-3.67,5.37-10,10.77-20.69,10.91-21.36.27-25.88-21-25.88-21s-9.14-1.21-9.3-13.33c21.37-.28,25.35-21.62,25.35-21.62s9.1-1.44,8.94-13.57c.16,12.13,9.29,13.34,9.29,13.34s4.53,21.23,25.89,21C550.2,973,541.09,974.41,541.09,974.41Zm15-19.77c-21.36.27-25.89-21-25.89-21s-9.13-1.21-9.29-13.34c10.69-.13,17-5.54,20.69-10.9a31.34,31.34,0,0,0,4.65-10.71s9.11-1.45,9-13.57c.16,12.12,9.3,13.34,9.3,13.34s4.52,21.23,25.88,21c.16,12.12-8.94,13.56-8.94,13.56S577.46,954.36,556.09,954.64Zm66.72,18.61a31.25,31.25,0,0,1-4.65,10.7,25.27,25.27,0,0,1-7.12,7q-10.69,1.49-22.27,2.62c-13.94-4.51-17.17-19.71-17.17-19.71s-9.14-1.21-9.3-13.33c21.37-.27,25.34-21.61,25.34-21.61s9.1-1.45,9-13.57c.15,12.12,9.29,13.33,9.29,13.33s4.52,21.23,25.89,21C631.92,971.8,622.81,973.25,622.81,973.25ZM663.17,932s-4,21.34-25.35,21.61-25.89-21-25.89-21-9.13-1.21-9.29-13.33c10.69-.14,17-5.55,20.69-10.91A31.34,31.34,0,0,0,628,897.68s9.11-1.44,8.95-13.56c.16,12.12,9.3,13.33,9.3,13.33s4.52,21.23,25.88,21C672.27,930.53,663.17,932,663.17,932Zm15-19.78c-21.36.27-25.88-21-25.88-21s-9.14-1.21-9.3-13.33c21.37-.28,25.35-21.62,25.35-21.62s9.1-1.44,8.94-13.56c.16,12.12,9.29,13.33,9.29,13.33s4.53,21.23,25.89,21c.16,12.12-9,13.57-9,13.57a31.25,31.25,0,0,1-4.65,10.7C695.18,906.66,688.85,912.06,678.16,912.2Zm66.74,18.73s-4,21.34-25.35,21.62-25.89-21-25.89-21-9.13-1.22-9.29-13.34c10.69-.13,17-5.54,20.69-10.91a31.25,31.25,0,0,0,4.65-10.7s9.11-1.45,8.95-13.57c.16,12.12,9.3,13.33,9.3,13.33s4.51,21.24,25.88,21C754,929.48,744.9,930.93,744.9,930.93Zm40.33-41.39a31.34,31.34,0,0,1-4.65,10.71c-3.67,5.36-10,10.77-20.69,10.91-21.37.27-25.88-21-25.88-21s-9.14-1.21-9.3-13.33c21.37-.27,25.35-21.61,25.35-21.61s9.1-1.45,8.94-13.57c.16,12.12,9.29,13.33,9.29,13.33s4.52,21.24,25.89,21C794.34,888.09,785.23,889.54,785.23,889.54Z" style="fill:#ddd"/><path d="M242.72,639c-1.72,8-3.61,17.16-5.47,27.19l29.29,266.87c27.08,24.71,53.51,34.48,76.56,43.08L325.82,702.67C292.34,685.79,264.31,665.66,242.72,639Z" style="fill:#fff;opacity:0.33"/><path d="M792.72,724.91c-.38-5.11-.83-10.25-1.32-15.37-2.21-22.87-5.41-45.47-8.39-64.28-.34-2.13-.44-2.79-.77-4.82-20.61,22.14-46.1,43.8-75.37,58.5l-2.54,25-1.92,33.86L700.64,789l-3,52.78-2.92,51.49-.63,11.14-2.7,47.5-.62,10.82-.5,12.08c84.1-30.55,96.14-65.67,106.36-89.81a140,140,0,0,0,9.59-35.22c.67-4.71,1.12-9.41,1.38-14.08a225.06,225.06,0,0,0-2-42.81C801.61,763.3,793.72,738.27,792.72,724.91Z" style="opacity:0.1"/><rect width="1030" height="1030" style="fill:none"/><path d="M522.31,236.34c-275.43,0-318.41,194.39-318.41,294.46,0,142.93,168.54,216.44,313,216.44,143.33,0,313-73.51,313-216.44C829.9,439.73,777.88,236.34,522.31,236.34Z" style="fill:#ddd"/><path d="M832.11,545.18q-1.27,8.39-3.37,16.61A184.25,184.25,0,0,1,823,580.68c19.34-4.8,59.61-9.82,95,18,0,0-54.33-28.67-99.93-5.8-1.27,2.86-2.64,5.8-4.14,8.8,19.76-4.7,59.12-9,93.83,18.29,0,0-55.1-29.09-100.9-5.33q-3,5-6.39,10.1c20.48-4.42,58-7.23,91.24,18.87,0,0-55.13-29.1-100.94-5.31l-.11-.18q-5.32,6.69-11.58,13.37-5.77,6.59-12,12.9c12.2-4.5,75.41-24.61,107.39,28.15,0,0,80-23.08,70-124.28C944.43,568.25,914.69,521.09,832.11,545.18Z" style="fill:#575757"/><path d="M244.12,640.54l-.12.18c-45.59-24.21-101,4.39-101,4.39,33.48-25.79,71-22.65,91.39-18.05q-3.37-5.13-6.29-10.15c-45.58-24.17-100.94,4.42-100.94,4.42,34.95-26.94,74.27-22.32,94-17.44q-2.2-4.53-4.06-8.84c-45.4-23.28-100,4.9-100,4.9,35.67-27.49,75.89-22.11,95.19-17.13-7.45-21-8.51-35.49-8.51-35.49-82.61-25.06-112.84,22-112.84,22C80,670.39,159.85,694.2,159.85,694.2c32.59-52.68,96-31.63,107.79-27.13q-5.38-5.55-10.43-11.31C252.43,650.71,248.08,645.61,244.12,640.54Z" style="fill:#575757"/><path d="M515.68,655.93c-16.95,0-28.43-8.81-28.43-22.06,0-10.07,7-16.45,17.91-17.46v-.31c-8.6-1.77-15.23-7.84-15.23-17.1,0-11.69,10.42-19.33,25.85-19.33,12.91,0,21.21,6,24.44,13.11a11.54,11.54,0,0,1,1.12,4.91c0,3.69-2.18,6.17-6.43,6.17-3.44,0-5.21-1.27-6.88-4.71-2.38-5.16-6.12-7.74-12.3-7.74-7.38,0-11.33,3.9-11.33,9.77s5,10.12,12.6,10.12h3c3.7,0,5.82,2.22,5.82,5.41s-2.12,5.47-5.82,5.47H516.8c-8.86,0-14.07,3.94-14,11,0,6.07,5.16,10.42,12.65,10.42s11.54-3,14.12-8.15c1.52-2.78,3.44-4,6.47-4,4.2,0,6.73,2.48,6.73,6.42a11,11,0,0,1-1.16,4.81C538.15,649.91,529.6,655.93,515.68,655.93Z" style="fill:#6d6d6d"/><path d="M415.26,424.56a71,71,0,0,0-55.16,25.76,70.93,70.93,0,0,0-55.16-25.76c-33.65,0-61.75,22.7-68.36,52.93a63,63,0,0,0-1.48,13.68c0,17.81,8.93,35.46,22,51.76,31.28,38.94,86.27,70.19,99.87,77.56a6.4,6.4,0,0,0,6.19,0c11.55-6.42,53.14-30.53,84.55-61.48,19.37-19.09,34.86-40.75,37.08-62.5a49.71,49.71,0,0,0,.28-5.31C485.1,454.38,453.83,424.56,415.26,424.56ZM303.68,466.77c-13.18-.76-39.6-.89-29.54-10.62s39.51-11.32,52.7,2C338.12,469.47,318.89,467.64,303.68,466.77Z" style="fill:#6d6d6d"/><path d="M744.33,424.56a71,71,0,0,0-55.16,25.76A71,71,0,0,0,634,424.56c-33.64,0-61.74,22.7-68.35,52.93a63,63,0,0,0-1.48,13.68c0,17.81,8.93,35.46,22,51.76,31.28,38.94,86.27,70.19,99.87,77.56a6.4,6.4,0,0,0,6.19,0C703.81,614,745.4,589.93,776.81,559c19.37-19.09,34.86-40.75,37.08-62.5a49.71,49.71,0,0,0,.28-5.31C814.17,454.38,782.9,424.56,744.33,424.56ZM632.75,466.87c-13.18-.76-39.61-.88-29.54-10.62s39.51-11.31,52.7,2C667.19,469.58,648,467.75,632.75,466.87Z" style="fill:#6d6d6d"/><path d="M974.56,406.27c-.95-.66-1.93-1.28-2.92-1.89a12.55,12.55,0,0,0,4.49.4c4.11-.38,8-3.22,10.55-6.34,5.91-7.25.27-17-7.81-19.05-.45-.12-.93-.22-1.43-.31a17,17,0,0,0-12.37,2.73c-6.56,4.48-4.41,13.48,0,18.45a9.18,9.18,0,0,0,.82.83c-16.69-8.69-36.51-12.17-54.94-8.88-1.63.3-3.2.63-4.73,1,12.58-8.64,8.44-25.94,0-35.53a25.57,25.57,0,0,0-21.35-8.7c-7.93.74-15.42,6.21-20.32,12.21-11.39,14-.52,32.67,15,36.72.87.22,1.78.42,2.74.59a30.56,30.56,0,0,0,7.88.36c-33.86,16.77-53.71,59.8-26.71,92.93,13.06,16,33.06,30.61,54.21,32.6,21.48,2,42.81-7.14,57-23.23C997.21,475.54,1008.26,429.28,974.56,406.27Zm2.54-24.42c2-2.79,6.28,1.13,3.89,3.52a2.18,2.18,0,0,1-2,.66C977.29,385.69,975.9,383.49,977.1,381.85Zm-14,8.51c-1.33-7.13,13.78-12.28,11.24-6.08C973.71,385.87,963.42,392,963.12,390.36Zm-77.41-31c-1.25,3.06-21.09,14.76-21.65,11.71C861.49,357.31,890.6,347.4,885.71,359.35Zm5.27-4.69c3.91-5.37,12.11,2.18,7.5,6.79a4.17,4.17,0,0,1-3.88,1.25C891.36,362.06,888.67,357.83,891,354.66ZM920,419c-3.35,8.17-56.27,39.39-57.79,31.26C855.38,413.55,933.05,387.11,920,419Zm48.61.69c-3.19,3.19-21.43,8.95-24.9,8.26-8.65-1.72-15.81-13-9.65-21.47C944.5,392.16,980.89,407.38,968.61,419.68Z" style="fill:#575757"/><path d="M133.25,406.91c5.17-.6,10-4.17,13.24-8.09,7.59-9.31.35-21.76-10-24.45-.58-.15-1.19-.28-1.83-.4a21.94,21.94,0,0,0-15.88,3.51c-8.41,5.74-5.65,17.29,0,23.67a16.89,16.89,0,0,0,2.56,2.37A54.76,54.76,0,0,0,107,403c-18.07,1.7-35.16,14.15-46.32,27.85-26,31.87-1.2,74.48,34.28,83.7,2,.52,4.07,1,6.26,1.36,18.59,3.33,38.83-1.39,54.37-12,28.79-19.67,19.35-59.19.09-81.06A59.83,59.83,0,0,0,133.25,406.91Zm.95-29.38c2.61-3.57,8.06,1.45,5,4.52a2.78,2.78,0,0,1-2.59.84C134.45,382.46,132.67,379.64,134.2,377.53Zm-17.93,10.92c-1.7-9.15,17.68-15.75,14.42-7.8C129.86,382.69,116.65,390.48,116.27,388.45ZM109,426.64c-2.86,7-48.08,33.66-49.37,26.71C53.75,422,120.11,399.4,109,426.64Zm29.12,4.79a9.54,9.54,0,0,1-8.86,2.86c-7.39-1.47-13.51-11.12-8.24-18.34C129.89,403.72,148.57,420.91,138.08,431.43Z" style="fill:#575757"/><path d="M779.5,69.26c-21.65-14.79-49.86-21.37-75.76-16.74-3.06.55-6,1.18-8.73,1.9a83,83,0,0,0-14.25,5.16c.77-.79,1.5-1.6,2.17-2.42,10.56-12.95.49-30.26-13.93-34-.8-.21-1.65-.39-2.54-.55a30.53,30.53,0,0,0-22.09,4.88c-11.7,8-7.86,24.05,0,32.93a23.71,23.71,0,0,0,19.78,8.07,18.82,18.82,0,0,0,2.23-.36c-32.16,23.46-47.7,67.87-19.11,103,1.18,1.44,2.41,2.88,3.68,4.29-30.21-11.12-150.71-28.67-240.31,5.45,34.11,18,52.4,99,43.93,115.71,6.1-2.62,27.08-13.75,33.53-16.13,3.79-40.28-20.64-84.23-20.64-84.23,25.1,22.31,26.14,60,28.19,81.46,7.21-2.5,15-5.28,22.62-7.49.23-41.42-15.29-80.48-15.29-80.48,20.23,24.73,22.6,54.89,23.72,77.89,8.2-2.2,17-3.31,25.72-5.15,1.87-43.4-19.53-77.58-19.53-77.58,21.81,26.66,27.95,51.88,28.25,76,6.8-1.33,24.81-1.54,30.47-1,3.39-29-16.89-73.86-16.89-73.86,17.07,31.59,24.8,49,23.42,74.65,9.9-1,22.94.41,27.72,1.69,9-27.65-15.43-75.1-15.43-75.1,15.67,25,26.93,48.72,24.38,75,8.62-.75,23.67.95,34.75,3.78,10.58-38.51-1.4-66.66-14.17-85.83,15.13,15.26,35.3,27.81,56.44,29.79,25.57,2.4,51-8.49,67.84-27.66C806.47,151.75,819.63,96.67,779.5,69.26ZM661,31.89c-1.16,2.84-19.54,13.68-20.06,10.86C638.53,30,665.49,20.83,661,31.89Zm4.88-4.34c3.63-5,11.22,2,6.95,6.29a3.86,3.86,0,0,1-3.6,1.16C666.19,34.41,663.7,30.48,665.84,27.55ZM714.53,84.4c-4,9.74-67,46.91-68.8,37.23C637.59,77.93,730.07,46.44,714.53,84.4Zm57.89.83c-3.8,3.8-25.52,10.66-29.65,9.84-10.3-2-18.83-15.5-11.49-25.57C743.71,52.46,787,70.58,772.42,85.23Z" style="fill:#575757"/></g></g></svg>