<svg xmlns="http://www.w3.org/2000/svg" viewBox="0 0 1030 1030"><g id="ab80b509-5b20-4526-8658-ddda4aafea77" data-name="Layer 2"><g id="a534bcd1-27bf-483b-bf37-c61ab4997d3c" data-name="Gray Scale"><rect width="1030" height="1030" style="fill:none"/><path d="M520.14,237.41c-275.43,0-318.42,194.39-318.42,294.46,0,142.93,168.55,216.44,313,216.44,143.34,0,313-73.51,313-216.44C827.72,440.8,775.71,237.41,520.14,237.41Z" style="fill:#d2d2d2"/><path d="M515,653.19c-18.48,0-43.13,6.16-43.13,24.65a24.45,24.45,0,0,1,5.79-2.84,49.34,49.34,0,0,0-5.79,2.84c0,43.13,31.93,55.45,43.13,55.45s43.14-12.32,43.14-55.45C558.17,659.35,533.52,653.19,515,653.19Z" style="fill:#4a4a4a"/><path d="M1007.4,683.51c-27.17-34.73-56.69-37.26-68.73-36.62,3.89-11,9.65-38.9-15.11-70.54-32-40.92-148.25,17-125.85,180.7l-.11.09.13.06s0,.08,0,.12l.11-.07C959.89,829.32,1042.54,728.42,1007.4,683.51Z" style="fill:#4a4a4a"/><path d="M83.52,579.77c-22.89,38-14.7,66.58-9.79,77.67-11.77.29-40,4.86-60.85,39.45C-14.09,741.61,82,830,227.67,750.4l.13.08v-.15l.12-.06-.12-.07C237.49,572.2,113.13,530.68,83.52,579.77Z" style="fill:#4a4a4a"/><ellipse cx="358.05" cy="553.6" rx="117.69" ry="117.68" transform="translate(-192.54 190.94) rotate(-23.73)" style="fill:#e6e6e6"/><ellipse cx="672.68" cy="553.6" rx="117.69" ry="117.68" transform="translate(-165.93 317.58) rotate(-23.73)" style="fill:#e6e6e6"/><path d="M366,445.48a107,107,0,0,0-104.23,131.2,51.76,51.76,0,0,0-15.59-2.95c-13.23-.79-26.44,0-26.44,5.76s8.86,6.5,22.09,7.29c9,.53,17.75.34,22.4-1.25a106.66,106.66,0,0,0,15.53,30.26,55.41,55.41,0,0,0-14.24-2.46c-13.24-.78-26.44,0-26.44,5.76s8.85,6.51,22.09,7.29c11.24.67,22,.2,25-2.68A107,107,0,1,0,366,445.48ZM349.6,521.39c-18.45,12.3-49.2,30.75-67.66,18.45s12.31-55.36,30.76-67.66,67.66-18.45,80,0S368.06,509.09,349.6,521.39Z" style="fill:#202020"/><path d="M787.62,586.78c13.23-.79,22.09-1.45,22.09-7.29s-13.2-6.55-26.44-5.76a57.38,57.38,0,0,0-13.33,2.17,107,107,0,1,0-25.62,48.91c4.36,1.88,13.63,2.14,23.24,1.57,13.24-.78,22.09-1.45,22.09-7.29s-13.2-6.54-26.44-5.76a65.3,65.3,0,0,0-10.74,1.47,106.69,106.69,0,0,0,14.66-28.74C772,587.15,779.71,587.25,787.62,586.78ZM614.09,515.24c-18.46,24.6-36.91,43-43.06,30.75s4-33.64,18.45-55.36c12.31-18.45,36.91-30.75,43.06-24.6C642.26,475.76,624.52,501.32,614.09,515.24Z" style="fill:#202020"/><path d="M783.76,646c-59.79,68-170.62,102.64-269,102.64C414.2,748.64,302,713,243.06,643.21c-5,23.94-10.84,56.44-13.28,89.1-3.57,47.87-89.42,273.1,281,273.23,391.14.15,287.61-222.44,283.81-273.23C792.25,701.62,787.67,670,783.76,646Z" style="fill:#9b9b9b"/><path d="M779.29,831.92l-62.73-62.73,13.62-13.61,15.08-15.08,34-34,13.93,13.93c-2.21-22.86-5.41-45.46-8.38-64.27l-5.55,5.54-5.46-5.46a237.48,237.48,0,0,1-24,20.76l7.1,7.1-50.73,50.73-12,12-26-26c-11,4.14-22.31,7.81-33.79,11l36.5,36.5.85.84L609,831.92l-.85-.84L561.1,784l-14.8-14.8,24.51-24.51a441.8,441.8,0,0,1-56.09,3.63c-11.73,0-23.62-.49-35.56-1.46l22.34,22.34-6.67,6.67-56.06,56.06L376,769.19l33.46-33.46c-11.79-2.84-23.44-6.17-34.84-10l-21,21-23.72-23.71-35.35-35.35c-19.4-12.72-36.66-27.43-50.87-44.1-1.49,7-3.06,14.84-4.62,23.25l1.21,11.37,5.81,5.81-4.69,4.69-7.15,7.16c-1.88,12.86-3.47,26.34-4.48,39.86-.22,3-.74,6.63-1.44,10.86l17.39-17.39,22.78-22.78,62.72,62.73-62.72,62.73-13.22-13.21-33.18-33.18a278.74,278.74,0,0,0-2.29,42.52l26.28,26.28-19.46,19.46a147.15,147.15,0,0,0,13.19,31.62l22.33-22.34,6.35-6.34,62.72,62.73-27,27a243.63,243.63,0,0,0,30.82,14l9.14-9.14,9.44-9.44,33.23,33.23c26.77,5.5,57.69,9.13,93.34,10.45l43.69-43.68,42.62,42.62q21.75-1.35,41.07-3.73L587,980.11,546.3,939.46l39.25-39.25L609,876.73,666.5,934.2l5.26,5.26-6.66,6.66-54.21,54.21a475,475,0,0,0,55-10.15l21.65-21.66,5.71-5.71.95-.95,14.49,14.49q5.85-2.4,11.29-4.94a210.39,210.39,0,0,0,18.69-9.89l-15.87-15.87-6.2-6.19,7.73-7.73,55-55,19.17,19.16a140.19,140.19,0,0,0,9.59-35.21l-6.35-6.35,7.73-7.74a226.61,226.61,0,0,0-2-42.8Zm-439,71.81-49.4-49.4,44-44,18.7-18.7,62.73,62.73-62.73,62.72Zm98.46,98.46L376,939.46l62.73-62.73,62.73,62.73Zm94.78-94.79-9.65,9.65-62.73-62.72L523.9,791.6l14.79,14.79,47.09,47.09.85.85Zm196.26-26-.16,1.45-.65-.65L712.18,899l-16.27,16.28-1.75,1.74-5.25-5.25-57.48-57.47,34.84-34.84,27.89-27.89,8.3,8.3,32.36,32.35,22.07,22.08Z" style="fill:#d2d2d2"/><path d="M243.08,643.25c-1.31,6.26-2.67,13.1-4,20.38L240.27,675l1.13,10.5L245.72,726l9.55,89.47,6.88,64.36,6.2,58.07a180.49,180.49,0,0,0,35.87,25.31,242.86,242.86,0,0,0,30.82,14q4.81,1.8,9.87,3.5l-.73-12.64-3.88-67.57h0l-5.38-93.43-5-87.22-.7-12.19C295.23,691.11,265.36,669.63,243.08,643.25Z" style="fill:#fff;opacity:0.33"/><path d="M794.53,732.52c-.38-5.11-.83-10.25-1.32-15.38-2.22-22.86-5.41-45.46-8.39-64.27q-.55-3.51-1.1-6.84c-20.29,23.05-46.44,42.28-76,57.61l-1.59,27.91-1.92,33.86-1.78,31.24-3,52.78-2.92,51.49-.64,11.14-2.69,47.5-.62,10.82-.5,8.87c2.36-.79,4.67-1.61,6.94-2.44q5-1.8,9.61-3.71,5.86-2.4,11.29-4.94c6.69-3.13,12.91-6.44,18.7-9.88,31.2-18.6,49.6-41.49,59.82-65.64A139.77,139.77,0,0,0,808,857.43c.67-4.71,1.12-9.41,1.38-14.08a225,225,0,0,0-2-42.81C803.42,770.9,795.53,745.88,794.53,732.52Z" style="opacity:0.1"/><path d="M522.69,188.07l.12,0h0l-.61,0A1.41,1.41,0,0,0,522.69,188.07Z" style="fill:none"/><path d="M522.69,188.07l.12,0h0l-.61,0A1.41,1.41,0,0,0,522.69,188.07Z" style="fill:none"/><path d="M522.69,188.07l.12,0h0l-.61,0A1.41,1.41,0,0,0,522.69,188.07Z" style="fill:none"/><path d="M901.37,90.64l-10-13.91c-6.19-6.3-16.1-8-22-3.83L678.89,207.76a294,294,0,0,0-34.79-12.68l93.82-168c3.56-6.32-.28-14-8.53-17l-14.93-8.3c-8.25-3-17.92-.38-21.48,6L593.42,184.44c-20.89-2.58-40.57-2.68-56.55.11,40.42-18.59,12.45-103.19-109.22-140,28.92,56.63-79.18,63.11-105.29,96a62,62,0,0,0-5.64,8.39l0,0c-.35.52-.67,1-1,1.56l-.28.5c-.24.43-.46.86-.67,1.3-.11.22-.21.45-.31.68s-.32.73-.47,1.1-.21.56-.31.84l-.21.63c-.21.65-.39,1.3-.55,1.95,0,.06,0,.12,0,.18-.1.41-.19.82-.26,1.23h0c-3.52,13.45,1.94,23.76,7.18,30v0c1.11,1.86,1.89,2.95,1.89,2.95s.49.22,1.41.59a33.5,33.5,0,0,0,4.17,3.48S220.54,236,218.7,299c-.32,10.68,2,19.35,5.91,26.39-7.11,10.51-20.77,33.94-18.52,55.91a217.36,217.36,0,0,1-18.78,27.45c-25.1,31.38-7,45.46,6.74,51.18-.92,2.07-1.82,4.23-2.7,6.5-6.1,15.94-13.15,56.93-2.09,67.19,22,20.39,50.41-8.56,49.71-25.62-1.28-31.23,2.71-50,3.2-62a64.62,64.62,0,0,0,13.38-21.19c33.68,7.31,57.37-10.5,70.6-25.28-14.37,21.89-19,53.14,6.88,73,29.8,22.86,74.06-15.23,72.86-45.53a55.88,55.88,0,0,1,2.94-19.91,183.8,183.8,0,0,0,30.57-6c35.83-10,47.75-44.15,47.75-44.15a330,330,0,0,0-9,35.21c-3.27,17.91.92,44.9,37.32,43.34,23.91-1,32.91-31.76,21.69-51.27-1.23-2.15,1.89-5,4.51-4.37,12.77,3.14,25.94,4.45,37.28,1.62,39.52-9.88,72.86-18.22,72.86-91.08,16.36,12.27,31.33,18.55,44.21,20.43-1.75,15.91,6,34.22,37.76,34.22,9,0,16-6.13,20.58-14.47a87.94,87.94,0,0,1,9.87,21.53c6,19.25,29.88,10.49,33.31,1s0-27.32-20.88-35.27c-5.9-2.25-11.21-4.64-16-7C761.48,288,752.91,260.65,725,236L901.85,109.73C907.78,105.53,907.56,96.94,901.37,90.64Z" style="fill:#e8e8e8"/><path d="M836.21,153.33l48.28-34.27-63-12.69-48,34h0l-.91.65h0L729,172.26l-50.1,35.51a296.25,296.25,0,0,0-41.39-14.56l4.06-1.15,29.06-51.59L611,156l26.17-46,60.6-17.18,29.06-51.59L664.38,58.47,637,107.12h0L609.1,156.6l-15.84,27.83c-20.82-2.57-40.45-2.66-56.39.12,40.42-18.59,12.45-103.19-109.22-140,28.92,56.63-79.18,63.11-105.29,96a62,62,0,0,0-5.64,8.39c.41-.6.85-1.2,1.33-1.79-3.74,8.28,6.78,28.86,35.8,42.25,37.48,17.31,109.72,2.23,109.72,2.23-71.25,26.85-130.72,4.92-140.46.93a33.5,33.5,0,0,0,4.17,3.48S220.54,236,218.7,299c-.32,10.68,2,19.35,5.91,26.39-7.11,10.51-20.77,33.94-18.52,55.91a217.36,217.36,0,0,1-18.78,27.45c-25.1,31.38-7,45.46,6.74,51.18-.92,2.07-1.82,4.23-2.7,6.5-6.1,15.94-13.15,56.93-2.09,67.19,22,20.39,50.41-8.56,49.71-25.62-1.28-31.23,2.71-50,3.2-62a64.62,64.62,0,0,0,13.38-21.19c33.68,7.31,57.37-10.5,70.6-25.28-14.37,21.89-19,53.14,6.88,73,29.8,22.86,74.06-15.23,72.86-45.53a55.88,55.88,0,0,1,2.94-19.91,183.8,183.8,0,0,0,30.57-6c35.83-10,47.75-44.15,47.75-44.15a330,330,0,0,0-9,35.21c-3.27,17.91.92,44.9,37.32,43.34,23.91-1,32.91-31.76,21.69-51.27-1.23-2.15,1.89-5,4.51-4.37,12.77,3.14,25.94,4.45,37.28,1.62,39.52-9.88,72.86-18.22,72.86-91.08,16.36,12.27,31.33,18.55,44.21,20.43-1.75,15.91,6,34.22,37.76,34.22,9,0,16-6.13,20.58-14.47a87.94,87.94,0,0,1,9.87,21.53c6,19.25,29.88,10.49,33.31,1s0-27.32-20.88-35.27c-5.9-2.25-11.21-4.64-16-7,.84-23-7.79-50.41-36-75.16-11.6-10.18-26.51-19.18-43.12-26.75l59.64,11.52,50.18-35.64L730,172.45l43.5-31.23Zm-462,9c-13.4,7.18-24.66,2-25.65-4.13s6.53-13.56,19.77-16.56,20.8,2.44,20.8,2.44C396.75,152.43,387.63,155.17,374.23,162.35ZM522.8,188h0l-.12,0a1.41,1.41,0,0,1-.5,0ZM321.05,215c17.58-4,27.59,3.23,27.59,3.23,10.09,11-2,14.69-19.79,24.22s-32.72,2.58-34-5.49S303.47,218.93,321.05,215ZM401,336.31c-57,9.46-103.43,18.82-131.54,14.76.38-.18-70.07-8.16-44.39-76.19,4.42,5.11,44.38,57.56,156.12,50.27,121.79-7.94,156.38-35.92,156.38-35.92S528.75,315.1,401,336.31Z" style="fill:#4a4a4a"/><path d="M885.49,83.44l-11-7.65-191.06,134q5.93,2.75,11.51,5.75Z" style="fill:#fff;opacity:0.38"/><path d="M712.49,10.44,699.27,8.21l-100,177c3.9.56,7.84,1.2,11.79,1.93Z" style="fill:#fff;opacity:0.38"/></g></g></svg>