<svg xmlns="http://www.w3.org/2000/svg" viewBox="0 0 1032.41 1030"><g id="ab9892c8-c87d-4e67-ae23-6de66fc524e8" data-name="Layer 2"><g id="b40c8697-aeff-4929-b90d-6ece9bce82f3" data-name="Gray Scale"><rect x="2.41" width="1030" height="1030" style="fill:none"/><path d="M523.43,239.87C248,239.87,205,434.27,205,534.33c0,142.94,168.55,216.44,313,216.44,143.34,0,313-73.5,313-216.44C831,443.27,779,239.87,523.43,239.87Z" style="fill:#b4b4b4"/><circle cx="513.33" cy="682.29" r="17.24" style="fill:#202020"/><path d="M692.17,307.09s21.59-3,45.76,17.73,31.58,44.43,22.87,55.95-37.79,10-57.69-19.51S667.29,316,692.17,307.09Z" style="fill:#fff;opacity:0.62"/><path d="M624.15,272.1s7.46-5.37,20.55-2.41,20.52,10.35,19.54,16.36-12.11,11.18-25.35,4.08S616.64,280.33,624.15,272.1Z" style="fill:#fff;opacity:0.62"/><path d="M477.81,538.65a117.69,117.69,0,0,1-235.37,0c0-65,52.7-77.67,117.69-77.68S477.82,473.66,477.81,538.65Z" style="fill:#f4f4f4"/><path d="M792.44,538.65a117.69,117.69,0,0,1-235.37,0c0-65,52.7-77.67,117.69-77.68S792.44,473.66,792.44,538.65Z" style="fill:#f4f4f4"/><path d="M343,439.83c13.24.79,25.84,0,25.84-4.44,0-4.25-8.25-7.82-21.49-8.6s-26.43,0-26.43,5.76S329.74,439.05,343,439.83Z" style="fill:#202020"/><path d="M684.81,439.83c-13.24.79-25.85,0-25.85-4.44,0-4.25,8.26-7.82,21.5-8.6s26.43,0,26.43,5.76S698,439.05,684.81,439.83Z" style="fill:#202020"/><path d="M368.06,470.54c-59.09,0-107,7.9-107,67a107,107,0,0,0,214,0C475.05,478.44,427.15,470.54,368.06,470.54ZM333.89,518c-18.45,12.3-31.42,19.23-49.87,6.93-12-8,1.8-23.88,22.87-33.93,11.44-5.45,31.38-9.11,36-9C361.58,482.42,344.73,510.75,333.89,518Z" style="fill:#202020"/><path d="M667.62,470.49c-59.08,0-107,7.9-107,67a107,107,0,1,0,214,0C774.61,478.39,726.71,470.49,667.62,470.49ZM598.89,512c-9.55,9.55-14.33,11-18,9-4.67-2.62-6.58-11.42,0-18,5.34-5.34,20.25-17.45,27-9C611.89,499,602.56,508.31,598.89,512Z" style="fill:#202020"/><path d="M244.29,642.72c-10.57,9.71-51.11,39.43-108.56,56.67C55.19,723.56,11.64,718.94,17,760.63c4.5,35,41.32,44.71,96,44s100.12-20.93,111-26.26a50,50,0,0,0,3.69-10.48c7.25-31.68,4.54-66,19.2-122h0C246.05,644.85,245.16,643.78,244.29,642.72Z" style="fill:#e8e8e8"/><path d="M921.17,703.06c-54.61-8.44-117.95-50.44-129.21-60.88-1,1.28-2.09,2.55-3.17,3.8,9,75.35,7.57,93.87,15.24,120.15.19.67.4,1.34.61,2,8.66,10.1,38.15,28.16,98.77,32.49s92.92-4.08,98.41-39C1006.79,729.94,974,711.22,921.17,703.06Z" style="fill:#e8e8e8"/><path d="M804.64,768.14c-.21-.67-.42-1.34-.61-2-7.67-26.28-6.25-44.8-15.24-120.15C729.42,715.29,617.39,750.63,518,750.63c-100.19,0-212-35.37-271.06-104.73h0c-14.66,55.92-11.95,90.29-19.2,122a50,50,0,0,1-3.69,10.48c-20.78,43.75-100.3,64.21-86.79,102.8,14.1,40.27,59.7,31.32,100.34,12,0,0-46.49,86.27,23.58,106.24,58.12,16.55,105.74-87.54,105.74-87.54s-20,95.1,55.79,106.94c74.4,11.63,87.25-97.64,87.25-97.64s10.8,105.45,84.79,98.51c79.38-7.44,58.12-117.11,58.12-117.11s41,110.34,113.92,81.37c42.32-16.82,28.11-75.67,28.11-75.67s41,31.06,65,3.08C892.48,873.43,823.32,827.86,804.64,768.14Z" style="fill:#e8e8e8"/><path d="M804.64,768.14c-.21-.67-.42-1.34-.61-2-7.67-26.28-6.25-44.8-15.24-120.15C729.42,715.29,617.39,750.63,518,750.63c-100.19,0-212-35.37-271.06-104.73h0c-14.66,55.92-11.95,90.29-19.2,122a50,50,0,0,1-3.69,10.48c-20.78,43.75-100.3,64.21-86.79,102.8,14.1,40.27,59.7,31.32,100.34,12,0,0-46.49,86.27,23.58,106.24,58.12,16.55,105.74-87.54,105.74-87.54s-20,95.1,55.79,106.94c74.4,11.63,87.25-97.64,87.25-97.64s10.8,105.45,84.79,98.51c79.38-7.44,58.12-117.11,58.12-117.11s41,110.34,113.92,81.37c42.32-16.82,28.11-75.67,28.11-75.67s41,31.06,65,3.08C892.48,873.43,823.32,827.86,804.64,768.14ZM163.59,886a17.25,17.25,0,1,1,17.24-17.25A17.25,17.25,0,0,1,163.59,886ZM205,868.74a17.24,17.24,0,1,1,17.25-17.24A17.24,17.24,0,0,1,205,868.74ZM226.69,826a17.25,17.25,0,1,1,17.24,17.24A17.24,17.24,0,0,1,226.69,826Zm42.55,151.75a17.24,17.24,0,1,1,17.24-17.24A17.24,17.24,0,0,1,269.24,977.73Zm26.47-39.07A17.24,17.24,0,1,1,313,921.42,17.24,17.24,0,0,1,295.71,938.66ZM313,899.59a17.24,17.24,0,1,1,17.25-17.24A17.24,17.24,0,0,1,313,899.59Zm116.81,105A17.24,17.24,0,1,1,447,987.4,17.24,17.24,0,0,1,429.76,1004.64ZM437.28,958a17.25,17.25,0,1,1,17.25-17.24A17.24,17.24,0,0,1,437.28,958Zm0-46.68a17.24,17.24,0,1,1,17.25-17.24A17.24,17.24,0,0,1,437.28,911.29Zm126-17.24a17.25,17.25,0,1,1,17.25,17.24A17.24,17.24,0,0,1,563.31,894.05Zm8.63,46.68A17.25,17.25,0,1,1,589.19,958,17.25,17.25,0,0,1,571.94,940.73Zm25.86,63.91A17.24,17.24,0,1,1,615,987.4,17.24,17.24,0,0,1,597.8,1004.64ZM688.65,870a17.25,17.25,0,1,1,17.24,17.24A17.24,17.24,0,0,1,688.65,870Zm19.24,41.34a17.25,17.25,0,1,1,17.25,17.25A17.24,17.24,0,0,1,707.89,911.29Zm42.49,58.59a17.25,17.25,0,1,1,17.24-17.24A17.24,17.24,0,0,1,750.38,969.88Zm8-174a17.24,17.24,0,1,1,17.24,17.24A17.24,17.24,0,0,1,758.41,795.88Zm20.7,42.85A17.25,17.25,0,1,1,796.36,856,17.25,17.25,0,0,1,779.11,838.73Zm45.58,55.32a17.25,17.25,0,1,1,17.24-17.24A17.24,17.24,0,0,1,824.69,894.05Z" style="fill:#b4b4b4"/><path d="M921.17,703.06c-54.61-8.44-117.95-50.44-129.21-60.88-1,1.28-2.09,2.55-3.17,3.8,9,75.35,7.57,93.87,15.24,120.15.19.67.4,1.34.61,2,8.66,10.1,38.15,28.16,98.77,32.49s92.92-4.08,98.41-39C1006.79,729.94,974,711.22,921.17,703.06Zm-47.93,50.37a17.25,17.25,0,1,1,17.24-17.24A17.24,17.24,0,0,1,873.24,753.43Zm44.81,14.44a17.24,17.24,0,1,1,17.24-17.24A17.24,17.24,0,0,1,918.05,767.87Zm47.81,4a17.24,17.24,0,1,1,17.24-17.24A17.24,17.24,0,0,1,965.86,771.87Z" style="fill:#b4b4b4"/><path d="M244.29,642.72c-10.57,9.71-51.11,39.43-108.56,56.67C55.19,723.56,11.64,718.94,17,760.63c4.5,35,41.32,44.71,96,44s100.12-20.93,111-26.26a50,50,0,0,0,3.69-10.48c7.25-31.68,4.54-66,19.2-122h0C246.05,644.85,245.16,643.78,244.29,642.72ZM74,778.87a17.24,17.24,0,1,1,17.24-17.24A17.24,17.24,0,0,1,74,778.87Zm45.81-7A17.24,17.24,0,1,1,137,754.63,17.24,17.24,0,0,1,119.78,771.87Zm43.81-18.44a17.25,17.25,0,1,1,17.24-17.24A17.24,17.24,0,0,1,163.59,753.43Z" style="fill:#b4b4b4"/><path d="M102.05,515.14a76.21,76.21,0,0,0-26.35-4.49,21.06,21.06,0,0,0,3.51-1.93c6-4.06,9.54-11.68,10.81-18.6,2.94-16.1-13.88-26.2-28-22.6-.79.2-1.61.44-2.45.72a29.93,29.93,0,0,0-16.65,14.62c-6.26,12.38,4.61,24.35,15.52,28.28a23.89,23.89,0,0,0,3.31.92,70.67,70.67,0,0,0-26.12,10.82c-19.1,13-30.5,37.33-34.54,59.44-9.4,51.46,44.35,83.75,89.55,72.26q3.78-1,7.81-2.33c22.75-7.69,42.41-25.36,53.22-46.72C171.69,566,136.93,527.7,102.05,515.14ZM47.14,497.6c-8-9.81,10.75-30.42,12.09-18.78C59.57,481.8,48.93,499.78,47.14,497.6Zm14.23-24.82c.76-6,10.57-3.56,8.93,2.12a3.79,3.79,0,0,1-2.54,2.7C64.9,478.5,60.92,476.31,61.37,472.78ZM13.7,608.12c-25.73-31.37,34.37-97.25,38.65-60C53.44,557.61,19.41,615.06,13.7,608.12Zm74-72.58a12.11,12.11,0,0,1-8.11,8.63c-9.14,2.9-21.88-4.11-20.44-15.39C61.62,509.68,93,517.39,87.73,535.54Z" style="fill:#747474"/><path d="M928.49,108.11c-.77-.3-1.6-.58-2.47-.84a30.61,30.61,0,0,0-22.52,2.36c-7.32,3.87-9.68,11.08-9,18.34-8.12-14.93-21.06-27.21-39.88-34.39a140.84,140.84,0,0,0-76.79-6.36,49.92,49.92,0,0,0,23-22.57c10.23-20.56-7.89-40.24-26-46.62a38.37,38.37,0,0,0-34.35,4.23c-9.84,6.78-15.66,19.43-17.68,30.88C718.59,77,740.58,92.78,762,91.41q-5.24,1.74-10.28,3.93c-3.78,1.65-7.32,3.36-10.67,5.14-59.81,31.8-86,119-25.67,165.17,25.94,19.82,62,34.87,95.21,30.16,33.72-4.78,63.12-26.66,79-56.58,14.63-27.58,20.77-64.41,11.62-95a23.61,23.61,0,0,0,17.33,8.4c7.38.14,14.86-4.11,20-9.13C950.48,131.82,942.41,113.46,928.49,108.11ZM729.41,66.45C716,50.31,746.87,16,749.21,35.24,749.81,40.17,732.39,70,729.41,66.45Zm23.27-41.22c1.2-9.89,17.46-6,14.8,3.41a6.27,6.27,0,0,1-4.17,4.49C758.59,34.66,752,31.08,752.68,25.23Zm22.79,107.9c-2.14,13.78-72,81.14-77.27,69.21C674.23,148.49,783.81,79.38,775.47,133.13Zm54.39-3.9c-3.72,6.07-9.1,8.74-14.68,9-13.93.54-29.07-14.19-22.71-29.43C803.25,82.94,844.21,105.82,829.86,129.23ZM919.5,115.9c-1.47,2.69-21,11.4-21.18,8.53C897.4,111.49,925.26,105.4,919.5,115.9Zm11.56,3.27a3.87,3.87,0,0,1-3.71.75c-2.93-.93-5-5.12-2.5-7.79C929,107.59,935.78,115.4,931.06,119.17Z" style="fill:#747474"/><path d="M985.09,578.9c-11.23-15.21-28.86-26.39-47.58-29.38-2.21-.35-4.33-.61-6.38-.78-36.69-3-74.29,29.26-60.2,68.12,6.05,16.69,18.13,34.17,34.7,41.76,16.83,7.7,36.7,6.31,52.73-2.74C983.86,641.5,1005.89,607.1,985.09,578.9Zm-47.8-5.1c-5,5.68-56.72,16-55.65,9C886.47,551.12,956.87,551.63,937.29,573.8Zm39.19,14.3c-3.49,1.69-19.89,1.2-22.51-.34-6.52-3.84-9.13-15-1.75-20.14C964.72,559,989.91,581.59,976.48,588.1Z" style="fill:#747474"/><path d="M466,207.61c-16.52-46.15-93.74-89.13-138.45-91.48-21.82-1.14-60.1,5.72-75.24,23.87-12.85,15.42-25.68,38.38-30.34,58.05-8.93,37.69-2,68.53,9.67,102.7-8.57.67-19.22,11.82-23.71,17.39,3.85,10.67,23.27,15.3,32.83,19.19,10.13,4.11,19.9,7.44,29.39,11.9a88.28,88.28,0,0,0,9.71,5.1l1,.58c13,7.83,24.83,19,39.82,22.88,7.36,1.92,13.49,2.49,17-4.23,2.76-5.28,5.69-19.41,4.77-25.4a7.52,7.52,0,0,0-.24-1.09c4.37-2.13,8.91-4.25,13.76-6.13,35.53-13.83,73.27-26.76,104-50C485.57,271.66,475,232.89,466,207.61Z" style="fill:#a7a7a7"/><path d="M466,207.61c-16.52-46.15-93.74-89.13-138.45-91.48-21.82-1.14-60.1,5.72-75.24,23.87-12.85,15.42-25.68,38.38-30.34,58.05-8.93,37.69-2,68.53,9.67,102.7-8.57.67-19.22,11.82-23.71,17.39,3.85,10.67,23.27,15.3,32.83,19.19,10.13,4.11,19.9,7.44,29.39,11.9a88.28,88.28,0,0,0,9.71,5.1l1,.58c13,7.83,24.83,19,39.82,22.88,7.36,1.92,13.49,2.49,17-4.23,2.76-5.28,5.69-19.41,4.77-25.4a7.52,7.52,0,0,0-.24-1.09c4.37-2.13,8.91-4.25,13.76-6.13,35.53-13.83,73.27-26.76,104-50C485.57,271.66,475,232.89,466,207.61ZM260.48,301.08C254.34,298,247.6,287,244.23,281c-4.14-7.33-6.31-15.86-7.42-24.23a118.84,118.84,0,0,1-.89-25.7c.39-4.54,2.24-22.18,9.06-18.8,7.53,3.75,5.8,31,7.2,38.22,1.54,7.93,3.95,15.75,5.81,23.63C259.18,279.19,264.61,296.75,260.48,301.08ZM279.72,261c-1.58,16.16-4.55,35.23-1.8,51.19-7.88-30.07-20.42-73.79-18.49-105.54,1.09-17.86,7-48.6,30.46-48.4,15,.13,7.92,12.06,4.53,20.34-4.21,10.32-6.61,21.71-8.29,32.65C283.58,227.82,281.36,244.1,279.72,261Zm7.42,51c4-30.1,9.46-60.14,14.06-90.06,2.38-15.42,3-31.21,8.25-46,2.35-6.57,5.72-14.19,12.09-17.81,6.08-3.44,18.94-2.47,24.18,2.06,8.68,7.5-3.37,24-6.84,31.5-15.74,33.9-33.79,65.75-45.45,101.2C291.23,299.48,288.87,306.21,287.14,312Zm8.38,2.37c3.39-15.69,12.14-30.3,18.77-44.85,8-17.68,17-34.44,26.13-51.56,5.85-11,10.4-22.73,17.6-33,5.43-7.73,18.86-18.34,29-14,7.28,3.11,16.43,6.46,21.56,12.82,7.71,9.54-1.52,18.48-9.52,24.26-18.34,13.25-38.13,23.31-54,39.91-9.74,10.2-20.08,20.14-28.63,31.36-5.75,7.52-9.35,15.75-13.84,24A71.45,71.45,0,0,1,295.52,314.34Zm12.93,4.89c-1.42,1.66-3.05,3.35-4.54,5,3.72-12.06,12.62-23.25,20.15-33.37,11-14.7,23.7-29.58,37.44-41.73C374.09,238,387.23,229,401.28,219.91c7.85-5.07,28.78-14.83,36.07-4.48,3.55,5,3.74,17.2.16,22.25-7.33,10.35-22.9,13.34-34.22,17.91C367.67,270,333.59,290,308.45,319.23Zm128-35.15c-9,8.68-23.25,13.39-35,17.13-16.49,5.26-33.68,8.67-50.08,14.45A169,169,0,0,0,333,323c-3.23,1.59-6.33,4.38-9.77,5.16,6-9.61,16.72-16.75,25.28-24.14a199.22,199.22,0,0,1,40.75-27.66c9.14-4.58,18.09-9.52,27.71-13.08,8.23-3,17.07-5.94,24.75-.07C449.9,269.43,442.37,278.38,436.47,284.08Z" style="fill:#676767"/></g></g></svg>