<svg xmlns="http://www.w3.org/2000/svg" viewBox="0 0 1032.39 1030"><g id="ae79383e-83f7-4415-b79d-9fec8d7b9645" data-name="Layer 2"><g id="b5401068-3c38-403c-9e8c-6c6bf04807f9" data-name="Gray Scale"><rect width="1030" height="1030" style="fill:none"/><path d="M786.34,645.65c-59.8,68-170.62,102.65-269,102.65-100.53,0-212.72-35.61-271.66-105.43-5,23.94-10.85,56.43-13.28,89.09-3.57,47.88-84.68,270.35,281.35,270.35,390.74,0,287.21-219.55,283.41-270.35C794.83,701.28,790.25,669.65,786.34,645.65Z" style="fill:#747474"/><path d="M522.71,237.4c-275.42,0-318.41,194.39-318.41,294.46,0,142.93,168.55,216.44,313,216.44,143.34,0,313-73.51,313-216.44C830.3,440.79,778.29,237.4,522.71,237.4Z" style="fill:#e2e2e2"/><ellipse cx="359.99" cy="535.76" rx="117.69" ry="117.68" transform="translate(-185.2 190.21) rotate(-23.73)" style="fill:#e6e6e6"/><ellipse cx="674.62" cy="535.76" rx="117.69" ry="117.68" transform="translate(-158.59 316.85) rotate(-23.73)" style="fill:#e6e6e6"/><path d="M450.05,419.82c8.81,9.91,18.28,18.27,21.42,15.13s-.31-11.37-9.11-21.28-18.7-18.69-22.77-14.62S441.25,409.91,450.05,419.82Z" style="fill:#202020"/><path d="M583,419.82c-8.81,9.91-18.28,18.27-21.42,15.13s.31-11.37,9.11-21.28,18.7-18.69,22.77-14.62S591.8,409.91,583,419.82Z" style="fill:#202020"/><path d="M545.2,607.83c-3.92-8.3-23.54-9-35-7.41-7.23,1-19.55,3.78-20.92,11.63-1.2,6.84-1,15.52.64,24.2.66-1.2,1.4-2.43,2.24-3.67.73-1.06,1.52-2.11,2.39-3.15,5.06-6,12.68-11.23,23.86-10.91s18.74,5.67,24,11.69c.92,1.07,1.77,2.15,2.54,3.23.88,1.24,1.66,2.48,2.36,3.68C549,625.56,548.18,614.15,545.2,607.83Z" style="fill:#656565"/><path d="M544.92,633.44c-.77-1.08-1.62-2.16-2.54-3.23-5.21-6-12.91-11.37-24-11.69s-18.8,4.87-23.86,10.91c-.87,1-1.66,2.09-2.39,3.15-.84,1.24-1.58,2.47-2.24,3.67q.4,2.13.93,4.26c.36,1.47.76,2.93,1.2,4.37,2.36,7.75,5.9,15,10.69,20.31,4.93,5.49,10.82,8.36,17.09,8.36.47,0,.94,0,1.41,0,7.32-.5,13.7-5,18.46-13.12A58,58,0,0,0,545.47,646c.39-1.49.74-3,1-4.51s.55-2.92.76-4.38C546.58,635.92,545.8,634.68,544.92,633.44Z" style="fill:#676767"/><path d="M260.93,534.64a107,107,0,1,0,107-107A107,107,0,0,0,260.93,534.64ZM394.6,454.35c12.3,18.45-24.61,36.9-43.06,49.21S302.33,534.31,283.88,522s12.3-55.36,30.76-67.66S382.29,435.9,394.6,454.35Z" style="fill:#202020"/><path d="M667.48,427.6a107,107,0,1,0,107,107A107,107,0,0,0,667.48,427.6ZM616,497.41c-18.45,24.6-36.9,43.05-43,30.75s4-33.65,18.45-55.36c12.3-18.45,36.91-30.75,43.06-24.6C644.2,457.92,626.46,483.49,616,497.41Z" style="fill:#202020"/><path d="M797.12,732c-2.29-30.68-6.87-62.31-10.78-86.31-59.8,68-170.62,102.65-269,102.65-100.53,0-212.72-35.61-271.66-105.43-5,23.94-10.85,56.43-13.28,89.09-3.57,47.88-84.68,270.35,281.35,270.35C904.45,1002.31,800.92,782.76,797.12,732Zm-116,41.5c3.42,23.21,5.8,25.48,29.14,27.84-23.19,3.42-25.47,5.81-27.83,29.12-3.41-23.18-5.82-25.45-29.12-27.81C676.51,799.19,678.8,796.8,681.16,773.46ZM513.33,821.89c3.42,23.2,5.79,25.48,29.14,27.83-23.19,3.42-25.48,5.81-27.83,29.13-3.41-23.18-5.82-25.46-29.12-27.81C508.68,847.62,511,845.23,513.33,821.89ZM264.19,757c-3.65-23.14-6.09-25.39-29.41-27.5,23.12-3.67,25.38-6.08,27.5-29.44,3.67,23.17,6.07,25.41,29.43,27.52C268.56,731.27,266.3,733.68,264.19,757Zm81.31,16.44c3.42,23.21,5.79,25.48,29.14,27.84-23.19,3.42-25.48,5.81-27.83,29.12C343.4,807.24,341,805,317.69,802.61,340.85,799.19,343.13,796.8,345.5,773.46ZM369,950.72c-5.38-36.63-9.2-40.22-46-44,36.6-5.41,40.22-9.18,43.95-46.06,5.41,36.67,9.16,40.26,46.05,44C376.32,910.1,372.71,913.87,369,950.72Zm61.74-88.79c-3.41-23.18-5.83-25.46-29.13-27.81,23.16-3.42,25.45-5.81,27.82-29.15,3.42,23.2,5.79,25.48,29.13,27.83C435.36,836.22,433.08,838.61,430.73,861.93Zm85,125.28c-5.38-36.64-9.2-40.23-46-44,36.6-5.4,40.22-9.18,43.95-46.06,5.41,36.67,9.16,40.26,46.05,44C523.07,946.58,519.46,950.36,515.74,987.21Zm82.82-125.28c-3.41-23.18-5.82-25.46-29.13-27.81,23.17-3.42,25.45-5.81,27.82-29.15,3.42,23.2,5.79,25.48,29.13,27.83C603.19,836.22,600.91,838.61,598.56,861.93Zm68.1,88.79c-5.39-36.63-9.2-40.22-46-44,36.61-5.41,40.22-9.18,44-46.06,5.41,36.67,9.15,40.26,46,44C674,910.1,670.38,913.87,666.66,950.72ZM767.39,757c-3.41-23.18-5.82-25.45-29.13-27.81,23.17-3.42,25.45-5.81,27.82-29.15,3.42,23.21,5.79,25.48,29.13,27.84C772,731.32,769.74,733.7,767.39,757Z" style="fill:#e2e2e2"/><path d="M245.68,642.91c-1.31,6.26-2.68,13.1-4,20.38l1.22,11.37,1.12,10.5,4.32,40.48,9.56,89.48,6.87,64.36,6.2,58.06a180.19,180.19,0,0,0,35.88,25.32,243.63,243.63,0,0,0,30.82,14q4.8,1.8,9.87,3.5l-.73-12.65-3.89-67.56h0l-5.37-93.44-5-87.22-.7-12.18C297.82,690.77,268,669.29,245.68,642.91Z" style="fill:#fff;opacity:0.33"/><path d="M797.12,732.18c-.38-5.11-.83-10.25-1.32-15.38-2.21-22.87-5.41-45.46-8.39-64.27-.37-2.34-.73-4.62-1.1-6.84-20.28,23-46.44,42.27-76,57.61l-1.58,27.9-1.93,33.87L705,796.31l-3,52.78-2.92,51.48-.63,11.15-2.7,47.5L695.18,970l-.51,8.88c2.36-.79,4.68-1.61,7-2.44q4.93-1.8,9.61-3.72,5.85-2.38,11.29-4.93,10-4.71,18.69-9.89c31.2-18.6,49.6-41.49,59.83-65.63a140.61,140.61,0,0,0,9.59-35.21q1-7.07,1.37-14.09a225.8,225.8,0,0,0-2-42.8C806,770.56,798.12,745.53,797.12,732.18Z" style="opacity:0.1"/><path d="M590.52,2.25c-63.14,74.94-61,132.88-61,132.88l58.12-11.92C615.86,61.74,590.52,2.25,590.52,2.25ZM557,98.35c-2.65,6.55-3.26,17.52-12.93,16.12-2.91-.43-1.1-14.83,2.69-23.23,4.47-9.89,9.61-18.85,14.8-21.82S561.64,86.78,557,98.35Z" style="fill:#646464"/><path d="M587.6,123.21l-58.12,11.92s-42,35.91-45.94,100c20.45-.46,68-3.7,102-23.35C585.5,211.8,604.54,177.62,587.6,123.21ZM526.8,173.7c-4.22,9-9.21,14.58-11.76,11.81-4-4.37-1.43-12,2.2-18.82,6.41-12.1,9.93-16.32,16.43-14.19C539.65,154.45,531.76,163.07,526.8,173.7Z" style="fill:#676767"/><path d="M585.5,211.8l-102,23.35s-19.63,16.57-32.89,51.25c-23.86,7.48-50.81,23-78.87,44.26C296.46,387.75,225,317.46,225,317.46S340.53,448.29,434.54,364c21.2-19,38.07-30.88,51.51-37.9a224.19,224.19,0,0,0,50.43,5.3l.09.22-.06-.23c18.3-.3,37.31-3.35,55.28-11C594.76,283.58,595.75,237.1,585.5,211.8Z" style="fill:#747474"/><path d="M422.24,182.28c-123.36,28-122.71,175.9-197.27,135.18,0,0,48,47.18,125.26-31.86a259.06,259.06,0,0,1,21.94-20.05c1.62-6,.39-7.44-6.31-11.64,8.68,2.81,9.89,2.36,14.73-5.38-1.85,5.72-2.27,8.21-.14,10.61,27.76-20.49,56.69-31.91,82.09-31.1l1.57-2.47c-.28.87-.54,1.69-.79,2.49,39.65,1.66,70.49,33.38,74.39,107.29l6.59-59.46C544.52,258.1,536,156.41,422.24,182.28ZM445,229.12c2.79-8.67,2.35-9.89-5.39-14.72,8.69,2.8,9.9,2.36,14.73-5.38-2.8,8.68-2.35,9.9,5.38,14.73C451.06,221,449.84,221.39,445,229.12Z" style="fill:#646464"/><path d="M463.32,228.06C459,242,460.49,244.47,474.11,253c-16.17-5.2-18.41-4.39-27.41,10,5.21-16.16,4.38-18.41-10-27.41,15.19,4.89,18.1,4.46,25.86-7.54-25.4-.81-54.33,10.61-82.09,31.1a25.75,25.75,0,0,0,5.52,4.13c-8.68-2.8-9.89-2.35-14.73,5.37.38-1.15.69-2.17.93-3.09a259.06,259.06,0,0,0-21.94,20.05c-77.3,79-125.26,31.86-125.26,31.86s71.49,70.29,146.81,13.2c76.78-58.27,145.29-73.13,164.79,1a20.13,20.13,0,0,1,1.14,3.72C533.81,261.44,503,229.72,463.32,228.06Z" style="fill:#676767"/><path d="M891.07,676.77c22.45-110,141.32-103.29,141.32-103.29S826.71,547.31,808.89,696.2a405.38,405.38,0,0,1-9.14,51.47c3.79,17.8,10.39,43.14,12.12,71C849.6,804.47,876.05,750.36,891.07,676.77Zm-10.26-73.19c7.32,8.11,8.83,8.38,18.48,3.28-8.11,7.3-8.38,8.82-3.27,18.48-7.31-8.11-8.84-8.38-18.48-3.27C885.65,614.76,885.92,613.24,880.81,603.58Zm-20.26,99.94c-8.11,7.31-8.38,8.83-3.28,18.48-7.3-8.11-8.82-8.37-18.47-3.27,8.1-7.31,8.37-8.82,3.26-18.48C849.38,708.36,850.88,708.63,860.55,703.52ZM840.38,653.2c3.93,4.36,4.74,4.51,9.93,1.76-4.36,3.93-4.51,4.75-1.76,9.94-3.93-4.37-4.74-4.51-9.93-1.76C843,659.21,843.13,658.39,840.38,653.2ZM831.78,716c-3.92-4.37-4.74-4.51-9.93-1.76,4.36-3.93,4.5-4.75,1.75-9.92,3.94,4.35,4.76,4.49,9.94,1.75C829.18,710,829,710.83,831.78,716Z" style="fill:#646464"/><path d="M1032.39,573.48s-27.19-1.53-51.22,23.28l1.52-.79c-8.1,7.31-8.37,8.83-3.27,18.49-3.26-3.62-5.37-5.67-7.56-6.39-13.15,18.74-23.89,47.58-26.28,92-5.47,102-57.26,179-134.41,152.48a147,147,0,0,1-6.6,30.21c34.57,24.75,97.79,48.81,157.75-34C1050.44,727.06,934,595.59,1032.39,573.48ZM970.88,716.83c-3.93-4.37-4.75-4.51-9.93-1.76,4.36-3.93,4.5-4.75,1.76-9.93,3.92,4.35,4.74,4.5,9.92,1.76C968.28,710.82,968.13,711.64,970.88,716.83Z" style="fill:#747474"/><path d="M945.58,700.08c2.39-44.43,13.13-73.27,26.28-92-2.72-.89-5.57.28-10.91,3.11,8.1-7.31,8.37-8.83,3.27-18.48,6.9,7.67,8.65,8.32,16.95,4.06,24-24.81,51.22-23.28,51.22-23.28s-118.87-6.72-141.32,103.29c-15,73.59-41.47,127.7-79.2,141.9a192.83,192.83,0,0,1-.7,33.89C888.32,879.06,940.11,802,945.58,700.08Zm-15.47-67.3c7.32,8.11,8.82,8.38,18.48,3.27-8.11,7.31-8.37,8.83-3.27,18.48-7.3-8.11-8.83-8.37-18.47-3.27C935,644,935.22,642.44,930.11,632.78Z" style="fill:#676767"/><path d="M200,537.71l-9.94,1.59L183.12,532a2.44,2.44,0,0,0-4.17,1.3l-1.55,9.95-3.93,1.88h0l-5.15,2.47a1.59,1.59,0,0,0-.27.18l-.47-4.74-3-30.62,28.6-24.27a9.07,9.07,0,0,0-3.92-15.78l-36.58-7.94-14.16-34.7a9,9,0,0,0-16.2-1.11l-18.91,32.4L87.2,462.28h0L66,463.88A9.08,9.08,0,0,0,59.92,479l24.9,28-8.93,36.44a9.06,9.06,0,0,0,9,11.22A3.52,3.52,0,0,0,83,556.16L75.57,568.9l-6.35.49h0l-8.31.64A3.57,3.57,0,0,0,58.52,576l9.77,11-3.5,14.31a3.55,3.55,0,0,0,4.89,4.1l13.45-6,12.5,7.72a3.56,3.56,0,0,0,5.41-3.4l-.26-2.62-1.2-12,11.22-9.55a3.56,3.56,0,0,0-1.54-6.19l-14.36-3.1-5.56-13.62a3.5,3.5,0,0,0-2.91-2.18,9.19,9.19,0,0,0,1.9-.58l34.29-15.13,31.83,19.7a9.08,9.08,0,0,0,13.74-6.47s.05.05.08.06l9,4.56,1.34,10a2.44,2.44,0,0,0,4.14,1.39l7.1-7.13,9.91,1.81a2.44,2.44,0,0,0,2.6-3.51l-.82-1.6-3.77-7.36,4.78-8.86A2.43,2.43,0,0,0,200,537.71Z" style="fill:#676767"/><path d="M1023.24,307.75,982.91,291l-9-42.79a10.57,10.57,0,0,0-18.37-4.69l-28.5,33.22-18.82-2h0l-17.73-1.88a2.23,2.23,0,0,0,.4-.54l4.81-8.84,10-1.05a2.44,2.44,0,0,0,1.52-4.1L906,257l-5.68-6,2.09-9.84a2.44,2.44,0,0,0-3.43-2.71l-9.09,4.33-8.73-5a2.43,2.43,0,0,0-3.63,2.42l1.31,10-3.23,2.92h0l-4.24,3.82a2.44,2.44,0,0,0,1.19,4.21l9.9,1.84,4.1,9.19a2.32,2.32,0,0,0,.19.31l-3.14-.33a10.6,10.6,0,0,0-10.17,16l22.71,37.33-17.9,39.94A10.57,10.57,0,0,0,890.33,380l42.54-10.15,32.4,29.29a10.61,10.61,0,0,0,17.66-7l.63-7.81,2.94-35.79,37.92-21.85A10.58,10.58,0,0,0,1023.24,307.75Z" style="fill:#676767"/></g></g></svg>