<svg xmlns="http://www.w3.org/2000/svg" viewBox="0 0 1030 1030"><g id="e7db074c-8f19-4663-9225-e1228e3e2345" data-name="Layer 2"><g id="ad227ef9-2233-4b9c-8c0b-f461e6bba9e2" data-name="Gray Scale"><rect width="1030" height="1030" style="fill:none"/><path d="M796.82,733.55c-1.43-19.16-3.76-38.7-6.25-56.52,3.87-20.81,1.39-35.43,1.39-35.43l-4.4.69C728.67,713,615.38,749.06,515,749.06c-55,0-113.55-10.68-164.93-31.79-41.65-17.4-78.47-41.71-104.72-72.81-.09.4-.17.81-.25,1.21-1-1.13-2-2.28-2.92-3.43l-4.06-.64s-2.41,14.18,1.22,34.47c-3.05,17.85-5.79,37.63-7.27,57.48-3.57,47.88-84.68,270.35,281.34,270.35C904.15,1003.9,800.62,784.35,796.82,733.55Z" style="fill:#e2e2e2"/><path d="M888.29,861.58c19.45-11.78,18.53-33.81,15.1-47.13-6-23.28-23.51-31.34-31.75-33.89,7.37,22.3,13.17,58.21-15.88,77.53-20.44,13.6-36.53,15.7-47.91,14a129.69,129.69,0,0,1-19.47,44.19C879.2,937.48,903,863,903,863A23.54,23.54,0,0,1,888.29,861.58Z" style="fill:#b6b6b6"/><path d="M855.76,858.09c29-19.32,23.25-55.23,15.88-77.53a32.28,32.28,0,0,0-4.39-1.08c-6.94,25.43-21.69,34.18-21.69,34.18-4.43-2.44,1.21-12.65,1.21-12.65-18.87,9.51-29.44,26.78-34.77,38.58a163.13,163.13,0,0,1-4.15,32.55C819.23,873.79,835.32,871.69,855.76,858.09Z" style="fill:#e2e2e2"/><path d="M522.41,239C247,239,204,433.38,204,533.45c0,142.93,168.55,216.44,313,216.44,143.34,0,313-73.51,313-216.44C830,442.38,778,239,522.41,239Z" style="fill:#b6b6b6"/><path d="M625,687.38c0,32.39-8.77,62.56-110,62.56-108.25,0-125.72-29.4-125.72-62.56,0-60.22,56.29-91.73,125.72-91.73S625,642,625,687.38Z" style="fill:#e2e2e2"/><path d="M539,628.46C539,621,527.18,615,512.57,615s-26.46,6-26.46,13.48c0,6.4,8.77,17.27,20.52,20.18v18a4,4,0,0,0,8,0V649.28C528.28,648.1,539,635.55,539,628.46Z" style="fill:#303030"/><path d="M381.13,300.42h0C376.4,204.52,350,112.87,318.74,53c-14.5-27.76-55.57-1.81-41.16,25.81A788.5,788.5,0,0,1,316.53,165c-42.38-31.87-63.51-99.84-72-147.12-5.56-30.74-51.93-16.1-46.41,14.38C204.23,66.35,216.3,106,235.54,141c-22.42-6.49-44.21-15.19-64-27.32-26.78-16.43-49.76,26.39-23.17,42.7,36,22.09,79,35.63,120.51,41.85a25.52,25.52,0,0,0,10.85-.62c16,14,34.58,24.41,55.9,29.58,4.24,18.1,6.79,53,7.55,86.79a5.61,5.61,0,0,0,0,1.59v.29l0,0a6.09,6.09,0,0,0,.31.94c2.24,5,12.43,5.34,22.77.72C376.42,313,382.91,305.44,381.13,300.42Z" style="fill:#303030"/><path d="M671.25,300.39h0c4.75-96,31.21-187.85,62.51-247.84C748.26,24.75,789.4,50.74,775,78.4a790,790,0,0,0-39,86.38c42.45-31.91,63.61-100,72.16-147.34,5.58-30.79,52-16.13,46.49,14.4-6.17,34.11-18.26,73.87-37.53,108.88,22.45-6.5,44.28-15.21,64.11-27.37C908,96.89,931,139.79,904.38,156.13c-36.08,22.11-79.12,35.68-120.7,41.91a25.57,25.57,0,0,1-10.86-.62c-16.06,14-34.63,24.45-56,29.63-4.25,18.12-6.8,53.12-7.56,86.92a5.61,5.61,0,0,1,0,1.59,2.71,2.71,0,0,1,0,.29l0,0a4.59,4.59,0,0,1-.31.95c-2.24,5-12.44,5.34-22.79.72C676,313,669.47,305.42,671.25,300.39Z" style="fill:#303030"/><path d="M1025.37,682.94l-74-12.71L967.49,636l-34,16.28-12-71A16.3,16.3,0,0,0,925,552.11l5.25-31.05,15.58,7.47-7.41-15.72,34-5.84-34-5.83,7.41-15.73-15.58,7.48-5.79-34.27-5.79,34.27-15.6-7.48,7.42,15.73-34,5.83,34,5.84-7.42,15.72,15.6-7.47,5.13,30.34a16.33,16.33,0,1,0-3.57,30.24l-11.91,70.62-33.05-15.83a8,8,0,0,0,.58-3,8.18,8.18,0,1,0-.93,3.77l15.57,33-74,12.71,74,12.71L874.35,729.9l34-16.28,12.59,74.65,12.61-74.65,34,16.28-16.15-34.25Z" style="fill:#d3d3d3"/><path d="M225.21,696.44,145,685.3l14.68-33.92a11,11,0,1,0-1.71-1.88l-32.79,17L112,601.37h.09a19.41,19.41,0,0,0,6.85-36.77l6.91-37.49,18.94,9.44L136,517.16l41.7-6.51-41.48-7.77,9.36-19.1-19.21,8.85-6.45-42-7.71,41.83-19-9.44L102,502.36l-41.69,6.51,41.47,7.77-9.36,19.11,19.23-8.86,5.67,37A19.42,19.42,0,1,0,107,601.13l-9,66.28L60.77,651l18.6,36.36L0,703.65,80.24,714.8,64,752.29l36.07-18.73,16.16,80,11-80.91,37.16,16.38L145.84,712.7Z" style="fill:#d3d3d3"/><path d="M695.11,226.14s-1.6,3.74-1.6,3.76a19,19,0,1,0,23.64-12.64c-.33-.1-4.58-.8-4-.76-5.55-27.85-19.45-68.78-54-84.9C609.53,108.48,522.87,143.41,496.8,210c.09.05-3.53-1.44-3.95-1.57a25.45,25.45,0,1,0,7.5,45,25.45,25.45,0,0,0,39.77,11,25.44,25.44,0,0,0,38.78,13.23,25.44,25.44,0,0,0,36.92,12.42,25.45,25.45,0,0,0,34,12.28A25.46,25.46,0,1,0,679,264.89c-.46-.13-4.51-1.81-11.91-.69h0c.28-11.83-.12-27.52,5.65-37.54,4.7-8.13,13.81-5.95,22.45-.71m-192.4-11.78-.11-.09Zm201.11,3.92,0,0Z" style="fill:#f4f4f4"/><path d="M670,606.67c-45.67,0-75.15-21.15-91.84-38.9-18-19.13-25.23-38.32-25.53-39.13a10,10,0,0,1,18.75-6.95,110.23,110.23,0,0,0,21.87,32.93c20.28,21.27,46.1,32,76.75,32,30.93,0,58.42-10.95,81.7-32.56,17.73-16.45,26.27-33.24,26.36-33.41a10,10,0,0,1,17.9,8.92c-.4.79-9.91,19.7-30.05,38.59C739.08,593.37,705.91,606.67,670,606.67Z" style="fill:#202020"/><path d="M355,606.67c-45.67,0-75.15-21.15-91.84-38.9-18-19.13-25.23-38.32-25.53-39.13a10,10,0,0,1,18.75-6.95,110.23,110.23,0,0,0,21.87,32.93c20.28,21.27,46.1,32,76.75,32,30.93,0,58.42-10.95,81.7-32.56,17.73-16.45,26.27-33.24,26.36-33.41a10,10,0,0,1,17.9,8.92c-.4.79-9.91,19.7-30,38.59C424.08,593.37,390.91,606.67,355,606.67Z" style="fill:#202020"/><path d="M796.82,733.55c-1.43-19.16-3.76-38.7-6.25-56.52-5.69,30.54-25.09,74.4-86.16,104.93,0,0,5-19.83,0-28,0,0-9.6,108.92-187.41,159.32C340.32,859.63,325.65,754,325.65,754c-5,8.16,0,28,0,28-61.72-30.85-80.86-75.32-86.32-105.89-3.05,17.85-5.79,37.63-7.27,57.48-3.57,47.88-84.68,270.35,281.34,270.35C904.15,1003.9,800.62,784.35,796.82,733.55ZM278.27,832.91c-6.7,11.7-19.12,17.17-27.74,12.23s-10.18-18.43-3.47-30.12,19.13-17.18,27.75-12.23S285,821.21,278.27,832.91ZM304,905.83a10.77,10.77,0,1,1-9.34-12.12A10.82,10.82,0,0,1,304,905.83Zm8.93-34.76c-5.24.95-10.84-4.9-12.52-13.07s1.2-15.58,6.43-16.53,10.84,4.9,12.52,13.07S318.12,870.11,312.89,871.07Zm412.31,2c-5.29-.54-8.74-7.7-7.7-16s6.18-14.55,11.47-14,8.74,7.7,7.7,16S730.49,873.63,725.2,873.08Zm24.32,42.46a10.87,10.87,0,1,1,8.37-12.81A10.82,10.82,0,0,1,749.52,915.54Zm35.84-73.14c-8.21,5.59-21,1.1-28.62-10s-7.09-24.71,1.12-30.31,21-1.1,28.62,10S793.57,836.8,785.36,842.4Z" style="fill:#b6b6b6"/><path d="M695.82,225h0l.35-.48a18.5,18.5,0,0,1,1.28-1.64h0a18.5,18.5,0,0,1,1.95-1.91h0l.05,0a18.58,18.58,0,0,1,2.11-1.53h0l0,0a19.34,19.34,0,0,1,2.15-1.16l.1,0h0l0,0h0a18.44,18.44,0,0,1,2.29-.84l.15-.05h0c.5-.15,1-.27,1.52-.37l.45-.08c.36-.06.72-.12,1.08-.16l.53-.05c.36,0,.73-.06,1.09-.07h.48c.52,0,1,0,1.57.05-5.55-27.85-19.45-68.78-54-84.9C609.53,108.48,522.87,143.41,496.8,210l.26.15.67.34.25.14.84.5.06,0,.14.09.08.05c.27.17.55.35.81.54l.21.14c.17.12.33.25.49.38l.53.39c.48.38.95.77,1.4,1.18a1.07,1.07,0,0,1,.16.14l.11.09,0,0,.58.57.36.37c.18.18.35.36.52.55a.46.46,0,0,0,.07.07l.18.21.14.16.46.54c.15.18.29.37.43.55l.31.41.07.09h0c.24.32.47.65.69,1l.28.44.2.33.18.29.05.08.26.46q.21.36.39.72l.24.46s0,.07.05.1.11.25.17.37l.16.33.18.4c.17.4.34.81.5,1.22a25.46,25.46,0,0,1,39.16,13,25.45,25.45,0,0,1,39.6,10.54,25.44,25.44,0,0,1,37.59,10.18,25.45,25.45,0,0,1,35.07,8.66q.69-.31,1.38-.6h0a26.63,26.63,0,0,1,4.89-1.43l.1,0h0c.28-11.83-.12-27.52,5.65-37.54,4.7-8.13,13.7-5.76,22.35-.52.1-.19.21-.36.32-.54S695.68,225.17,695.82,225Z" style="fill:#636363"/></g></g></svg>