<svg xmlns="http://www.w3.org/2000/svg" viewBox="0 0 1030 1030"><g id="b81b559b-3d67-4b06-b944-cca2bac61cb5" data-name="Layer 2"><g id="f915bbda-0aea-4bdf-9dec-75ef365bacff" data-name="Gray Scale"><path d="M805.79,787.91c-4.18-23.76-18-118.65-21.34-139.5h-2.56C752.52,680.69,711.54,705.27,666,722c-48,17.61-101,26.5-150.85,26.5-50.23,0-103.38-8.89-151.34-26.5-45.53-16.71-86.39-41.29-115.63-73.57h-5.59c-5.8,28.46-18,115.37-20.64,139.5-2.44,22.07-3.11,47.77,2.65,73.57,5.06,22.7,15.09,45.47,33.25,65.93,37,41.7,107.86,73.78,239.29,76h0A105.12,105.12,0,0,0,517.76,1030a129.2,129.2,0,0,0,14.67-26.72h0c137.47-2.91,209.24-34.68,245.08-75.87C795.29,907,804.23,884.19,808,861.48,812.17,835.73,809.68,810.05,805.79,787.91Z" style="fill:#202020"/><path d="M805.79,787.91H222c-2.44,22.07-3.11,47.77,2.65,73.57H808C812.17,835.73,809.68,810.05,805.79,787.91Z" style="fill:#c2c2c2"/><path d="M248.18,648.41h-5.59c-5.8,28.46-8.19,40.28-11.42,73.57H363.81C318.28,705.27,277.42,680.69,248.18,648.41Z" style="fill:#e4e4e4"/><path d="M784.45,648.41h-2.56C752.52,680.69,711.54,705.27,666,722H794C791.64,695.59,787.82,669.26,784.45,648.41Z" style="fill:#e4e4e4"/><path d="M511.55,1003.49c151.16,0,228.34-32.85,266-76.08H257.85C296.21,970.61,370.84,1003.49,511.55,1003.49Z" style="fill:#909090"/><path d="M843.3,563.25c51-44,112.46-56.19,137.34-27.36s3.71,87.87-47.28,131.84-162.05,27.33-162.05,27.33S792.32,607.2,843.3,563.25Z" style="fill:#ddd"/><path d="M935.31,680.57c61.7,26.91,99.36,77,84.16,111.93S941.88,833.91,880.16,807,771.31,695.06,771.31,695.06,873.61,653.67,935.31,680.57Z" style="fill:#cecece"/><path d="M187,563.25c-51-44-112.46-56.19-137.34-27.36S46,623.76,96.94,667.73,259,695.06,259,695.06,238,607.2,187,563.25Z" style="fill:#ddd"/><path d="M95,680.57c-61.71,26.91-99.37,77-84.17,111.93S88.42,833.91,150.14,807,259,695.06,259,695.06,156.69,653.67,95,680.57Z" style="fill:#cecece"/><rect width="1030" height="1030" style="fill:none"/><path d="M520.56,237.58C245.14,237.58,202.15,432,202.15,532c0,142.93,168.55,216.44,313,216.44,143.34,0,313-73.51,313-216.44C828.15,441,776.14,237.58,520.56,237.58Z" style="fill:#c2c2c2"/><ellipse cx="362.83" cy="535.13" rx="117.69" ry="117.68" transform="translate(-184.7 191.3) rotate(-23.73)" style="fill:#f4f4f4"/><ellipse cx="677.46" cy="535.13" rx="117.69" ry="117.68" transform="translate(-158.09 317.94) rotate(-23.73)" style="fill:#f4f4f4"/><path d="M311.33,363.76c9.92-8.81,18.27-18.28,15.13-21.42s-11.36.31-21.28,9.11-18.69,18.7-14.62,22.77S301.42,372.56,311.33,363.76Z" style="fill:#202020"/><path d="M720.86,363.76c-9.91-8.81-18.27-18.28-15.13-21.42s11.37.31,21.28,9.11,18.7,18.7,14.62,22.77S730.78,372.56,720.86,363.76Z" style="fill:#202020"/><path d="M583,651.66a6.51,6.51,0,0,0-7.66-5.09c-3,.6-5.28.44-6.45-.45a4.39,4.39,0,0,1-1.36-2.64,6.5,6.5,0,0,0-13,.79,17.72,17.72,0,0,0,3.35,9c-6.38,8.34-13.28,13-24,16.46-15.53,5-33.77,4.34-42.43-1.59-2.71-1.86-4.1-4-4.25-6.5a6.48,6.48,0,0,0-6.86-6.12,6.51,6.51,0,0,0-6.13,6.87c.38,6.62,3.8,12.32,9.89,16.49,6.83,4.67,16.93,7.25,28.44,7.25a83.42,83.42,0,0,0,25.34-4c13.81-4.47,23.14-11.08,31.4-22.39a23.28,23.28,0,0,0,2.81.18,29.58,29.58,0,0,0,5.8-.61,6.52,6.52,0,0,0,5.09-7.67Z" style="fill:#333"/><path d="M243.8,643.42c-1.39,6.61-2.85,13.9-4.3,21.7l1.22,11.37,1.12,10.5,4.32,40.48L255.72,817l6.87,64.36,6.2,58.06a180.93,180.93,0,0,0,35.87,25.32,243.51,243.51,0,0,0,30.82,14q4.81,1.82,9.87,3.51l-.72-12.65L340.74,902h0l-5.38-93.44-5-87.22-.79-13.87C295.75,691,266,669.62,243.8,643.42Z" style="fill:#fff;opacity:0.33"/><path d="M795,734c-.38-5.11-.83-10.25-1.32-15.37-2.21-22.87-5.41-45.46-8.39-64.27q-.68-4.26-1.33-8.23c-20.23,22.92-46.27,42-75.67,57.31L706.58,733l-1.92,33.87-1.77,31.23-3,52.79L697,902.4l-.63,11.14-2.7,47.51L693,971.86l-.5,8.88q3.54-1.2,6.94-2.44,4.95-1.8,9.61-3.72,5.86-2.39,11.29-4.93c6.7-3.14,12.91-6.44,18.7-9.89,31.2-18.6,49.6-41.49,59.82-65.63a139.72,139.72,0,0,0,9.59-35.22c.67-4.7,1.12-9.41,1.38-14.08a225.1,225.1,0,0,0-2-42.81C803.86,772.39,796,747.36,795,734Z" style="opacity:0.1"/><path d="M370.77,427a107,107,0,1,0,107,107A107,107,0,0,0,370.77,427Zm14.4,55.47a53.47,53.47,0,0,0-66.54,39.58c-11.65,4-23.16,5.13-31.9-.69C268.28,509.07,299,466,317.48,453.72s67.66-18.46,80,0C404.05,463.63,396.46,473.53,385.17,482.49Z" style="fill:#202020"/><path d="M670.33,427a107,107,0,1,0,107,107A107,107,0,0,0,670.33,427Zm-51.46,69.81c-18.45,24.61-36.9,43.06-43,30.76s4-33.65,18.45-55.36c12.3-18.45,36.9-30.75,43.05-24.6C647.05,457.29,629.31,482.85,618.87,496.77Z" style="fill:#202020"/><path d="M451.55,257.78c-13.11-58.44-31.66-111.15-52.22-152.52A64.59,64.59,0,1,0,359,151.07c19.17,36,33.16,77.08,43.16,116.22a25.41,25.41,0,0,0,50.8-1.08c0-.81,0-1.6-.11-2.39A25.11,25.11,0,0,0,451.55,257.78ZM299.78,76.09c-4.15,14.43-15.63,18.79-20.61,15.3s-5.1-14,1.92-25.41,16.06-13,16.06-13C308.29,53.3,303.93,61.65,299.78,76.09Z" style="fill:#202020"/><path d="M693.81,26.05A64.5,64.5,0,0,0,631,105.26c-20.56,41.37-39.11,94.08-52.22,152.52a25.11,25.11,0,0,0-1.33,6c-.07.79-.11,1.58-.11,2.39a25.41,25.41,0,0,0,50.8,1.08c10-39.14,24-80.18,43.16-116.22a64.54,64.54,0,1,0,22.54-125Zm-50,85.06c-6-1-10.14-13.23-8-31s10-25.27,10-25.27c10.55-6.49,9.7,6,11.38,25.53S649.86,112.12,643.85,111.11Z" style="fill:#202020"/><text transform="translate(304.94 139.21)" style="font-size:12px;font-family:MyriadPro-Regular, Myriad Pro">piano <tspan x="31.21" y="0" style="letter-spacing:-0.005940755208333333em">c</tspan><tspan x="36.52" y="0">omposition ba</tspan><tspan x="109.27" y="0" style="letter-spacing:0.003987630208333333em">r</tspan><tspan x="113.24" y="0" style="letter-spacing:-0.010009765625em">r</tspan><tspan x="117.05" y="0" style="letter-spacing:0.00008138020833333333em">e</tspan></text></g></g></svg>