<svg xmlns="http://www.w3.org/2000/svg" viewBox="0 0 1030.75 1030.75"><g id="eec23081-0769-449f-be8c-3d4c3655fadd" data-name="Layer 2"><g id="a98d7233-16db-484d-bd02-371eb022711f" data-name="Gray Scale"><rect x="0.38" y="0.38" width="1030" height="1030" style="fill:none"/><path d="M204.38,608.12a19.52,19.52,0,0,0-13.63-1.1c-68,20.15-123,80-136.66,149.72-2.49,12.78-2.69,28.34,7.73,36.16,4.35,3.26,9.86,4.52,15.22,5.49,42.67,7.71,89.07,1.25,124.37-23.92s57.12-70.64,48.23-113.08c-3.24-15.46-10.6-30.45-22.77-40.51C219.45,614.74,210.11,610.72,204.38,608.12Z" style="fill:#e4e4e4"/><path d="M768.88,639.38c-7.09,22.6-3,35.43,4.8,52.45s22.1,30.12,36.54,42c41.69,34.46,91.28,64.26,145.37,64.39,3,0,6.15-.14,8.58-1.86,2.66-1.88,3.81-5.23,4.56-8.4,4.22-18,.16-36.92-5.65-54.47C944,676,900.67,622,841.24,610.29c-13.44-2.63-27.64-3-40.57,1.55S772.69,627.21,768.88,639.38Z" style="fill:#e4e4e4"/><path d="M1022.22,575.46l-33.13-22.59-.17-40.1a9.54,9.54,0,0,0-3.87-7.69l1.52-1.66,9.7-10.6,17.35,2.39a4.23,4.23,0,0,0,4.27-6.28l-8.64-15.2,7.66-15.74a4.23,4.23,0,0,0-4.66-6l-17.17,3.52-5.46-5.24h0l-7.16-6.87a4.25,4.25,0,0,0-7.15,2.58l-2,17.38-15.45,8.25a4.22,4.22,0,0,0,.24,7.58l16,7.23,3,16.91a9.77,9.77,0,0,0-3.8,1.81l-31.72,24.53L925,524.38h0l-21.65-6.93A9.7,9.7,0,0,0,891.29,530l13.52,37.75-23.43,32.53a9.71,9.71,0,0,0,8.17,15.37l40.07-1.2,23.71,32.34a9.71,9.71,0,0,0,17.14-3l2-6.89,9.23-31.59,38.08-12.56A9.7,9.7,0,0,0,1022.22,575.46Z" style="fill:#a7a7a7"/><path d="M1012.2,645.45l-11.58-2.64-4.39-11a2.87,2.87,0,0,0-5.13-.41L985,641.56l-5.13.34h0l-6.72.43a2.87,2.87,0,0,0-2,4.76L979,656l-2.93,11.5a2.88,2.88,0,0,0,3.91,3.36l10.92-4.68,10,6.35a2.88,2.88,0,0,0,4.4-2.69l-.19-2.12-.88-9.7,9.14-7.59A2.87,2.87,0,0,0,1012.2,645.45Z" style="fill:#a7a7a7"/><path d="M195.52,478.6,157.89,453l-.18-45.53A11,11,0,0,0,140,398.85l-36,27.91-18.78-6h0L60.53,413A11,11,0,0,0,46.8,427.18L62.15,470,35.52,507a11,11,0,0,0,6.2,17.11l-13.6,10.52-7.33-2.34h0l-9.59-3.07a4.3,4.3,0,0,0-5.36,5.54l6,16.73L1.45,565.91a4.3,4.3,0,0,0,3.62,6.81l17.76-.53,10.5,14.33a4.3,4.3,0,0,0,7.59-1.34l.89-3,4.09-14,16.87-5.56a4.3,4.3,0,0,0,1.08-7.64l-14.68-10-.08-17.76A4.23,4.23,0,0,0,48,524.34L90.32,523l26.92,36.68a10.86,10.86,0,0,0,9.69,4.44l-6,10.12-5.13.33h0L109,575a2.87,2.87,0,0,0-2,4.75l7.82,9-2.94,11.5a2.88,2.88,0,0,0,3.92,3.35l10.91-4.67,10,6.35a2.88,2.88,0,0,0,4.4-2.69l-.2-2.12-.88-9.71,9.14-7.58a2.87,2.87,0,0,0-1.2-5l-11.57-2.64-4.39-11a2.84,2.84,0,0,0-1.2-1.39,10.86,10.86,0,0,0,5.81-6.85l2.29-7.83L149.5,512.5l43.26-14.34A11,11,0,0,0,195.52,478.6Z" style="fill:#a7a7a7"/><path d="M520.58,227.4c-275.43.2-318.27,194.63-318.2,294.69C202.49,665,371.09,738.41,515.54,738.31c143.34-.11,313-73.74,312.84-216.67C828.31,430.57,776.15,227.21,520.58,227.4Z" style="fill:#e4e4e4"/><path d="M509.45,603.33c-23,2.09-36.85,8.13-42.43,15.46-14.38,18.89,33.35,71.31,48.3,69.8,20.61-2.08,60.86-59.37,51.27-72.88C560.5,607.12,543.07,600.29,509.45,603.33Z" style="fill:#909090"/><circle cx="361.66" cy="635.66" r="45.69" style="fill:#a7a7a7"/><circle cx="699.09" cy="635.41" r="45.69" style="fill:#a7a7a7"/><path d="M581.52,215.5c-.88,6.48-.19,13-3.09,20.46A52.48,52.48,0,0,1,567,253.51c-9.11,9.28-23.86,18.28-36.69,11.12a27.54,27.54,0,0,1-9.2-9c1.65-1.47,3.38-2.9,4.94-4.4,12.21-11.75,24.44-26,30.08-42.24,4.49-12.91,2.58-27.55-11.58-33.11-19.37-7.59-39.73,16.21-47.95,30.92-7.37,13.21-6.67,30.37-1.25,45.44a76.37,76.37,0,0,1-10.32,5c-4.38,1.7-8.46,2.74-12.53,2-7.8-1.32-15.59-6.35-18.18-14.06-3-9-.77-19.54,1.72-28.37,3.25-11.52,8-22.75,14.88-32.57,14.84-21.22,37.49-31.88,62.47-36.2,9.38-1.62,7.21-16.08-2.21-14.63-27.66,4.24-53.75,15.7-72.13,37.34-15.93,18.75-28.82,47-25.86,72.13,2.69,22.9,25.72,40.31,48.65,35.16a72.82,72.82,0,0,0,22-9.42,59.21,59.21,0,0,0,4.35,5.66c18.21,20.3,46.51,17,67.26,2.67a78.94,78.94,0,0,0,24.83-28.77c5.64-10.91,9.88-24.84,3.75-36.25C598.54,201.92,583.16,203.44,581.52,215.5Zm-68.9,6.11c.3-3,.65-4,2.47-7.73a64.58,64.58,0,0,1,6.39-10.12c3.57-4.78,9.55-12.84,16-13.62a6,6,0,0,1,4.29,1.18c.11.07.26.17.84,1-.73-1.1.09.83.36,1.19.76,3.22-.35,7-1.91,10.74-4.77,11.52-13.71,21.67-22.65,30.17-1.44,1.37-3,2.68-4.47,4A54,54,0,0,1,512.62,221.61Z" style="fill:#a7a7a7"/><ellipse cx="362.88" cy="534.02" rx="117.9" ry="117.89" transform="translate(-184.25 191.23) rotate(-23.73)" style="fill:#f4f4f4"/><ellipse cx="678.08" cy="534.02" rx="117.9" ry="117.89" transform="translate(-157.59 318.09) rotate(-23.73)" style="fill:#f4f4f4"/><path d="M276.66,776.13c7.25,0,52.17-64.25,59.49-64.26S508.5,818.37,519.28,817.1c7.68-.9,45.71-64.65,54.81-66.3,11.8-2.14,84.82,41.42,92.58,41.42,5.64,0,80.39-90.49,124.67-140,.56-14.11.82-23.45.61-25-57.82,73.43-173.48,111-275.77,111C413,738.38,297.58,701,239.94,627.55c-1.71,10.3-8.55,27.11-9.35,37.26C234.13,678.85,269.41,776.14,276.66,776.13Z" style="fill:#e4e4e4"/><path d="M825.28,491c-.68-6.44-4.54-11.44-10.88-14.06-10.41-4.3-29-2-51.48,4.19a107,107,0,0,0-189.54,98.52c-.59.88-1.15,1.76-1.64,2.64-53.84-21.25-89-8.56-103.09-1l0-.06a107,107,0,0,0-189.06-99.68c-23.11-6.54-42.36-9-53-4.61-6.34,2.62-10.2,7.62-10.88,14.06-3.19,30.44,31.92,83.76,68.26,120.7,16,16.25,55.79,53,88.86,53,1.26,0,2.51,0,3.74-.16,38.94-3.45,86.61-25.64,95.75-55.49a33.33,33.33,0,0,0,1.06-15.3c10-5.89,41.89-19.76,94.1,1A33.41,33.41,0,0,0,568.67,609c9.14,29.85,56.82,52,95.75,55.49,1.24.11,2.48.16,3.74.16,33.07,0,72.87-36.72,88.86-53C793.36,574.74,828.47,521.42,825.28,491Zm-507-35.12c18.46-12.3,67.66-18.45,80,0s-24.6,36.91-43.05,49.21c-1.51,1-3.11,2.05-4.77,3.12a599.5,599.5,0,0,0-58.71-23C299.37,473,310.05,461.35,318.28,455.86Zm276.79,18.45c12.3-18.45,36.9-30.75,43-24.6,9.73,9.73-8,35.29-18.45,49.21-18.45,24.6-36.9,43.05-43,30.75S580.59,496,595.07,474.31Z" style="fill:#3b3b3b"/><path d="M447.36,577c-39.45-32.07-163.54-89.41-206.3-89.41a25.29,25.29,0,0,0-9.47,1.46c-2.39,1-2.69,2.11-2.81,3.26-2.37,22.54,26,70.9,64.54,110.09,31.85,32.37,62.51,50.68,82.06,48.94,38.42-3.4,77.82-25,84.33-46.23C462.65,595.54,458.49,586.09,447.36,577Z" style="fill:#d2d2d2"/><path d="M809.37,489.09a25.29,25.29,0,0,0-9.47-1.46c-42.75,0-166.84,57.34-206.29,89.41-11.14,9.05-15.29,18.5-12.35,28.11,6.5,21.22,45.9,42.83,84.32,46.23,19.51,1.73,50.21-16.57,82.06-48.93,38.56-39.2,66.91-87.56,64.54-110.1C812.06,491.2,811.76,490.08,809.37,489.09Z" style="fill:#d2d2d2"/><path d="M823.85,648.92c-.1-9.24-1.31-28.08-1.31-28.08-10,0-148.65,171.37-156.41,171.38s-80.78-43.56-92.59-41.42c-9.09,1.65-47.12,65.4-54.8,66.3C508,818.37,342.93,711.87,335.61,711.87s-52.24,64.26-59.49,64.26S232.33,673,232.33,673s-18.89-69.16-20.08-58.27c-.75,6.88-1.34,22.79-1.16,39.76.06,6,.21,11.83.42,17.66,7.38,211.68-5.15,320.16,309.81,320.16C824.05,992.31,826.25,871.21,823.85,648.92Z" style="fill:#a7a7a7"/><path d="M823.85,648.92c-.1-9.24-1.31-28.08-1.31-28.08-10,0-148.65,171.37-156.41,171.38s-80.78-43.56-92.59-41.42c-9.09,1.65-47.12,65.4-54.8,66.3C508,818.37,342.93,711.87,335.61,711.87s-52.24,64.26-59.49,64.26S232.33,673,232.33,673s-18.89-69.16-20.08-58.27c-.75,6.88-1.34,22.79-1.16,39.77.06,6,.21,11.82.41,17.65,1.17,33.42,1.84,64.26,3.38,92.51,9.15,10.27,39.12,29.67,52,35.09a94.5,94.5,0,0,0,20,5.89c6.67,1.24,14.06,1.5,21.36,1.81a173.83,173.83,0,0,0,43-4.53,168.2,168.2,0,0,0,20.45-6.32c3.3-1.3,6.54-2.67,9.66-4.18a79.34,79.34,0,0,0,8.35-4.56,15.42,15.42,0,0,1,20.55,3.4l.8,1A165.61,165.61,0,0,0,422.05,805c4,4.26,8.25,8.29,12.62,12.15a171.42,171.42,0,0,0,28.2,19.95c9.82,5.84,20.4,9.7,31,12.63l8.08,1.8c2.7.53,5.45.62,8.18,1,5.43,1,10.94.33,16.42.48a114.63,114.63,0,0,0,61.77-21.95,156.45,156.45,0,0,0,25.76-22.7c3.87-4.33,7.62-8.78,11-13.48,3.43-4.47,10.55-13.56,10.93-14.06,14.79,7.64,27.09,13.89,30,13.89.83,0,3.19-2,6.74-5.54.9.53,15.43,5.26,22.23,7a90.76,90.76,0,0,0,42,1.87A138.5,138.5,0,0,0,779,782.25c13.22-7.34,31.66-21.27,43.3-31.47-.71,10.93-.5,21.45-1.78,30.89-6.23,5.61-22.7,16.43-29.68,21.27-14.29,9.74-30.17,15.79-47.92,20.45s-36.78,5.33-54.89,1a120.11,120.11,0,0,1-26.19-9.24c-2.91-1.4-5.68-3.07-8.48-4.7-.69,1-1.32,2-2,3.08-3.92,5.71-8.2,11.12-12.66,16.41A184,184,0,0,1,608,858.44a149,149,0,0,1-79.76,29c-7.22-.11-14.49.39-21.65-.81-3.58-.47-7.2-.73-10.74-1.45l-10.52-2.44c-13.79-3.87-27.21-9.11-39.23-16.38a197.47,197.47,0,0,1-33.29-25c-5-4.7-9.87-9.57-14.42-14.75-1.76-2-3.38-3.93-5-5.9-3.81,1.6-7.63,3-11.49,4.31a197.42,197.42,0,0,1-24.75,6.33,193,193,0,0,1-50.41,1.94A154,154,0,0,1,281.57,829a113,113,0,0,1-24.23-9.61c-10.49-5.71-32.17-14.82-40.21-23.2,2.74,29.83,7.29,56.3,15.65,79.38,9.17,7.95,31.48,15.63,38.9,16.93,7.25,1.35,15.26,1.63,23.18,2a188.41,188.41,0,0,0,46.69-4.92,183.33,183.33,0,0,0,22.19-6.85c3.57-1.42,7.09-2.9,10.47-4.53a89.67,89.67,0,0,0,9.07-4.95,16.73,16.73,0,0,1,22.3,3.68l.86,1.09a177.94,177.94,0,0,0,11.89,13.87c4.33,4.62,8.94,9,13.69,13.18a184.87,184.87,0,0,0,30.6,21.64c10.65,6.34,22.13,10.53,33.68,13.72l8.77,2c2.93.57,5.91.67,8.87,1.06,5.89,1,11.87.35,17.81.51a124.31,124.31,0,0,0,67-23.81,169.21,169.21,0,0,0,27.94-24.63c4.2-4.7,8.27-9.52,12-14.62a157.61,157.61,0,0,0,10-15.11l.7-1.17a16.82,16.82,0,0,1,23-6,17.65,17.65,0,0,1,3.26,2.51,67.87,67.87,0,0,0,8,6.44,89.66,89.66,0,0,0,9.69,6,100.2,100.2,0,0,0,66.78,10.68c15.27-2.89,29-9.29,43.47-17.5-3.26,8.77-9.22,23.16-16.68,34.71-6.41,3.89-11.3,7.85-20.57,10.28-19.1,4.9-39.91,5.79-59.56,1.11a130.3,130.3,0,0,1-28.42-10c-3.16-1.52-6.17-3.34-9.2-5.1-.75,1.1-1.44,2.22-2.22,3.35-4.26,6.18-8.9,12.06-13.75,17.8a200.11,200.11,0,0,1-33.17,30.91,161.77,161.77,0,0,1-86.55,31.42c-7.84-.11-15.73.43-23.49-.88-3.88-.51-7.82-.79-11.65-1.56L487,976.14c-15-4.2-29.53-9.89-42.57-17.78a212.92,212.92,0,0,1-36.12-27.11c-5.46-5.1-10.71-10.38-15.65-16-1.91-2.13-3.67-4.27-5.45-6.41-4.14,1.74-8.29,3.28-12.47,4.68a215,215,0,0,1-26.86,6.87,209.65,209.65,0,0,1-54.7,2.11c-9-.93-31-4.61-39.83-7.71,37.94,51.47,113.63,77.52,268,77.52C824,992.31,826.25,871.21,823.85,648.92Z" style="fill:#d3d3d3"/><g style="opacity:0.33000199999999996"><path d="M405.1,831c40.59,40.47,54.52,91.44,31.11,113.87s-75.27,7.8-115.86-32.66-54.52-91.44-31.11-113.86S364.52,790.49,405.1,831" style="fill:#fff"/></g><path d="M329.59,860.76a29.3,29.3,0,0,0,.14,8.61c-.75,13-.78,26.16-2.16,39.16-.63,5.9-1.3,11.85-1.86,17.81-1.58-3.32-3.09-6.67-4.77-9.93-5.81-11.3-11.88-23.16-20.8-32.36-2.15-2.23-6.41.2-5.89,3.15,2.15,12.22,8.3,23.62,13.52,34.74,3.21,6.83,6.33,13.68,9.24,20.63-6.8-3.13-13.6-6.24-20.33-9.51-11.6-5.65-23.69-11.63-35.95-15.67a3,3,0,0,0-3.68,4.49c.74,1.25,1.57,2.45,2.44,3.64a3.54,3.54,0,0,0,.41,1.12c3.67,5.89,9.23,9.88,15.12,13.52a105.17,105.17,0,0,0,9.87,6,64.42,64.42,0,0,1,5.91,4.16c5.27,4.27,10.31,8.71,16.1,12.28a57.83,57.83,0,0,0,9.91,5c3.38,3.16,7.16,6.57,11.3,7.93,6.12,2,12.88.7,16.88-4.6,6.75-9,4.48-23.33,4.13-33.77-.48-14.13-.41-28.24-1.52-42.35-1-12.15-.38-25.27-5.34-36.65C339.32,851.47,330.7,854.89,329.59,860.76Z" style="fill:#909090"/><path d="M796.26,901a4.47,4.47,0,0,0-6-3.16c-4,1.45-7.56,4.23-11.23,6.43-3.82,2.28-7.81,4.27-11.66,6.51-7.27,4.21-14.65,8.28-21.35,13.4-3.3,2.51-6.46,5.18-9.6,7.86,2.61-4.84,5.16-9.72,7.53-14.69a194.53,194.53,0,0,0,8.86-21.69c2.29-6.81,5.56-14,6.57-21.15.52-3.64-3.6-6.2-6.76-4.79-6.87,3.08-11.18,10.54-14.52,16.93-3.59,6.88-6.58,14-10.11,21-2.86,5.62-5.68,11.25-8.51,16.88-.48-3.56-1-7.12-1.56-10.68-1.06-6.84-2.11-13.68-2.87-20.56-.74-6.55-.43-14.22-4.09-20-.93-1.45-2.89-1.21-4.07-.25-3.18-.65-7,.85-7.6,5-2.14,14.31-2.15,28.74-1.42,43.17.35,7.08.91,14.15,1.48,21.22.5,6.27.44,12.81,1.33,19,2,14.31,17.85,9.85,26.36,4.57,11.95-7.41,22.58-16.75,33.38-25.68,12.42-10.26,26.11-19.51,35.83-32.58A5.36,5.36,0,0,0,796.26,901Z" style="fill:#909090"/></g></g></svg>