<svg xmlns="http://www.w3.org/2000/svg" viewBox="0 0 1030 1030"><g id="b989c468-727c-4629-aef3-933ade6fcb70" data-name="Layer 2"><g id="a3cb36fe-1b54-41dc-940d-fe9622c1bcbc" data-name="Gray Scale"><path d="M517.57,237.41c-275.42,0-318.41,194.39-318.41,294.46,0,142.93,168.55,216.44,313,216.44,143.34,0,313-73.51,313-216.44C825.16,440.8,773.15,237.41,517.57,237.41Z" style="fill:#4a4a4a"/><path d="M803.77,787.93c-4.18-23.76-18-116.74-21.75-143.2-27.58,32.52-72.52,60-118.06,76.73-48,17.6-101,27-150.83,27-50.23,0-103.37-8.9-151.33-26.5-45.54-16.72-87.14-40.18-121-78.74C229.35,701,222.6,763.8,219.93,787.93c-2.44,22.07-3.1,47.77,2.65,73.58,5.06,22.69,15.09,45.46,33.26,65.92,37,41.7,112.23,76.89,259.57,76.89,159.15,0,224.23-35.7,260.07-76.89,17.79-20.45,26.74-43.21,30.46-65.92C810.15,835.75,807.66,810.07,803.77,787.93Z" style="fill:#4a4a4a"/><path d="M980.86,586.37l-4.64-1.15A24.87,24.87,0,0,0,973,567.86c-8.71-15.34-23.39-31.68-14.61-49s5.66-34.26-15.81-39.54-32.1,8.29-32.33,27.68-20.83,27.05-35.68,36.59a24.82,24.82,0,0,0-10.86,13.91l-4.69-1.15a8,8,0,0,0-9.63,5.82L842,592.34a8,8,0,0,0,5.78,9.61,24.24,24.24,0,0,0-2.22,5.74l-38,153.48a24.5,24.5,0,0,0,17.84,29.56l75.94,18.78A24.49,24.49,0,0,0,931,791.66l37.95-153.47a24.37,24.37,0,0,0,.7-6.25h0a8,8,0,0,0,9.63-5.83L986.68,596A8,8,0,0,0,980.86,586.37ZM925.27,484.63c5.54-2.47,11.86-1.09,14.15,3.08s-.35,9.53-5.88,12-11.85,1.08-14.13-3.09S919.76,487.09,925.27,484.63Z" style="fill:#d2d2d2"/><path d="M190.48,663.38a73.7,73.7,0,0,0-23.56-36.13c-6,5.89-11.5,8-15.13,8.86a26.49,26.49,0,0,1-4.88.71c-.11,0-7-19-13.91-38.1a114.53,114.53,0,1,0-1.1.17c6.93,19.22,13.7,38,13.68,38-10.23,0-18.12-5.46-28.76-2.11a28,28,0,0,0-12,7.85,73.59,73.59,0,0,0-.58,43.35L131,777.81c2.76,9.5,12.14,15.13,20.95,12.57l53.65-15.59c8.81-2.56,13.71-12.35,10.95-21.85Zm-23-185.56c-2.89,7,4.07,9.15,4.07,9.15C161.23,485.47,167.5,477.82,167.5,477.82Zm2.88,45.93c6.37,7.36,10.94,3.18,10.94,3.18C176.75,533,170.38,523.75,170.38,523.75Zm21.68,10.15c12,14.62,17.31,9.69,17.93,9C202.93,551.88,192.06,533.9,192.06,533.9Zm-4.48-47.53c23.66-6.76,24.46,10.74,24.46,10.74C207.36,482,187.58,486.37,187.58,486.37Zm26.34-37.48c-3.08-7.36-15.21,2.78-15.21,2.78C212.92,438.25,213.92,448.89,213.92,448.89Zm-19,17.73c.75-1.05,1.71-1.65,2.13-1.34s.16,1.4-.59,2.44-1.71,1.65-2.14,1.35S194.2,467.67,195,466.62Zm-8.56-21.11c.5-.69,1.13-1.08,1.41-.88s.1.92-.39,1.61-1.13,1.08-1.41.88S185.9,446.2,186.39,445.51ZM185,462.86c-3.42-7.91-10.79-2.74-10.79-2.74C183.5,452.27,185,462.86,185,462.86Zm-2.64-43.7c-1.69-5.57-8.15,1.19-8.15,1.19C182.11,411,182.31,419.16,182.31,419.16Zm-8.15,17.7c-8.06-9.15-12,5.07-12,5.07C166,424.53,174.16,436.86,174.16,436.86Zm-8.46-21.63c-6.26-6.9-18.68,3.93-18.68,3.93C162.07,404.48,165.7,415.23,165.7,415.23Zm-2,149.19c-13.72,7.45-18.49-12.33-18.49-12.33C151.59,568.89,163.72,564.42,163.72,564.42Zm-20.28,18.89c-13.12,1.79-10.54-17.7-10.54-17.7C133,583.66,143.44,583.31,143.44,583.31Zm-7.26-36.69c-6.76,4.87-8.45-9.24-8.45-9.24C130.91,548.61,136.18,546.62,136.18,546.62Zm-9.87-148.55c.66-1,1.47-1.65,1.82-1.43s.09,1.23-.57,2.24-1.47,1.66-1.81,1.43S125.65,399.08,126.31,398.07Zm5.2,10.95s-8.55-.86-12.82,12.14C118.69,421.16,122.16,404.55,131.51,409Zm-17.15-26s-7.86-.06-4,10.42C110.36,393.4,103.72,381.9,114.36,383ZM76.61,404.34c1-1.49,2.48-2.27,3.26-1.74s.58,2.17-.44,3.67-2.49,2.27-3.26,1.74S75.59,405.84,76.61,404.34Zm-68.75,68c.6-1.23,1.59-2,2.22-1.67s.66,1.55.07,2.77-1.59,2-2.22,1.67S7.27,473.57,7.86,472.34ZM5.55,503.1c-2.64-8.29,7.71-6.73,7.71-6.73C4,496.57,5.55,503.1,5.55,503.1Zm21.21-42.78s-5.34,3.32-2.23,14.12C24.53,474.44,18.63,462.86,26.76,460.32Zm-2,28.7c-.34.7-.91,1.14-1.27,1s-.38-.89,0-1.6.91-1.14,1.27-1S25.11,488.31,24.76,489Zm2.68,20c-.34.7-.91,1.13-1.27,1s-.39-.89,0-1.6.91-1.14,1.27-1S27.78,508.29,27.44,509Zm6.8-65.86c.3-1.06,1-1.79,1.53-1.63s.76,1.14.46,2.19-1,1.79-1.54,1.63S33.94,444.19,34.24,443.14Zm2.21,53.67s-5.66-6,2.29-6.26C38.74,490.55,33,491.25,36.45,496.81Zm6.87,21.68s-5.57-4.59,1.88-8.9C45.2,509.59,39.84,513.32,43.32,518.49Zm7.9-71.11c-8.49-5.27.88-11.42.88-11.42C45.46,443.18,51.22,447.38,51.22,447.38Zm2.1-36.1s-9-5.47,0-10.25C53.32,401,46.84,405.41,53.32,411.28Zm1.29,15.24c-.47-.32-.35-1.31.27-2.22s1.5-1.38,2-1.06.35,1.32-.27,2.23S55.08,426.85,54.61,426.52ZM59.26,543c-.6,1.24-1.6,2-2.24,1.69s-.67-1.57-.07-2.81,1.6-2,2.24-1.69S59.86,541.71,59.26,543Zm5.53-25.85s-4.67,2.38,0,6.76C64.79,523.86,58.23,519.78,64.79,517.1Zm.89,46.51c-.42.89-1.14,1.43-1.6,1.21s-.48-1.12,0-2,1.15-1.43,1.6-1.21S66.11,562.72,65.68,563.61Zm8.66-128.13c-6.74-9.57,2.94-11.42,2.94-11.42C70,427.57,74.34,435.48,74.34,435.48Zm3.38,105.28c-4.38,15.61,5.27,17.5,5.27,17.5C71.06,557.07,77.72,540.76,77.72,540.76ZM83,578.16c-.93,11.89,6.92,11.55,6.92,11.55C78.93,591.52,83,578.16,83,578.16ZM96.21,529c-.69,5.37,2,6.26,2,6.26C93.83,535,96.21,529,96.21,529Zm1-120.19s-6.05-16.11,5.37-10.06C102.55,398.78,93.76,394.59,97.18,408.84Zm6.59,139.48c1.29,13.89,12.43,13.81,12.43,13.81C102.08,563.43,103.77,548.32,103.77,548.32Z" style="fill:#4a4a4a"/><path d="M115,372.29a115,115,0,1,0,115,115A115,115,0,0,0,115,372.29Zm100.23,76.22c3.11,13.82-23.79,7.32-23.79,7.32C213.74,433.3,215.23,448.51,215.23,448.51Zm-12.75,23.83c-2.44,2.54-6.11,3-8.19,1s-1.79-5.68.65-8.22,6.12-3,8.2-1S204.93,469.8,202.48,472.34Zm-16-28c1.74-1.81,4.24-2.22,5.59-.92s1,3.81-.71,5.62-4.24,2.21-5.58.92S184.76,446.17,186.49,444.36Zm-2.76-26.12c4.3,9.65-16.32,8.84-16.32,8.84C180.42,407.33,183.73,418.24,183.73,418.24ZM126,397a4.24,4.24,0,1,1-.09,6.2A4.39,4.39,0,0,1,126,397Zm-12.55-15.49c13.57.09,1.69,23.78,1.69,23.78C98.89,379.62,113.41,381.52,113.41,381.52ZM76.25,402.76a7.63,7.63,0,1,1,.53,10.43A7.4,7.4,0,0,1,76.25,402.76Zm-24.39-2.13c12.67-8.41,16.3,20.48,16.3,20.48C37.18,408,51.86,400.63,51.86,400.63Zm8.85,28.48a4.23,4.23,0,1,1,0-6.15A4.35,4.35,0,0,1,60.71,429.11ZM34.25,441.53c1.68-1.74,4.72-1.53,6.8.47s2.41,5,.73,6.79-4.72,1.53-6.81-.47S32.57,443.28,34.25,441.53Zm-26.33,29a5.63,5.63,0,0,1,8.11,7.8,5.63,5.63,0,0,1-8.11-7.8Zm-4,32.22c-2-13.57,22-5.64,22-5.64C4.4,517.6,3.92,502.76,3.92,502.76Zm19.32-15.48a3,3,0,1,1,.17,4.07A2.9,2.9,0,0,1,23.24,487.28Zm8.88,25c-1.79,1.85-4.5,2.15-6,.65s-1.38-4.22.41-6.08,4.5-2.15,6.06-.65S33.91,510.44,32.12,512.3Zm25.05,37.42a7,7,0,1,1,10-.16A7.06,7.06,0,0,1,57.17,549.72Zm15,17.06c-2.5,2.6-6.19,3.11-8.24,1.14s-1.69-5.68.82-8.28,6.19-3.11,8.24-1.14S74.64,564.18,72.13,566.78Zm16.09,24.55c-9-.37-7.4-9.46-7.4-9.46l2.52-18.64c4.27,4.81,8.56,14.52,8.56,14.52C97.41,591.54,88.22,591.33,88.22,591.33Zm54.15-7c-18.5-.29-8.29-29.53-8.29-29.53C159.15,585.51,142.37,584.3,142.37,584.3Zm69.16-41c-9.41,13.78-25.41-14.63-25.41-14.63C223.46,529.76,211.53,543.27,211.53,543.27Zm3.72-43.38c-2.91,29.43-33.22,9.24-33.22,9.24-9.79-6-12.76-1.61-12.76-1.61-3.62,4,5.46,6.53,5.46,6.53,13,4.21,8.6,11.47,8.6,11.47-5.24,10.33-12.39.9-12.39.9-7.21-7.37-11.29-4.24-11.29-4.24-5.05,3.25,2,12.58,2,12.58,15.63,26.35,1.68,31.08,1.68,31.08-20.16,9.42-21.4-26.78-21.4-26.78-.14-12.95-6.6-11.47-6.6-11.47-6.21,3-.63,9-.63,9,7.14,9.22.76,11.63.76,11.63-7,3.3-8.54-9.08-8.54-9.08-2.25-15-8.32-13.77-8.32-13.77-5.32.43,2.76,16.75,2.76,16.75,9.51,22.81-4.63,21.8-4.63,21.8C92.8,564.15,105.94,535,105.94,535c2.29-5.26-.24-6.63-.24-6.63-2.86-1.47-3.32,2.78-3.32,2.78-1.3,5.58-4,5.3-4,5.3-5.45-.33-3.6-6.45-3.6-6.45,1-4.37-1.58-4.8-1.58-4.8-6.07-.79-.86,12.65-.86,12.65C98.66,559.39,84,559.28,84,559.28c-19.1.1-3.92-28.09-3.92-28.09,3.68-8.49-1.26-10.45-1.26-10.45-4.79-3.24-5.91,1.48-5.91,1.48-3.66,7.58-8.88,2.34-8.88,2.34-6.3-5.2-.48-8.14-.48-8.14,5-3,2.18-5.59,2.18-5.59-4.79-5.68-8.66,2.56-8.66,2.56-9.19,14-15.79,4.65-15.79,4.65-4.39-7.64,8.46-12.78,8.46-12.78,9.49-4.1,7-8.62,7-8.62-1.92-3.77-9-.15-9-.15-13.48,6.46-14.07-1.8-14.07-1.8-1.11-6.83,9.77-6.82,9.77-6.82,7.72-.26,7.06-6,7.06-6-2.11-8-14.11-4-14.11-4-15.5,2.8-15.09-9.83-15.09-9.83-1.47-19.34,28.76-3.49,28.76-3.49,12.52,6.07,13.78-1.68,13.78-1.68,1.7-8-7.83-11.38-7.83-11.38-17.22-7.39-6.4-15.76-6.4-15.76,10.74-6.73,18,7,18,7,5.17,8.82,8.58,5.06,8.58,5.06,3.73-3.88-.84-9.56-.84-9.56-10.56-11.87,0-14.9,0-14.9C87,420,85.57,431.68,85.57,431.68c-.55,5.23,3.9,5,3.9,5,4-.18,6.1-5.66,6.1-5.66,4.26-10.42-1.24-24.46-1.24-24.46-2.37-15.94,10-9,10-9,8.47,5,3.82,23.54,3.82,23.54-.82,8.17,3.53,7.87,3.53,7.87,5.64-.54,5.31-6.41,5.31-6.41a29.28,29.28,0,0,1,2.45-8.75c6.27-13,16.68-3.37,16.68-3.37,7.2,6.28-7.27,17.55-7.27,17.55-3.08,3.86,1.3,5.74,1.3,5.74,3.3,1.67,8.15-6.25,8.15-6.25L146,417.24c13.46-13.09,20.47-4.85,20.47-4.85,7.55,7.68-4.42,13-4.42,13a58.61,58.61,0,0,0-11.37,8.48c-6,8.06-.32,11.65-.32,11.65,7.74,6.38,11.37-8.49,11.37-8.49,5.32-11.52,14-1.25,14-1.25,11.21,11.86-7.1,15.81-7.1,15.81-10.25,4.22-7.67,8-7.67,8,3,5.92,11.51-.66,11.51-.66,10.3-7.81,13.74,1.48,13.74,1.48,3.44,9.28-9,12.25-9,12.25-9,3.54-8.22,8.31-8.22,8.31-.59,8.61,20.06,2.23,20.06,2.23C216,478,215.25,499.89,215.25,499.89Z" style="fill:#fff"/><rect width="1030" height="1030" style="fill:none"/><path d="M800.56,502.42c-17-6-17.19-30-27.91-44.51-8.19-11.07-22.33-15.91-35.88-18.32s-27.63-3.07-40.31-8.44-24-17.12-23.5-30.87c.78-21.14,27.23-33.35,30.81-54.21,1.73-10.08-2.3-20.14-3.81-30.26-1.35-9,.36-19.74,7.33-24.9-45.25-32.07-106.76-53.5-189.72-53.5-66.39,0-119.27,11.3-161.3,29.84,9.77-2.5,18.38-8.07,29-5.52,38.43,9.24,32.65,77.63,17.58,102.17-12.88,21-35.65,35.6-60.32,34.7A40,40,0,0,1,331,417c-6.85,6.51-16,11.34-25.44,10.33-11.46-1.25-20.39-10.81-25.52-21.14-1.53-3.07-2.89-6.37-5.45-8.65-5.67-5-14.36-3.18-21.9-3.93a28.14,28.14,0,0,1-9.3-2.66c-5.27,1.85-10.5,3.17-15.69,2.83-22.44,49.13-28.57,100.34-28.57,138.12,0,66.28,36.24,117.62,89.52,153.64a64.89,64.89,0,0,0-4.2-8.77c-5.34-8.22-20.93-13.5-22.23-23.46-1.15-8.82,7.5-13,13.4-17.38,5.62-4.21,9.07-9.4,8-16.47-1.27-8.28-4.64-27.62,10.51-21.11,10.8,4.64,11.91,17,14.39,27a43.36,43.36,0,0,0,1.93,5.94,36.43,36.43,0,0,0,24.33,21.41c16.87,4.35,39.13-16.88,53.68-2.5,7.39,7.31,5.48,19.91,2,28.74-1.71,4.37-3.9,9.92-7.21,13.33-4.56,4.68-11.67,5-17.68,6.34a42.85,42.85,0,0,0-16.91,8c-3.07,2.4-6.48,5.36-10,6.32,53.37,23.53,115.38,35.43,173.49,35.43,143.34,0,313-73.51,313-216.44a285.37,285.37,0,0,0-1.84-31.47C815.6,502.89,808,505.05,800.56,502.42Zm-183-176.13c-6.62-1-13.47-3.06-19.85-1-7.32,2.34-11.89,9.37-17.17,15-24.38,25.79-76.09,25.25-82.06-15.92-3-20.66,9.29-41.66,27.12-51.72,18.5-10.44,34.43-4.72,51.9,4.34,9,4.68,16.57,6.05,26.45,4.53,11.34-1.74,21.89-4.73,30.65,5.51C647.27,301.8,639.13,329.5,617.55,326.29ZM760.73,643.34c-4.32,9.14-6.11,19.14-12.08,27.59-12.19,17.27-44,24.29-63.11,17.76-10-3.41-19-11.18-20.39-21.48-2-14.72,10.85-19.92,23.07-20.48,12.69-.58,22.67-7.8,30.54-17.26,6.85-8.24,12.63-19.16,23-23.71,10.14-4.47,26.47-3.31,31.85,7.11C781.19,627.61,765.83,632.54,760.73,643.34Z" style="fill:#e2e2e2"/><path d="M330.86,351.6c-100.34,23.1-150.31-19.29-171.49-47.37A25.66,25.66,0,0,1,166,267.15c87.55-56.81,176.74,15.13,176.74,15.13s14.39,20.44,11.43,40.25S330.86,351.6,330.86,351.6Z" style="fill:#4a4a4a"/><path d="M693.46,351.6C793.79,374.7,843.77,332.31,865,304.23a25.67,25.67,0,0,0-6.66-37.08c-87.55-56.81-176.74,15.13-176.74,15.13s-21.42,11.06-15.67,37.86C671.85,348,693.46,351.6,693.46,351.6Z" style="fill:#4a4a4a"/><path d="M957.51,454.62c14.13-10.68,24.94-7,49.44-10.11,27-3.46,15.72-47.69-18.76-37.74s-35.07,51.53-35.07,51.53c.88-.81,1.75-1.56,2.6-2.26,18,11.18,16.65,22.56,27.48,46.86,11.07,24.83,50.2,1.36,30.76-28.81C997.72,448.88,967.13,452.69,957.51,454.62Z" style="fill:#4a4a4a"/><path d="M850.55,637.33,822.79,749.6a19.89,19.89,0,0,0,14.49,24l61.65,15.24a19.87,19.87,0,0,0,24-14.49l27.7-112.06Z" style="fill:#4a4a4a"/><path d="M314,697.19a57.7,57.7,0,0,0-8.43-1.12c7.5,4.36,15.27,8.45,23.25,12.27-.77-1-1.5-2.09-2.28-3.07A23.58,23.58,0,0,0,314,697.19Z" style="fill:#e2e2e2"/><path d="M701.83,321.18s48.75-47.88,137.42-31.54a5.4,5.4,0,0,1,3.74,8c-2.67,4.76-8.67,12.31-21.89,23.56,0,0-48.5,40.19-119.27,9.78C701.83,331,692.77,328.45,701.83,321.18Z" style="fill:#e2e2e2"/><ellipse cx="351.25" cy="519.68" rx="117.69" ry="117.68" transform="translate(-179.46 185.33) rotate(-23.73)" style="fill:#e6e6e6"/><ellipse cx="665.88" cy="519.68" rx="117.69" ry="117.68" transform="translate(-152.85 311.97) rotate(-23.73)" style="fill:#e6e6e6"/><path d="M322.49,321.18s-48.75-47.88-137.43-31.54a5.41,5.41,0,0,0-3.74,8c2.68,4.76,8.67,12.31,21.89,23.56,0,0,48.51,40.19,119.28,9.78C322.49,331,331.55,328.45,322.49,321.18Z" style="fill:#e2e2e2"/><path d="M359.18,411.57a107,107,0,1,0,107,107A107,107,0,0,0,359.18,411.57Zm-97,97.75c.5-20.78,10.83-43.82,37.9-39.9,25,3.63,30.59,58,13,70.39C293.27,553.79,261.19,549.84,262.18,509.32Zm83.53,82.3c-12.45,8.78-32.61,6.3-32-19.16.32-13.05,6.81-27.53,23.82-25.06C353.27,549.68,356.75,583.82,345.71,591.62Z" style="fill:#202020"/><path d="M658.74,411.51a107,107,0,1,0,107,107A107,107,0,0,0,658.74,411.51Zm-95,97.81c.5-20.78,10.83-43.82,37.9-39.9,25,3.63,30.59,58,13,70.39C594.82,553.79,562.74,549.84,563.73,509.32Zm83.53,82.3c-12.45,8.78-32.61,6.3-32-19.16.32-13.05,6.81-27.53,23.81-25.06C654.81,549.68,658.3,583.82,647.26,591.62Z" style="fill:#202020"/><ellipse cx="508.76" cy="660.15" rx="95" ry="71.54" style="fill:#202020"/><path d="M508.76,588.61c-52.46,0-95,32-95,71.54s42.54,71.54,95,71.54,95-32,95-71.54S561.23,588.61,508.76,588.61Zm37.12,42.11c7.29,0,13.2,2.3,13.2,5.14s-5.91,5.15-13.2,5.15-13.2-2.3-13.2-5.15S538.59,630.72,545.88,630.72Zm-68.81,0c7.3,0,13.21,2.3,13.21,5.14S484.37,641,477.07,641s-13.2-2.3-13.2-5.15S469.78,630.72,477.07,630.72ZM557.59,681c-10.6,6.41-28.86,10.23-48.83,10.23s-38.21-3.82-48.82-10.23c-3.25-2-4.3-4.2-2.33-7.45s6.21-2.3,9.45-.34c6.6,4,21,8.25,41.7,8.25s35.11-4.26,41.7-8.25c3.27-2,7.49-2.92,9.45.34S560.84,679,557.59,681Z" style="fill:#f4f4f4"/><path d="M227.51,759.15,196.32,651.83a87.77,87.77,0,0,0-32.89-46.94,58.4,58.4,0,0,1-21.85-31.2l-4.46-15.36,2.82-.82a5.7,5.7,0,0,0,3.31-8.6l-6-9a5.83,5.83,0,0,0-6.47-2.28L84.45,551.13a5.84,5.84,0,0,0-4.25,5.39l-.27,10.8a5.69,5.69,0,0,0,7.4,5.48L90.2,572l6.09,20.94c2.27,7.82,2.06,20.08-1.68,31.21l-.73,2.15A88.33,88.33,0,0,0,93,678.88L125,789c3.31,11.39,14.55,18.14,25.1,15.07l64.29-18.69C225,782.27,230.82,770.54,227.51,759.15Zm-21.95,15.64-53.65,15.59c-8.81,2.56-18.19-3.07-20.95-12.57L104.26,686a73.59,73.59,0,0,1,.58-43.35,28,28,0,0,1,12-7.85c12.69-4,21.48,4.6,35,1.36,3.63-.88,9.12-3,15.13-8.86a73.7,73.7,0,0,1,23.56,36.13l26,89.56C219.27,762.44,214.37,772.23,205.56,774.79Z" style="fill:#d2d2d2"/><path d="M803.77,787.93c-4.18-23.76-18-116.74-21.75-143.2L780.93,646c1.16,7.08,2.38,14.85,3.6,23.11a78.76,78.76,0,0,1-13.24-12.81c-25.87,25.61-62,47.36-99.28,62.09-.24,6.87-1.35,13.65-7,17-4.73,2.81-10.68,1.64-16.18,1.63a36.73,36.73,0,0,0-22.06,7.38c-7,5.33-12.55,14-20.72,18.25-11.53,6-21.21-1.16-32.89-2.34-15.2-1.53-36.84,12.3-50.22,4.15-6.2-3.78-8.22-9.58-8.69-15.91l-1.17,0a444.27,444.27,0,0,1-51.08-3c7.07,12.17,7.8,26.16-5.2,37-5.56,4.62-12.66,6.89-19,10.45-11.79,6.65-11.69,17.52-18.11,28.07-3.64,6-8.94,11.23-15.35,13.82a23.11,23.11,0,0,1-4.27,1.28c-6.94,1.38-14.1-.48-20.8-2.77-33.85-11.58-52.2,13.8-77.3,30.53-11.84,7.9-33.61,16.78-46.83,7.85-18.19-12.29-2.32-31.54-11.46-47-6.29-10.65-19-11.95-24.27-24.29-.09-.22,6.82-54.45,7.71-66.41.73-9.88,3.82-28.87,4-29.44,9.72-1.16,16.32-10,23.77-16.33A54,54,0,0,1,276.71,677c3.86,2.93,7.85,5.79,11.92,8.54q8.17,5.52,16.84,10.56c2.44,1.42,4.92,2.8,7.42,4.17a70.38,70.38,0,0,0,2.58,12.67c3.79,11,13.36,20.17,24.85,22.67,9.1,2,18.71.11,27.28-3.56,3.38-1.45,6.83-2.95,10.33-4.4a439,439,0,0,0,47.7,12.16A427,427,0,0,1,361.8,722c-45.54-16.72-87.14-40.18-121-78.74.61.73,1.24,1.44,1.87,2.15a6.51,6.51,0,0,1-3,3.51c-10.81,56.08-17.22,115.66-19.8,139-2.44,22.07-3.1,47.77,2.65,73.58,5.06,22.69,15.09,45.46,33.26,65.92,30.56,34.42,87.15,64.4,188.84,73.82-1.91-1.56-3.75-3.2-5.48-4.86-4.15-4-7.79-9-12.41-12.43-5.58-4.15-12.33-6.25-17.47-11.16-4.31-4.11-3.88-11.35-4.49-16.77-3.1-27.53-45.38-24.95-44.37-54.55.79-23.27,22.6-22.35,38.86-28.33,6.18-2.27,5.3-9,8.28-13.68,4.45-7,10.79-4,18-6.55,5.27-1.87,8.1-6.49,11.54-10.53,11.53-13.54,24.91-8.69,33.28,5.43,10.59,17.87-9.21,42.62,11.42,56.68,13.24,9,26.05,1.35,36.15-8,5.06-4.69,10.28-9.56,16.81-11.78s14.78-1,18.64,4.74c4,5.94,2,13.94,3.31,21,1.14,6,5.63,9.65,9.26,14.09a32.9,32.9,0,0,1,7.69,19.26c.05,1,.05,2,0,3-.55,12.77-8.55,24.18-22.34,24.23-15.26,0-31.91-3.05-44.73,5.23-10.34,6.68-16,19.61-24.94,27.48q16.21.65,33.74.65c159.15,0,224.23-35.7,260.07-76.89,17.79-20.45,26.74-43.21,30.46-65.92C810.15,835.75,807.66,810.07,803.77,787.93ZM343.56,980.24c0,.12-.09.23-.13.35-51.1-17.28-82.11-43-100.39-71.64,13.54,8.46,30.45,11,45.26,4,7.78-3.67,13.69-10.24,22.95-10.13C343.24,903.16,351,958.16,343.56,980.24Zm200.06,23.45a41.42,41.42,0,0,1,18.21-.87Q552.93,1003.34,543.62,1003.69Zm22.17-154.34c-14.58,24.76-55.47,33.66-67.62,2.26-6.09-15.76-.19-34.55,12.07-45.71C523,794.33,536.55,796,552,800c8,2.06,14.17,1.78,21.69-1.2,8.63-3.42,16.42-7.69,25.18-1.18,12.68,9.42,11.26,32.73-6.35,34.11-5.4.42-11.17,0-15.84,2.76C571.28,837.62,569,844,565.79,849.35Zm200.86,87.19h-1.52c-14.71.33-27.65,9.69-38.11,20-5,5-9.78,10.3-14.75,15.36A316.52,316.52,0,0,1,656.43,990a25.1,25.1,0,0,1-3.06-2c-18-13.71-12.32-44.33-28.32-60.3-7.73-7.73-19-10.42-28.76-15.33s-19.15-14.6-16.92-25.31c3-14.21,15.42-15.82,27.45-18.2,26.39-5.23,30-32.15,42.44-52.53.44-.72.88-1.43,1.33-2.14,32.46-51.91,74.88-101.6,140.11-95.23.48,5,.91,10,1.28,15C794.41,766.4,837.47,867.59,766.65,936.54Z" style="fill:#e2e2e2"/><path d="M379.25,163.16c-11.44-34.3,0-85.18,0-85.18s4-8.57-5.15-5.72-78.32,33.16-88,102.33,35.44,114.91,77.74,117.76,65.74-25.14,60.6-57.73C421.12,213.79,390.67,197.46,379.25,163.16Zm-76.6,48.59a107.49,107.49,0,0,0,6.07,22c-19.2-7.12-20.37-30.6-20.37-30.6-4.57-84,81.74-127.48,81.74-127.48C330.09,103.71,292.92,153.44,302.65,211.75Z" style="fill:#676767"/><path d="M740.47,174.59c-9.71-69.17-78.89-99.47-88-102.33S647.29,78,647.29,78s11.44,50.88,0,85.18-41.87,50.63-45.16,71.46c-5.14,32.59,18.29,60.59,60.6,57.73S750.19,243.76,740.47,174.59Zm-129.12,67c-12.23-4.41-.32-20.48,5.36-27.42a196,196,0,0,1,16.86-17.86c27.44-32.58,24.58-63.45,24.58-63.45C670.73,180.31,633.12,219.32,611.35,241.59Z" style="fill:#676767"/></g></g></svg>