<svg xmlns="http://www.w3.org/2000/svg" viewBox="0 0 1030 1030"><g id="b38689cf-a0d6-4c7e-a296-d1c08e52c377" data-name="Layer 2"><g id="e9ef466c-d2e0-4e9f-bc30-cd5d806c6685" data-name="Gray Scale"><path d="M796.12,731.93c-2.23-29.88-6.63-60.66-10.47-84.41C725.47,714.25,615.79,748.26,518.3,748.26,416.85,748.26,303.53,712,245,640.92c-5.08,24.11-11.18,57.47-13.68,91-3.57,47.87-84.68,270.34,281.35,270.34C903.45,1002.27,799.92,782.73,796.12,731.93Z" style="fill:#2c2c2c"/><path d="M796.12,731.93c-2.23-29.88-6.63-60.66-10.47-84.41C725.47,714.25,615.79,748.26,518.3,748.26,416.85,748.26,303.53,712,245,640.92c-5.08,24.11-11.18,57.47-13.68,91-3.57,47.87-84.68,270.34,281.35,270.34C903.45,1002.27,799.92,782.73,796.12,731.93ZM433.25,944.8,391,893.38l34.08,30.36,2.79-23.47,53.46,69.55-50-48.81Zm136-68.37-63.35,111.8a2.14,2.14,0,0,1-3.93-1.58l21-83.24a2.13,2.13,0,0,0-2.6-2.59l-37.56,9.66a2.13,2.13,0,0,1-2.54-2.78L509,826.6a2.16,2.16,0,0,1,1.15-1.24l47.4-20.93a2.14,2.14,0,0,1,2.72,3l-40.13,70.38A2.13,2.13,0,0,0,522.4,881l44.65-7.71A2.14,2.14,0,0,1,569.27,876.43Zm23-3.91,29.7-43.95-17.66,4.76L637,794.77,619,824.31l18.1-1.17Z" style="fill:#3e3e3e"/><rect width="1030" height="1030" style="fill:none"/><path d="M878.64,803.74s37.76,5.48,64.77,19l-10.21,18c-31.24,36.91-67.58,24.91-122-1.32a161.94,161.94,0,0,1-4,30.49c50.74,23.86,105.34,41.79,149.33-11.53a15,15,0,0,0,1.43-2.1l8.44-14.87c16.23,21.13,31,56.29,31,56.29l29.89-161.36Z" style="fill:#3e3e3e"/><path d="M232.56,718.39c-30.63-39.93-39.22-102-39.22-102s6.82-9.55,6.14-14.1S184,611.75,184,611.75C133.42,586.59,2.25,581.32,2.25,581.32a17.12,17.12,0,0,0,7.83,10.42c25.15,35.76,18.71,94.17,18.71,94.17,86.59.46,110.91,90.46,110.91,90.46,11.11-14.72,50.87-20.41,87.14-15.73,2.06-12.19,4-22.11,4.52-28.71C231.69,727.41,232.1,722.89,232.56,718.39ZM20.38,586.59c89.1,3.64,155.16,24.85,155.16,24.85Zm157.73,52.28c-12.27-27.28-135,41.36-135,41.36,64.09-50.91,127.28-58.64,134.55-60.46S178.11,638.87,178.11,638.87Z" style="fill:#3e3e3e"/><path d="M847.53,602.16s-13.87-14.21-14.7-9.81,5.45,14,5.45,14-11.23,63.3-44.45,100.8q.49,4.62.95,9.25.94-.9,1.89-1.86c31.84-32.5,41.88-97.76,41.88-97.76s1.05-4.39,2.69-.78,14.88,51.58,14.88,51.58-11.61-32.83-15.25-30.31-11.28,51.47-44.41,82.58c-.42.4-.83.78-1.25,1.16q.51,5.49.91,11a115.74,115.74,0,0,0,2.25,13.92c.52-.06,1-.13,1.54-.18,35.61-3.3,74.37,3.73,84.67,18.54,0,0,27-86.79,111.44-84,0,0-4.1-57.15,21.74-91.05a16.85,16.85,0,0,0,7.66-9.87S897.78,579.53,847.53,602.16Zm4.75,26.64s-5.87-20.63,1.16-18.59,68.29,11.93,128.84,63.92C982.28,674.13,865.26,602.68,852.28,628.8Zm3.53-26.63s101-12.1,128.22-12.24Z" style="fill:#3e3e3e"/><path d="M261,779.11,151.73,594.24a53.42,53.42,0,0,0,22-32.15c5.05-20.85-.09-47.5-15.29-79.18a305.2,305.2,0,0,0-21.9-38c2.24-.94,19.09-4.94,19.09-4.94L103.7,412.6l4.87,57.08s7.32-10.23,10.26-12.95c10.42,15.45,42.41,66.55,34.21,100.35a32.25,32.25,0,0,1-12.92,19.24L63.17,457.52c3.74-1.79,16.15-5.95,16.15-5.95l-42.95-28.3-.73,68s8.42-19.86,10-21.55l77.16,119.12a32.19,32.19,0,0,1-22.72,2.59c-32.29-7.72-62.42-56.2-72.68-74.3C31.34,515.21,43.9,511,43.9,511L.45,482.38,0,550.81s8.43-19.75,9.94-21.34c12.39,21.75,45.37,73.08,85.22,82.63a53.33,53.33,0,0,0,39.31-5.35L243.09,790.68a10.51,10.51,0,0,0,6.7,4.62l.16,0a10.57,10.57,0,0,0,7.87-1.51l.15-.1A10.68,10.68,0,0,0,261,779.11Z" style="fill:#2c2c2c"/><path d="M523.71,237.36c-275.43,0-318.41,194.39-318.41,294.46,0,142.93,168.54,216.44,313,216.44,143.33,0,313-73.51,313-216.44C831.3,440.75,779.28,237.36,523.71,237.36Z" style="fill:#d2d2d2"/><ellipse cx="360.69" cy="535.92" rx="117.9" ry="117.89" transform="translate(-185.2 190.51) rotate(-23.73)" style="fill:#f4f4f4"/><ellipse cx="675.9" cy="535.92" rx="117.9" ry="117.89" transform="translate(-158.54 317.38) rotate(-23.73)" style="fill:#f4f4f4"/><path d="M466.33,656.88H570.26a5,5,0,1,1,0,9.87H466.33a5,5,0,1,1,0-9.87Z" style="fill:#2c2c2c"/><path d="M479.27,633.14c-5.45,0-9.27,12.68-10.72,23.74h20.1C486.45,645.55,484.83,633.14,479.27,633.14Z" style="fill:#2c2c2c"/><path d="M557.44,633.14c-5.44,0-9.26,12.68-10.71,23.74h20.09C564.62,645.55,563,633.14,557.44,633.14Z" style="fill:#2c2c2c"/><path d="M244.79,640.62c-1.34,6.41-2.75,13.43-4.14,20.93l1.22,11.36L243,683.42l4.32,40.48,9.56,89.47,6.87,64.36,6.2,58.07a180.58,180.58,0,0,0,35.88,25.31,242.23,242.23,0,0,0,30.82,14c3.2,1.21,6.49,2.37,9.87,3.51L345.78,966l-3.89-67.56h0L336.52,805l-5-87.22-.66-11.42C296.71,689.44,266.83,667.52,244.79,640.62Z" style="fill:#fff;opacity:0.33"/><path d="M796.12,730.43c-.38-5.11-.83-10.25-1.32-15.37-2.21-22.87-5.41-45.47-8.39-64.28-.19-1.18-.37-2.34-.56-3.49-20.57,22.88-47,41.93-76.69,57.08l-1.43,25.09-1.92,33.86L704,794.56l-3,52.78-2.92,51.49L697.49,910l-2.7,47.5-.61,10.82-.51,8.88c2.36-.8,4.68-1.61,6.94-2.44q4.95-1.82,9.62-3.72,5.85-2.4,11.29-4.94a210.38,210.38,0,0,0,18.69-9.88c31.2-18.6,49.6-41.49,59.83-65.63a140.8,140.8,0,0,0,9.59-35.22q1-7.07,1.37-14.08a225.94,225.94,0,0,0-2-42.81C805,768.82,797.12,743.79,796.12,730.43Z" style="opacity:0.1"/><path d="M368.85,427.61A107.19,107.19,0,1,0,476,534.79,107.18,107.18,0,0,0,368.85,427.61ZM279,531.78c.5-20.78,10.84-43.82,37.91-39.9,25,3.63,30.58,58,13,70.39C310.08,576.25,278,572.29,279,531.78Zm83.53,82.29c-12.45,8.79-32.6,6.3-32-19.15.31-13,6.8-27.53,23.81-25.07C370.07,572.13,373.56,606.28,362.51,614.07Zm29.7-26.8c-5.39-36.64-9.2-40.23-46-43.95,36.61-5.41,40.22-9.19,44-46.07,5.41,36.67,9.15,40.26,46,44C399.54,546.64,395.93,550.42,392.21,587.27Zm46.23-67.06c-12.45,8.79-32.6,6.3-32-19.15.31-13.05,6.8-27.53,23.81-25.07C446,478.27,449.49,512.42,438.44,520.21Z" style="fill:#2c2c2c"/><path d="M669,427.61A107.19,107.19,0,1,0,776.14,534.79,107.18,107.18,0,0,0,669,427.61ZM586,531.84c.5-20.78,10.83-43.82,37.9-39.9,25,3.62,30.59,58,13,70.38C617.12,576.3,585,572.35,586,531.84Zm83.52,82.29c-12.44,8.78-32.6,6.3-32-19.15.31-13.06,6.81-27.53,23.81-25.07C677.11,572.19,680.6,606.33,669.55,614.13Zm29.7-26.81c-5.38-36.63-9.2-40.22-46-44,36.6-5.41,40.22-9.18,43.95-46.06,5.41,36.67,9.16,40.26,46.05,44C706.58,546.7,703,550.47,699.25,587.32Zm46.24-67.05c-12.45,8.78-32.61,6.3-32-19.15.32-13.06,6.81-27.53,23.82-25.07C753.05,478.33,756.53,512.47,745.49,520.27Z" style="fill:#2c2c2c"/><path d="M696.29,180.56c-11.44-34.3,0-85.17,0-85.17s4-8.58-5.15-5.72-78.32,33.16-88,102.32,35.45,114.91,77.75,117.77,65.73-25.15,60.59-57.74C738.16,231.2,707.71,214.86,696.29,180.56Zm-76.61,48.6a108.13,108.13,0,0,0,6.08,22c-19.2-7.13-20.37-30.61-20.37-30.61-4.57-84,81.74-127.48,81.74-127.48C647.12,121.11,610,170.85,619.68,229.16Z" style="fill:#676767"/><path d="M424.11,192c-9.71-69.16-78.88-99.46-88-102.32s-5.15,5.72-5.15,5.72,11.43,50.87,0,85.17S289.07,231.2,285.77,252c-5.14,32.59,18.3,60.6,60.61,57.74S433.83,261.17,424.11,192ZM295,259c-12.22-4.41-.32-20.48,5.37-27.41a194.42,194.42,0,0,1,16.86-17.86c27.44-32.58,24.58-63.45,24.58-63.45C354.37,197.71,316.77,236.73,295,259Z" style="fill:#676767"/></g></g></svg>