<svg xmlns="http://www.w3.org/2000/svg" viewBox="0 0 1030 1030"><g style="isolation:isolate"><g id="baccf2fb-f76c-4703-8c05-bdf414c2b350" data-name="Layer 2"><g id="a7cb2a47-62a0-45f8-b875-6e31a0d8a1dd" data-name="Gray Scale"><rect width="1030" height="1030" style="fill:none"/><path d="M785.74,643.8c-59.43,69.14-171.31,104.4-270.56,104.4-100,0-211.66-35.27-270.82-104.44-4.85,23.62-10.32,54.77-12.65,86.06-3.57,47.88-84.68,270.35,281.35,270.35,390.74,0,287.21-219.55,283.41-270.35C794.19,699.26,789.64,667.76,785.74,643.8Z" style="fill:#d6d6d6"/><path d="M520.59,237.3c-275.43,0-318.42,194.39-318.42,294.46,0,142.93,168.55,216.44,313,216.44,143.34,0,313-73.51,313-216.44C828.17,440.69,776.16,237.3,520.59,237.3Z" style="fill:#d6d6d6"/><path d="M792.26,690.3c-3.49,47.27,48.89,151.27-8.56,229.71-16,21.83-46,42.64-67.17,49.52C606.58,860.37,755.87,689.71,792.26,690.3Z" style="fill:#f8f8f8;mix-blend-mode:soft-light"/><path d="M785.72,880.31c-3.64,19.25-8.68,35.75-17.91,51.62-3.64-20.13-.94-44.55-6.42-63.24-15.09,16.47-17.13,45.66-27.07,66.86-3.41-16.9,4.27-89.82-26.85-71.32-16,9.51-11.52,78.11-18.59,99-5.89-10.35-9.45-23.84-11.53-37.23-6.23,5.44-12.68,6.44-16.74,18.1-7.79-13.27-17.67-5.84-24,7.6-4.59-30.85,17.1-106.28-12-121-5.83,26.23-10.27,82.82-35.95,86.56,1.16-10-3.76-16.79-3.94-25.41-15.76-6-23.66,7.17-24,25.52-1.61-4-3.19-9.26-4.85-14.86-.62-9.31-2.65-16.8-6.93-20.81-5.43-12.79-12.34-18.47-22.7,2.7-4.09,8.34-5.62,21.07-5.94,35.11A127.74,127.74,0,0,1,514,931.93c-3.64-20.13-.93-44.55-6.41-63.24-15.1,16.47-17.13,45.66-27.08,66.86-3.4-16.9,4.27-89.82-26.85-71.32-16,9.51-11.52,78.11-18.59,99-5.89-10.35-9.45-23.84-11.52-37.23-6.24,5.44-12.68,6.44-16.75,18.1-7.79-13.27-17.66-5.84-24,7.6-4.59-30.85,17.1-106.28-11.95-121-5.83,26.23-10.26,82.82-35.94,86.56,1.15-10-3.76-16.79-3.95-25.41-15.76-6-23.66,7.17-24,25.52-8-19.78-15.38-72-34.48-33-10.89,22.23-6.1,22.34-6.1,48.68,0,0,50.62,68.74,246.72,68.74,208.29,0,264.77-64.86,280.89-98.13C798.87,893.52,789.17,882.58,785.72,880.31Z" style="fill:#656565"/><ellipse cx="357.38" cy="536.07" rx="117.69" ry="117.68" transform="translate(-185.54 189.19) rotate(-23.73)" style="fill:#e6e6e6"/><ellipse cx="672.01" cy="536.07" rx="117.69" ry="117.68" transform="translate(-158.93 315.82) rotate(-23.73)" style="fill:#e6e6e6"/><path d="M378.51,353.68c-9.91,8.8-18.27,18.27-15.13,21.41s11.37-.31,21.28-9.11,18.69-18.69,14.62-22.77S388.42,344.88,378.51,353.68Z" style="fill:#333"/><path d="M642.78,353.68c9.91,8.8,18.27,18.27,15.13,21.41s-11.37-.31-21.28-9.11-18.7-18.69-14.63-22.77S632.86,344.88,642.78,353.68Z" style="fill:#333"/><path d="M500.14,654.79s-4.05,38.94,28.2,40.34,28.22-39.87,28.22-39.87Z" style="fill:#a7a7a7;fill-rule:evenodd"/><path d="M557.27,644.21H499.44a5.38,5.38,0,1,0,0,10.76h57.83a5.38,5.38,0,1,0,0-10.76Z" style="fill:#1e1e1e"/><path d="M528.35,677.68c-2.37,0-4.29-2.37-4.29-5.31V656.81c0-2.93,1.92-5.31,4.29-5.31s4.3,2.38,4.3,5.31v15.56C532.65,675.31,530.72,677.68,528.35,677.68Z" style="fill:#1e1e1e"/><path d="M258.32,534.94a107,107,0,1,0,107-107A107,107,0,0,0,258.32,534.94ZM392,454.65c12.3,18.46-24.6,36.91-43.06,49.21s-49.2,30.75-67.65,18.45S293.58,467,312,454.65,379.69,436.2,392,454.65Z" style="fill:#202020"/><path d="M664.88,427.9a107,107,0,1,0,107,107A107,107,0,0,0,664.88,427.9Zm-51.46,69.81c-18.45,24.6-36.91,43.05-43.06,30.75s4-33.64,18.45-55.35c12.31-18.46,36.91-30.76,43.06-24.61C641.6,458.23,623.86,483.79,613.42,497.71Z" style="fill:#202020"/><path d="M991.94,622.54c4.13-3.52,11.7-9.38,16.31-9.32,6.66.07,21.58,7.16,21.58,7.16s-11.53-10.39-12-19.3,7.07-21.6,7.07-21.6-10.54,12.91-19.23,12-21.55-7.11-21.55-7.11,11.9,11.38,11.93,19.32c.06,5.17-3,12.77-5.1,17.4-1.81-2.74-3.75-5.41-5.83-8-12-14.79-28-25.36-45.27-32.62-2.58-1.09-5.19-2.08-7.81-3,1.63-2.86,4.78-7.82,7.44-8.73,3.83-1.34,13.84-.35,13.84-.35s-8.74-3.58-10.83-8.59-.4-13.83-.4-13.83-3.38,9.56-8.55,10.82-13.81.37-13.81.37,9.16,4.07,10.82,8.61c1.15,3.07.9,8.35.63,11.39a178,178,0,0,0-30.92-7.79c-15.91-2.53-30.91-2.82-42.69-1.52s-20.49,4.19-23.47,8c-3.71,4.75-5.39,10.77-5.26,17.84.19,11.52,5.19,25.83,14,42.16a303.83,303.83,0,0,0,18.26,29.22c1.28,1.83,2.6,3.69,3.94,5.56-29,12.28-57.46,30-70.35,48.39-6,8.53-2.43,26,13.16,45.29s32.79,40.52,47.31,28.78c13.89-11.25.29-32.3,22.83-61.69a182.1,182.1,0,0,1,18.93-20.78c7.46,8.43,14.87,16.12,22.09,23a223.18,223.18,0,0,0,29.77,24.19c17.43,11.53,32.08,15.77,41.3,10.78,6-3.28,11.74-12.93,15.78-26.25a153.13,153.13,0,0,0,6.06-40.81,157.6,157.6,0,0,0-7.58-52.58A118.93,118.93,0,0,0,991.94,622.54Z" style="fill:#f4f4f4"/><path d="M1004.35,648.89a20.67,20.67,0,0,1-19.19-35.8c-12-14.79-28-25.36-45.27-32.62a20.68,20.68,0,1,1-39.59-11.13c-15.91-2.53-30.91-2.82-42.69-1.52s-20.49,4.19-23.47,8c-3.71,4.75-5.39,10.77-5.26,17.84.19,11.52,5.19,25.83,14,42.16a20.45,20.45,0,0,1,5.8-7.51,20.68,20.68,0,1,1,12.46,36.73c6.7,9.64,14.35,19.72,22.74,30.09A398.1,398.1,0,0,0,919,733.56a20.42,20.42,0,0,1,6.74-9.95,20.67,20.67,0,1,1,26,32.14,18.93,18.93,0,0,1-3,2c17.43,11.53,32.08,15.77,41.3,10.78,6-3.28,11.74-12.93,15.78-26.25a20.68,20.68,0,0,1,6.06-40.81A157.6,157.6,0,0,0,1004.35,648.89Zm-49.11,20a20.67,20.67,0,1,1,3.07-29.08A20.67,20.67,0,0,1,955.24,668.87Z" style="fill:#656565"/><path d="M228.49,704c-12.9-19.79-42.15-39.33-72.19-53.22,1.48-1.91,2.93-3.82,4.33-5.7a315.33,315.33,0,0,0,20.17-30c9.78-16.84,15.52-31.7,16.12-43.78.37-7.42-1.18-13.8-4.91-18.91-3-4.12-11.94-7.44-24.37-9.22s-28.07-2-44.86.13a181,181,0,0,0-41.94,10.33c-18.34,7-35.57,17.57-48.64,32.68a119.22,119.22,0,0,0-21.38,36.93c-6.65,17.92-9.53,37.06-9.77,54.93a161.15,161.15,0,0,0,5,43c3.78,14.12,9.42,24.44,15.66,28.1,9.5,5.55,25,1.61,43.72-9.9,2.88-1.77,5.83-3.73,8.85-5.84,1.88,2,5.34,6,5.41,9.11.12,4.25-3.61,11.62-3.61,11.62s6.7-6.58,10.25-6.59S98,751.33,98,751.33s-6.31-5.49-6.62-10.28S95,729.35,95,729.35s-5.56,7-10.25,6.62a40.42,40.42,0,0,1-9.88-2.86A265,265,0,0,0,97.48,715c7.82-6.93,15.86-14.75,24-23.34a190.31,190.31,0,0,1,19.16,22.46c8.83,12.33,11.93,23.13,13.28,32.46-4.3-.16-12.6-1-16.76-4.89-5.79-5.45-8.78-18.09-8.78-18.09s1.24,14.69-4.87,19.44-18.08,8.75-18.08,8.75,14.57-.09,19.47,4.94,8.71,18,8.71,18,.66-15.41,4.91-19.4c3.12-3,11.32-6.23,15.54-7.8,1.88,14.13,0,24.8,8.43,32.13,14.84,12.83,33.63-8.9,50.65-28.58S234.46,713.15,228.49,704Z" style="fill:#d6d6d6"/><path d="M173.41,568.07a21.72,21.72,0,0,1-5.77-25c-12.32-1.77-28.07-2-44.86.13a21.72,21.72,0,1,1-41.94,10.33c-18.34,7-35.57,17.57-48.64,32.68a21.72,21.72,0,0,1-21.38,36.93c-6.65,17.92-9.53,37.06-9.77,54.93A21.73,21.73,0,0,1,18.45,714,21.54,21.54,0,0,1,6,721.17c3.78,14.12,9.42,24.44,15.66,28.1,9.5,5.55,25,1.61,43.72-9.9a21.05,21.05,0,0,1-3.06-2.2,21.72,21.72,0,1,1,28.41-32.85A21.42,21.42,0,0,1,97.48,715a417.28,417.28,0,0,0,38.25-39.12c9.16-10.6,17.53-20.92,24.9-30.81A21.71,21.71,0,1,1,175,606.94,21.27,21.27,0,0,1,180.8,615c9.78-16.84,15.52-31.7,16.12-43.78A21.65,21.65,0,0,1,173.41,568.07Zm-81.1,75.55A21.72,21.72,0,1,1,90.09,613,21.71,21.71,0,0,1,92.31,643.62Z" style="fill:#656565"/><path d="M228.49,704c-12.9-19.79-42.15-39.33-72.19-53.22l0,0c1.47-1.9,2.91-3.8,4.31-5.67a315.33,315.33,0,0,0,20.17-30c9.78-16.84,15.52-31.7,16.12-43.78.37-7.42-1.18-13.8-4.91-18.91-3-4.12-11.94-7.44-24.37-9.22s-28.07-2-44.86.13a181,181,0,0,0-41.94,10.33A134.92,134.92,0,0,0,51.49,569c12-.28,24.58,2.63,32.25,8.1,7.29,5.19,10.47,12.27,8.32,21.09-1.26,5.14-9.56,21.26,4.39,18.79,3.43-.61,4.77-.34,7.45,1.65,7.84,5.82.79,20.17-4,25.2-5.42,5.66-15.73,12.71-8.13,23,1.51,2.06,3,4.05,4.38,6.21,2,3.21,1.66,6.72,1.1,10.25-2.23,14-18.43,22.44-29.06,29-9.48,5.82-18,12.32-20.86,23.65a51.59,51.59,0,0,0-1.88,13.18,102.14,102.14,0,0,0,20-9.79A232.79,232.79,0,0,0,97.48,715c7.82-6.93,15.86-14.75,24-23.34q3.66,3.72,7.21,7.67a26,26,0,0,1,15.94.83c9.85,3.49,17.94,13,23.57,21.4,11.71,17.38,13.94,43.79,3,61.91,13.1.94,28.1-16.41,41.92-32.39C230.14,731.4,234.46,713.15,228.49,704Z" style="fill:#d6d6d6;mix-blend-mode:multiply"/><path d="M966.12,755.09c-2.36-10.87-10.27-17.32-19.11-23.16-9.91-6.53-25.06-15.07-26.75-28.45-.43-3.38-.67-6.73,1.36-9.73,1.36-2,2.87-3.86,4.37-5.77,7.55-9.6-2-16.64-7-22.19-4.43-4.94-10.69-18.81-3.05-24.11,2.61-1.81,3.9-2,7.14-1.33,13.19,2.78,5.8-12.81,4.76-17.74-1.78-8.46,1.47-15.1,8.57-19.82,7.47-5,19.52-7.34,31-6.7a129,129,0,0,0-27.45-15.62,172.32,172.32,0,0,0-39.59-11.13c-15.91-2.53-30.91-2.82-42.69-1.52s-20.49,4.19-23.47,8c-3.71,4.75-5.39,10.77-5.26,17.84.19,11.52,5.19,25.83,14,42.16a303.83,303.83,0,0,0,18.26,29.22c1.28,1.83,2.6,3.69,3.94,5.56-29,12.28-57.46,30-70.35,48.39-6,8.53-2.43,26,13.16,45.29,14.46,17.87,30.32,37.45,44.13,30.8a13.29,13.29,0,0,1-5.29,1.28c-9.85-17.58-6.91-42.67,4.78-58.85,5.63-7.8,13.62-16.62,23.1-19.63a24.61,24.61,0,0,1,15.3-.26c2.31-2.41,4.67-4.76,7-7h0C904.4,719,911.8,726.72,919,733.56a223.18,223.18,0,0,0,29.77,24.19,97,97,0,0,0,18.71,9.94A49.24,49.24,0,0,0,966.12,755.09Z" style="fill:#d6d6d6;mix-blend-mode:multiply"/><path d="M961.77,254.11c-25.88-38.26-62.9-79.61-107.86-117.45C803.58,94.28,743.37,56.23,677.47,31.58,628.59,13.23,576.52,2.19,523.2,2.19c-70.73,0-139,20.9-200.8,52.88l-.7.36c-2.2,1.15-4.4,2.3-6.6,3.48-47.94,25.57-91.77,57.85-129.72,91.87-46.3,41.67-83.63,86-108.37,124.58-25,38.87-37.24,71.77-33,90,.35,1.53.76,3,1.19,4.54-.07-1-.12-2-.12-3,0-25.69,23.92-49.75,65.62-70.4,72.65-36,199.3-61.63,347.57-67.53,0-.43,0-.85,0-1.28,0-2.57.13-5.1.37-7.6a25.9,25.9,0,0,1,7.12,8.61q28.5-1,58-1c32.28,0,63.82.94,94.31,2.71,217.65,12.65,382,68.24,384.27,135.11a.8.8,0,0,1,0-.15C1007.15,339.19,992,298.66,961.77,254.11Z" style="fill:#fff"/><path d="M315.1,58.91c2.2-1.18,4.4-2.33,6.6-3.48C319.5,56.58,317.3,57.73,315.1,58.91Z" style="fill:#5f5f5f"/><path d="M321.7,55.43l.7-.36Z" style="fill:#aeaeae;mix-blend-mode:multiply"/><path d="M458.27,229c2.48-.09,5-.19,7.46-.27a25.9,25.9,0,0,0-7.12-8.61c-.24,2.5-.37,5-.37,7.6C458.24,228.15,458.26,228.57,458.27,229Z" style="fill:#fff"/><path d="M961.77,254.11a79.17,79.17,0,0,1-49.22,17.43c-43.78.31-80-35.24-80.5-79a79.7,79.7,0,0,1,21.86-55.85C803.58,94.28,743.37,56.23,677.47,31.58A79.94,79.94,0,0,1,523.2,2.19c-70.73,0-139,20.9-200.8,52.88l-.7.36c-2.2,1.15-4.4,2.3-6.6,3.48A79.63,79.63,0,0,1,335,114c-1.2,43.38-37.4,78.15-80.79,77.66a79.88,79.88,0,0,1-68.8-40.84c-46.3,41.67-83.63,86-108.37,124.58a79.68,79.68,0,0,1,33.69,21.17c72.65-36,199.3-61.63,347.57-67.53,0-.43,0-.85,0-1.28,0-2.57.13-5.1.37-7.6a79.91,79.91,0,0,1,159.46,7.6c0,.9,0,1.8-.07,2.7,217.65,12.65,382,68.24,384.27,135.11h0C1007.2,339.34,992.05,298.74,961.77,254.11Z" style="fill:#656565"/><path d="M458.61,220.12c-12.87-10.7-36.7-17.63-46.22-22.51-29.75-15.22-41.79-41.13-38.7-73.94,3.24-34.49,25.4-76.5,55.12-109.27A494.73,494.73,0,0,0,322.4,55.07l-.7.36c-2.2,1.15-4.4,2.3-6.6,3.48-47.94,25.57-91.77,57.85-129.72,91.87-46.3,41.67-83.63,86-108.37,124.58-25,38.87-37.24,71.77-33,90,.35,1.53.76,3,1.19,4.54-.07-1-.12-2-.12-3,0-25.69,23.92-49.75,65.62-70.4,72.65-36,199.3-61.63,347.57-67.53,2.48-.09,5-.19,7.46-.27A25.9,25.9,0,0,0,458.61,220.12Z" style="fill:#aeaeae;mix-blend-mode:multiply"/><path d="M1002.3,366.93C1002.3,290,788,227.71,523.69,227.71S45.08,290,45.08,366.93c0,41.63,62.84,79,162.44,104.51,36.37-127.37,176-173.31,315.68-173.31,196.3,0,272.12,86.78,298.77,177.67C931.87,450.29,1002.3,411,1002.3,366.93Z" style="fill:#a7a7a7"/></g></g></g></svg>