<?xml version="1.0" encoding="utf-8"?>
<!-- Generator: Adobe Illustrator 26.0.2, SVG Export Plug-In . SVG Version: 6.00 Build 0)  -->
<svg version="1.1" id="Layer_1" xmlns="http://www.w3.org/2000/svg" xmlns:xlink="http://www.w3.org/1999/xlink" x="0px" y="0px"
	 viewBox="0 0 1030 1030" style="enable-background:new 0 0 1030 1030;" xml:space="preserve">
<style type="text/css">
	.st0{fill:none;}
	.st1{fill:#D6D6D6;}
	.st2{fill:#333333;}
	.st3{fill:#FFFFFF;}
	.st4{fill:#202020;}
	.st5{fill:#B4B4B4;}
	.st6{fill:#3A3A3A;}
	.st7{fill:#BABABA;}
</style>
<rect x="6906.7" y="3863.2" class="st0" width="1030" height="1030"/>
<path class="st1" d="M7698.5,4501.3c-57.9,73.4-173.6,110.8-275.9,110.8c-103.1,0-218.6-37.5-276.2-111c-2.8,17.1-5.4,35.8-6.8,54.6
	c-3.6,47.9-110.3,310.7,279.3,310.7c413.4,0,289.2-259.9,285.4-310.7C7703.1,4537.3,7700.9,4518.6,7698.5,4501.3z"/>
<path class="st1" d="M7428.1,4101.2c-275.4,0-318.4,194.4-318.4,294.5c0,142.9,168.5,216.4,313,216.4c143.3,0,313-73.5,313-216.4
	C7735.7,4304.6,7683.6,4101.2,7428.1,4101.2z"/>
<path class="st2" d="M7461.5,4521.7c-2.9,0-5.2,2.3-5.2,5.2c0,8.8-7.2,16-16,16c-8.2,0-15-6.2-15.9-14.2c0-0.6,0.1-1.2,0.1-1.8
	c0-0.3,0-0.6-0.1-0.9v-15.8c19.2-2.8,34.1-20.5,34.1-30.6c0-11-17.6-20-39.2-20c-21.7,0-39.2,8.9-39.2,20
	c0,10.1,14.8,27.8,34.1,30.6v15.8c-0.1,0.3-0.1,0.6-0.1,0.9c0,0.6,0,1.2,0.1,1.8c-0.9,8-7.7,14.2-15.9,14.2c-8.8,0-16-7.2-16-16
	c0-2.9-2.3-5.2-5.2-5.2c-2.9,0-5.2,2.3-5.2,5.2c0,14.5,11.8,26.4,26.4,26.4c8.6,0,16.3-4.2,21.1-10.6c4.8,6.4,12.5,10.6,21.1,10.6
	c14.5,0,26.4-11.8,26.4-26.4C7466.7,4524,7464.4,4521.7,7461.5,4521.7z"/>
<ellipse transform="matrix(0.9154 -0.4025 0.4025 0.9154 -1156.3545 3296.4954)" class="st3" cx="7265.5" cy="4399.7" rx="117.7" ry="117.7"/>
<ellipse transform="matrix(0.9154 -0.4025 0.4025 0.9154 -1129.7433 3423.1335)" class="st3" cx="7580.2" cy="4399.7" rx="117.7" ry="117.7"/>
<path class="st2" d="M7401.9,4326c0.8-13.2,0-25.8-4.4-25.8c-4.3,0-7.8,8.3-8.6,21.5c-0.8,13.2,0,26.4,5.8,26.4
	C7400.5,4348.1,7401.1,4339.2,7401.9,4326z"/>
<path class="st2" d="M7436.7,4326c-0.8-13.2,0-25.8,4.4-25.8c4.3,0,7.8,8.3,8.6,21.5c0.8,13.2,0,26.4-5.8,26.4
	C7438.1,4348.1,7437.4,4339.2,7436.7,4326z"/>
<path class="st2" d="M7723.4,4652c3.4,32.7,1.7,68.9-14.1,102.1c2.7,0.4,5.5,0.7,8.4,0.7c28.5,0,51.5-23.1,51.5-51.5
	C7769.2,4676.7,7749.1,4654.8,7723.4,4652z"/>
<g>
	<path class="st4" d="M7166.5,4412.1c0,59.1,47.9,107,107,107c59.1,0,107-47.9,107-107c0-59.1-47.9-107-107-107
		C7214.4,4305.1,7166.5,4353,7166.5,4412.1z M7300.1,4331.8c12.3,18.5-24.6,36.9-43.1,49.2c-18.5,12.3-49.2,30.8-67.7,18.5
		c-18.5-12.3,12.3-55.4,30.8-67.7C7238.6,4319.5,7287.8,4313.3,7300.1,4331.8z"/>
	<path class="st4" d="M7573,4305c-59.1,0-107,47.9-107,107c0,59.1,47.9,107,107,107c59.1,0,107-47.9,107-107
		C7680,4352.9,7632.1,4305,7573,4305z M7521.6,4374.8c-18.5,24.6-36.9,43.1-43.1,30.8c-6.2-12.3,4-33.6,18.5-55.4
		c12.3-18.5,36.9-30.8,43.1-24.6C7549.7,4335.3,7532,4360.9,7521.6,4374.8z"/>
</g>
<path class="st2" d="M7734.7,4475.7c0-13-1.1-28.2-3.6-44.8c-25.2,119.8-178.3,181.3-309.4,181.3c-133,0-286.3-62.3-309.9-183.7
	c-2.2,17.1-3.1,33.1-3.1,47.2c0,95.4,75.1,159.8,167.9,192.2c-8,3.7-14.7,10.9-18.1,20.1c-0.6,0.3-1.2,0.5-1.8,0.8
	c-3.1-2.3-6.6-3.9-10.6-4.8c-16.8-3.7-33.9,8.4-38,27.2c-1.7,7.6-1,15.1,1.5,21.5c-6.3,10.7-11.1,22.7-14,35.7
	c-13.3,60,36.8,78.6,90.7,90.5c53.9,11.9,91.2,12.8,104.5-47.3c4.1-18.6,3.8-37-0.2-53.9c2.8-3.9,4.8-8.5,6-13.6
	c4.2-18.7-6.1-37-23-40.7c-4.1-0.9-8.2-0.9-12.2,0c-0.7-6.1-2.8-11.7-6.1-16.4c22.2,3.3,44.4,5,66.1,5c16.7,0,33.8-1,50.9-3
	c-5.7,6.7-8.6,16.1-7.8,25.9c-0.4,0.5-0.8,1-1.2,1.5c-3.8-0.7-7.7-0.7-11.6,0.2c-16.8,3.8-27.1,22-22.9,40.8
	c1.7,7.6,5.5,14.1,10.5,18.9c-1.2,12.4-0.4,25.3,2.5,38.3c13.5,60,66.7,55.5,120.6,43.4c53.9-12.1,88-27.2,74.6-87.2
	c-4.2-18.6-12.3-35.1-23-48.7c0.8-4.7,0.8-9.8-0.4-14.9c-4.2-18.7-21.3-30.9-38.1-27.1c-4.1,0.9-7.8,2.7-11,5.1
	c-3.3-5.5-7.9-9.8-13.2-12.6C7651,4642.2,7734.7,4576.1,7734.7,4475.7z M7245.4,4721.8c-1.4,6.2-7,10.3-12.6,9s-9-7.3-7.6-13.5
	c1.4-6.2,7-10.3,12.6-9C7243.4,4709.5,7246.8,4715.6,7245.4,4721.8z M7274.1,4699c1.4-6.2,7-10.3,12.6-9c5.6,1.2,9,7.3,7.6,13.5
	c-1.4,6.2-7,10.3-12.6,9S7272.7,4705.2,7274.1,4699z M7344.3,4794.5c-5.2,23.3-24.4,18.6-45.3,14s-57.3-6.4-52.2-29.6
	s35.7-36.7,56.6-32.1C7324.4,4751.3,7349.5,4771.2,7344.3,4794.5z M7316.9,4708.4c1.4-6.2,7-10.3,12.6-9c5.6,1.2,9,7.3,7.6,13.5
	c-1.4,6.2-7,10.3-12.6,9S7315.5,4714.7,7316.9,4708.4z M7365.4,4727.8c5.6,1.2,9,7.3,7.6,13.5s-7,10.3-12.6,9
	c-5.6-1.2-9-7.3-7.6-13.5C7354.1,4730.6,7359.8,4726.5,7365.4,4727.8z M7314.4,4680.2c-0.3-0.5-0.6-1-0.9-1.4
	c0.7,0.2,1.5,0.4,2.2,0.5C7315.3,4679.6,7314.8,4679.9,7314.4,4680.2z M7459.6,4764.7c-5.6,1.3-11.3-2.8-12.7-9
	c-1.4-6.2,2-12.3,7.6-13.5c5.6-1.3,11.3,2.8,12.7,9S7465.2,4763.5,7459.6,4764.7z M7483.5,4718.4c-1.4-6.2,2-12.3,7.6-13.5
	c5.6-1.3,11.3,2.8,12.7,9s-2,12.3-7.6,13.5C7490.5,4728.7,7484.9,4724.6,7483.5,4718.4z M7578.4,4705.7c5.6-1.3,11.3,2.8,12.7,9
	c1.4,6.2-2,12.3-7.6,13.5c-5.6,1.3-11.3-2.8-12.7-9S7572.8,4706.9,7578.4,4705.7z M7587.6,4775c5.2,23.3-14.2,27.2-35.1,31.9
	c-20.9,4.7-54.6,18.6-59.8-4.7c-5.2-23.3,16.8-48.4,37.7-53.1C7551.3,4744.4,7582.4,4751.7,7587.6,4775z M7533.9,4695.2
	c5.6-1.3,11.3,2.8,12.7,9c1.4,6.2-2,12.3-7.6,13.5c-5.6,1.3-11.3-2.8-12.7-9S7528.3,4696.5,7533.9,4695.2z M7512,4684.3
	c-0.6-0.4-1.2-0.8-1.8-1.2c1-0.2,1.9-0.4,2.8-0.6C7512.7,4683.1,7512.4,4683.7,7512,4684.3z"/>
<g>
	<path class="st5" d="M7867.9,4505.2c-31.2-13.1-44.2-11.7-48.7-10.2l5-6.6c0,0,0,0,0,0c11,2.8,29.9,3,52.1,1.4
		c22.3-1.6,38.4-13.4,38.4-13.4s-28.5-5.6-53.4-3.2c-13.6,1.3-23.4,5.7-29.5,9.4c0.7-1.4,1.3-3,1.7-4.7c2.3-8.9,44.3-69.6,50.4-77.1
		c6.1-7.6,24.7-29.5,22.3-34.1c-4.7-8.8-14.3-9-20.5-13.1c-6.2-4.1-14.8-12.5-20.9-14c-3.9-0.9-12.5,20-20.5,37.1
		c0.4-18.4-0.2-46-6.1-62.1c-9.4-25.6-33.6-81-33.6-81s-3,60,6.5,85.6c7,19,21.5,51.6,28.4,67.2c-0.8,1.6-1.7,3.2-2.5,4.5
		c-0.9,1.6-2.1,3.4-3.5,5.5c-1.5-10-6.7-28.3-25.1-46.7c-27.3-27.4-53.7-40.2-55.8-43.1c0,0,13.4,34.7,27.9,50.2
		c12.2,13.1,40.2,34.8,50.1,43.9c-13.5,19.3-38.7,50.4-42.3,55.9c-4.2,6.5-2.3,12.4,17.2,25.1c7.2,4.7,14.6,6.5,18.6,6.6l-5.4,7.2
		c-4.5-3-14.7-6.6-19.9-9.1c-5.9-2.7-11.6-7.5-14.5-10.4c-2.9-2.9-8.1-3.1-9.1-0.1c-1.1,3-20.9,37.9-25.9,47.9
		c-5,10-34.7,49-39.7,54.3c-5,5.2-10.4,13.4-10.7,16.4c-0.3,3,12.3,12.8,18.3,16.8c6,3.9,12.4,7,17.3,9.2c5,2.2,10.1-2.4,11.8-8.2
		c1.7-5.8,32-54,41.1-68.7c6.5-10.5,20.9-27.4,28.2-37.5c2.8,8.8,8.5,24.8,15.2,34.1c9.7,13.2,32.4,28.9,32.4,28.9
		s-6.9-26.8-17.8-40.9c-7.9-10.2-20.9-20.5-27.6-25.4c1.3-2,2.1-3.6,2.1-4.5c6.2,4.4,22.1,14.6,50.5,26.2c38,15.6,51,8.7,51,8.7
		S7909.3,4522.6,7867.9,4505.2z"/>
	<path class="st5" d="M7113.6,4509.8c-8.4-19.6-20.6-64.6-28.1-75.1l-10.9-20l0,0c-5.6-13.2-32.5-56.2-37.5-70
		c-5.8-16.1-23-73.1-29.2-76.6c-6.2-3.4-21.4-0.7-31.1,4.6c-9.6,5.4-26.9,14.9-24.4,20.2s24.1,33.4,33.8,54.6
		c6.5,14.2,15.7,36.7,22.1,53.4c-8,1.6-28.4,6.9-48,21.4c-25.1,18.5-42.3,40.2-44.8,41c0,0,38.4-10.9,50.1-18.3
		c10.6-6.7,34.4-29.3,43.7-41.3c1.4,3.7,2.6,7.1,3.6,9.9c-4.7,3.3-25.8,18.8-39.2,42.3c-15.2,26.6-33,61.5-37.4,64.3
		c0,0,27.7-6.7,46.6-34.8c18-26.8,28-52.4,30.6-70c0.6,1.7,1,3.2,1.3,4.3c3,11.3,0.6,18.6,9,19.8c6.5,0.9,19.2-11.3,25.7-14.5
		c6.4-3.1,23.6-4.9,26.6-7.4l8.2,15c-7-2.7-24.3,2.1-34.8,7.2c-10.6,5.1-22.1,12.4-19.9,18.2c2.2,5.8,25.4,36.2,33.1,52.9
		c7.7,16.7,27.5,70.3,29.1,78.3c1.6,8,0.9,14.7,8.9,15.6c7.3,0.9,16.1-11.5,23.6-14c7.5-2.4,24.4-5.4,26.9-9.2
		S7122.9,4531.4,7113.6,4509.8z"/>
</g>
<g>
	<path class="st2" d="M7598.9,4032.4c-47.8,0-88.7,29.7-105.3,71.6c-20.4-14.7-116.2-81.5-141.2-60.5c-13.2,11.1-11.3,33,4.4,41.8
		c0,0-42.3-14.4-44.2,20.3c-16.2-42.8-57.5-73.2-106-73.2c-62.5,0-133.2,70.7-133.2,133.2c0,41.2,30.6,68.5,69.4,82.4
		c28.6-56.7,80.2-109.3,170.7-133.3c8,24.8,61.8,19.9,88.7,8.4c20.9-9,95-16.4,95.3-16.4c98.8,16.8,158.6,69.2,193.5,127.7
		c24.4-15.5,41.2-38.4,41.2-68.8C7732.2,4103.1,7661.5,4032.4,7598.9,4032.4z"/>
	<g>
		<path class="st6" d="M7653.1,4040.5c-15.4-3.4-30.6,6.4-33.9,21.8c-1.3,6-0.6,12.1,1.7,17.3c-11.5,3.5-25.5,5-40.6,0.3
			c-18.5-5.7-25.9-26.8-28.9-41.5c9.2-3.1,16.6-10.8,18.8-21c3.4-15.4-6.4-30.6-21.8-33.9c-15.4-3.4-30.6,6.4-33.9,21.8
			c-2.6,11.9,2.7,23.8,12.4,30c-10.4,14.4-26.8,23.7-48,22.1c-12.3-1-23.2-8.1-31.7-16c4.1-3.8,7.2-8.9,8.5-14.9
			c3.4-15.4-6.4-30.6-21.8-33.9c-15.4-3.4-30.6,6.4-33.9,21.8c-3.4,15.4,6.4,30.6,21.8,33.9c1.6,0.3,3.2,0.5,4.7,0.6l14.6,62.3
			c0,0,48.1,4.5,85,12.5c36.8,8,71,21.5,71,21.5l42-49.6c0.6,0.2,1.3,0.4,1.9,0.5c15.4,3.4,30.6-6.4,33.9-21.8
			C7678.2,4059,7668.4,4043.8,7653.1,4040.5z"/>
		<g>
			<path class="st7" d="M7653.1,4040.5c-15.4-3.4-30.6,6.4-33.9,21.8c-1.3,6-0.6,12.1,1.7,17.3c-11.5,3.5-25.5,5-40.6,0.3
				c-18.5-5.7-25.9-26.8-28.9-41.5c9.2-3.1,16.6-10.8,18.8-21c3.4-15.4-6.4-30.6-21.8-33.9c-15.4-3.4-30.6,6.4-33.9,21.8
				c-2.6,11.9,2.7,23.8,12.4,30c-10.4,14.4-26.8,23.7-48,22.1c-12.3-1-23.2-8.1-31.7-16c4.1-3.8,7.2-8.9,8.5-14.9
				c3.4-15.4-6.4-30.6-21.8-33.9c-15.4-3.4-30.6,6.4-33.9,21.8c-3.4,15.4,6.4,30.6,21.8,33.9c1.6,0.3,3.2,0.5,4.7,0.6l7.1,30.3
				c0.7-3.4,2.6-6.4,5.5-8.2c6.6-4.3,16.3-1.1,21.5,7c5.2,8.1,4.1,18.2-2.6,22.5c-6.4,4.1-15.5,1.4-20.8-6.1l3.9,16.8
				c0,0,48.1,4.5,85,12.5c36.8,8,71,21.5,71,21.5l12.4-14.7c-0.2,0.2-0.4,0.3-0.7,0.4c-8.1,5.2-18.2,4.1-22.5-2.6
				c-4.3-6.6-1.1-16.3,7-21.5s18.2-4.1,22.5,2.6c2.4,3.8,2.5,8.6,0.5,13l22.7-26.9c0.6,0.2,1.3,0.4,1.9,0.5
				c15.4,3.4,30.6-6.4,33.9-21.8C7678.2,4059,7668.4,4043.8,7653.1,4040.5z M7523.9,4106.5c-7.7-1.7-12.3-10.7-10.2-20.2
				c2.1-9.5,10-15.8,17.7-14.1c7.7,1.7,12.3,10.7,10.2,20.2C7539.5,4101.9,7531.6,4108.2,7523.9,4106.5z"/>
		</g>
	</g>
</g>
<rect x="0.5" y="-0.5" class="st0" width="1030" height="1030"/>
<path class="st1" d="M792.3,637.6C734.4,711,618.7,748.4,516.4,748.4c-103.1,0-218.6-37.5-276.2-111c-2.8,17.1-5.4,35.8-6.8,54.6
	c-3.6,47.9-110.3,310.7,279.3,310.7c413.4,0,289.2-259.9,285.4-310.7C796.9,673.7,794.7,654.9,792.3,637.6z"/>
<path class="st1" d="M521.9,237.5c-275.4,0-318.4,194.4-318.4,294.5c0,142.9,168.5,216.4,313,216.4c143.3,0,313-73.5,313-216.4
	C829.4,440.9,777.4,237.5,521.9,237.5z"/>
<path class="st2" d="M555.3,658c-2.9,0-5.2,2.3-5.2,5.2c0,8.8-7.2,16-16,16c-8.2,0-15-6.2-15.9-14.2c0-0.6,0.1-1.2,0.1-1.8
	c0-0.3,0-0.6-0.1-0.9v-15.8c19.2-2.8,34.1-20.5,34.1-30.6c0-11-17.6-20-39.2-20c-21.7,0-39.2,8.9-39.2,20
	c0,10.1,14.8,27.8,34.1,30.6v15.8c-0.1,0.3-0.1,0.6-0.1,0.9c0,0.6,0,1.2,0.1,1.8c-0.9,8-7.7,14.2-15.9,14.2c-8.8,0-16-7.2-16-16
	c0-2.9-2.3-5.2-5.2-5.2c-2.9,0-5.2,2.3-5.2,5.2c0,14.5,11.8,26.4,26.4,26.4c8.6,0,16.3-4.2,21.1-10.6c4.8,6.4,12.5,10.6,21.1,10.6
	c14.5,0,26.4-11.8,26.4-26.4C560.5,660.3,558.2,658,555.3,658z"/>
<ellipse transform="matrix(0.9154 -0.4025 0.4025 0.9154 -185.3546 189.955)" class="st3" cx="359.3" cy="536" rx="117.7" ry="117.7"/>
<ellipse transform="matrix(0.9154 -0.4025 0.4025 0.9154 -158.7433 316.5932)" class="st3" cx="673.9" cy="536" rx="117.7" ry="117.7"/>
<path class="st2" d="M495.7,462.3c0.8-13.2,0-25.8-4.4-25.8c-4.3,0-7.8,8.3-8.6,21.5c-0.8,13.2,0,26.4,5.8,26.4
	C494.2,484.4,494.9,475.6,495.7,462.3z"/>
<path class="st2" d="M530.4,462.3c-0.8-13.2,0-25.8,4.4-25.8c4.3,0,7.8,8.3,8.6,21.5s0,26.4-5.8,26.4
	C531.9,484.4,531.2,475.6,530.4,462.3z"/>
<path class="st2" d="M817.2,788.3c3.4,32.7,1.7,68.9-14.1,102.1c2.7,0.4,5.5,0.7,8.4,0.7c28.5,0,51.5-23.1,51.5-51.5
	C862.9,813,842.9,791.2,817.2,788.3z"/>
<g>
	<path class="st4" d="M260.2,548.4c0,59.1,47.9,107,107,107c59.1,0,107-47.9,107-107c0-59.1-47.9-107-107-107
		C308.1,441.4,260.2,489.3,260.2,548.4z M393.9,468.1c12.3,18.5-24.6,36.9-43.1,49.2c-18.5,12.3-49.2,30.8-67.7,18.5
		c-18.5-12.3,12.3-55.4,30.8-67.7C332.4,455.8,381.6,449.6,393.9,468.1z"/>
	<path class="st4" d="M666.8,441.3c-59.1,0-107,47.9-107,107c0,59.1,47.9,107,107,107c59.1,0,107-47.9,107-107
		C773.8,489.2,725.9,441.3,666.8,441.3z M615.3,511.1c-18.5,24.6-36.9,43.1-43.1,30.8c-6.2-12.3,4-33.6,18.5-55.4
		c12.3-18.5,36.9-30.8,43.1-24.6C643.5,471.7,625.8,497.2,615.3,511.1z"/>
</g>
<path class="st2" d="M828.5,612c0-13-1.1-28.2-3.6-44.8C799.7,687,646.6,748.4,515.5,748.4c-133,0-286.3-62.3-309.9-183.7
	c-2.2,17.1-3.1,33.1-3.1,47.2c0,95.4,75.1,159.8,167.9,192.2c-8,3.7-14.7,10.9-18.1,20.1c-0.6,0.3-1.2,0.5-1.8,0.8
	c-3.1-2.3-6.6-3.9-10.6-4.8c-16.8-3.7-33.9,8.4-38,27.2c-1.7,7.6-1,15.1,1.5,21.5c-6.3,10.7-11.1,22.7-14,35.7
	c-13.3,60,36.8,78.6,90.7,90.5c53.9,11.9,91.2,12.8,104.5-47.3c4.1-18.6,3.8-37-0.2-53.9c2.8-3.9,4.8-8.5,6-13.6
	c4.2-18.7-6.1-37-23-40.7c-4.1-0.9-8.2-0.9-12.2,0c-0.7-6.1-2.8-11.7-6.1-16.4c22.2,3.3,44.4,5,66.1,5c16.7,0,33.8-1,50.9-3
	c-5.7,6.7-8.6,16.1-7.8,25.9c-0.4,0.5-0.8,1-1.2,1.5c-3.8-0.7-7.7-0.7-11.6,0.2c-16.8,3.8-27.1,22-22.9,40.8
	c1.7,7.6,5.5,14.1,10.5,18.9c-1.2,12.4-0.4,25.3,2.5,38.3c13.5,60,66.7,55.5,120.6,43.4c53.9-12.1,88-27.2,74.6-87.2
	c-4.2-18.6-12.3-35.1-23-48.7c0.8-4.7,0.8-9.8-0.4-14.9c-4.2-18.7-21.3-30.9-38.1-27.1c-4.1,0.9-7.8,2.7-11,5.1
	c-3.3-5.5-7.9-9.8-13.2-12.6C744.8,778.5,828.5,712.4,828.5,612z M339.2,858.1c-1.4,6.2-7,10.3-12.6,9s-9-7.3-7.6-13.5
	c1.4-6.2,7-10.3,12.6-9C337.2,845.8,340.6,851.9,339.2,858.1z M367.8,835.3c1.4-6.2,7-10.3,12.6-9c5.6,1.2,9,7.3,7.6,13.5
	c-1.4,6.2-7,10.3-12.6,9S366.5,841.6,367.8,835.3z M438.1,930.8c-5.2,23.3-24.4,18.6-45.3,14s-57.3-6.4-52.2-29.6
	s35.7-36.7,56.6-32.1C418.2,887.7,443.3,907.5,438.1,930.8z M410.7,844.8c1.4-6.2,7-10.3,12.6-9c5.6,1.2,9,7.3,7.6,13.5
	c-1.4,6.2-7,10.3-12.6,9S409.3,851,410.7,844.8z M459.1,864.1c5.6,1.2,9,7.3,7.6,13.5s-7,10.3-12.6,9c-5.6-1.2-9-7.3-7.6-13.5
	C447.9,866.9,453.5,862.9,459.1,864.1z M408.2,816.6c-0.3-0.5-0.6-1-0.9-1.4c0.7,0.2,1.5,0.4,2.2,0.5
	C409,816,408.6,816.3,408.2,816.6z M553.4,901.1c-5.6,1.3-11.3-2.8-12.7-9c-1.4-6.2,2-12.3,7.6-13.5c5.6-1.3,11.3,2.8,12.7,9
	S559,899.8,553.4,901.1z M577.3,854.7c-1.4-6.2,2-12.3,7.6-13.5c5.6-1.3,11.3,2.8,12.7,9s-2,12.3-7.6,13.5
	C584.3,865,578.7,861,577.3,854.7z M672.1,842c5.6-1.3,11.3,2.8,12.7,9c1.4,6.2-2,12.3-7.6,13.5c-5.6,1.3-11.3-2.8-12.7-9
	S666.5,843.3,672.1,842z M681.4,911.3c5.2,23.3-14.2,27.2-35.1,31.9c-20.9,4.7-54.6,18.6-59.8-4.7c-5.2-23.3,16.8-48.4,37.7-53.1
	C645.1,880.7,676.2,888,681.4,911.3z M627.6,831.6c5.6-1.3,11.3,2.8,12.7,9c1.4,6.2-2,12.3-7.6,13.5c-5.6,1.3-11.3-2.8-12.7-9
	S622,832.8,627.6,831.6z M605.8,820.6c-0.6-0.4-1.2-0.8-1.8-1.2c1-0.2,1.9-0.4,2.8-0.6C606.5,819.4,606.1,820,605.8,820.6z"/>
<g>
	<path class="st5" d="M961.7,641.5c-31.2-13.1-44.2-11.7-48.7-10.2l5-6.6c0,0,0,0,0,0c11,2.8,29.9,3,52.1,1.4
		c22.3-1.6,38.4-13.4,38.4-13.4s-28.5-5.6-53.4-3.2c-13.6,1.3-23.4,5.7-29.5,9.4c0.7-1.4,1.3-3,1.7-4.7c2.3-8.9,44.3-69.6,50.4-77.1
		c6.1-7.6,24.7-29.5,22.3-34.1c-4.7-8.8-14.3-9-20.5-13.1c-6.2-4.1-14.8-12.5-20.9-14c-3.9-0.9-12.5,20-20.5,37.1
		c0.4-18.4-0.2-46-6.1-62.1c-9.4-25.6-33.6-81-33.6-81s-3,60,6.5,85.6c7,19,21.5,51.6,28.4,67.2c-0.8,1.6-1.7,3.2-2.5,4.5
		c-0.9,1.6-2.1,3.4-3.5,5.5c-1.5-10-6.7-28.3-25.1-46.7c-27.3-27.4-53.7-40.2-55.8-43.1c0,0,13.4,34.7,27.9,50.2
		c12.2,13.1,40.2,34.8,50.1,43.9c-13.5,19.3-38.7,50.4-42.3,55.9c-4.2,6.5-2.3,12.4,17.2,25.1c7.2,4.7,14.6,6.5,18.6,6.6l-5.4,7.2
		c-4.5-3-14.7-6.6-19.9-9.1c-5.9-2.7-11.6-7.5-14.5-10.4c-2.9-2.9-8.1-3.1-9.1-0.1c-1.1,3-20.9,37.9-25.9,47.9
		c-5,10-34.7,49-39.7,54.3c-5,5.2-10.4,13.4-10.7,16.4c-0.3,3,12.3,12.8,18.3,16.8c6,3.9,12.4,7,17.3,9.2c5,2.2,10.1-2.4,11.8-8.2
		c1.7-5.8,32-54,41.1-68.7c6.5-10.5,20.9-27.4,28.2-37.5c2.8,8.8,8.5,24.8,15.2,34.1c9.7,13.2,32.4,28.9,32.4,28.9
		s-6.9-26.8-17.8-40.9c-7.9-10.2-20.9-20.5-27.6-25.4c1.3-2,2.1-3.6,2.1-4.5c6.2,4.4,22.1,14.6,50.5,26.2c38,15.6,51,8.7,51,8.7
		S1003.1,658.9,961.7,641.5z"/>
	<path class="st5" d="M207.3,646.1c-8.4-19.6-20.6-64.6-28.1-75.1l-10.9-20l0,0c-5.6-13.2-32.5-56.2-37.5-70
		c-5.8-16.1-23-73.1-29.2-76.6c-6.2-3.4-21.4-0.7-31.1,4.6c-9.6,5.4-26.9,14.9-24.4,20.2s24.1,33.4,33.8,54.6
		c6.5,14.2,15.7,36.7,22.1,53.4c-8,1.6-28.4,6.9-48,21.4C29,577,11.8,598.7,9.3,599.5c0,0,38.4-10.9,50.1-18.3
		c10.6-6.7,34.4-29.3,43.7-41.3c1.4,3.7,2.6,7.1,3.6,9.9c-4.7,3.3-25.8,18.8-39.2,42.3c-15.2,26.6-33,61.5-37.4,64.3
		c0,0,27.7-6.7,46.6-34.8c18-26.8,28-52.4,30.6-70c0.6,1.7,1,3.2,1.3,4.3c3,11.3,0.6,18.6,9,19.8c6.5,0.9,19.2-11.3,25.7-14.5
		c6.4-3.1,23.6-4.9,26.6-7.4l8.2,15c-7-2.7-24.3,2.1-34.8,7.2c-10.6,5.1-22.1,12.4-19.9,18.2c2.2,5.8,25.4,36.2,33.1,52.9
		c7.7,16.7,27.5,70.3,29.1,78.3c1.6,8,0.9,14.7,8.9,15.6c7.3,0.9,16.1-11.5,23.6-14c7.5-2.4,24.4-5.4,26.9-9.2
		S216.7,667.8,207.3,646.1z"/>
</g>
<g>
	<path class="st2" d="M692.7,168.7c-47.8,0-88.7,29.7-105.3,71.6c-20.4-14.7-116.2-81.5-141.2-60.5c-13.2,11.1-11.3,33,4.4,41.8
		c0,0-42.3-14.4-44.2,20.3c-16.2-42.8-57.5-73.2-106-73.2c-62.5,0-133.2,70.7-133.2,133.2c0,41.2,30.6,68.5,69.4,82.4
		c28.6-56.7,80.2-109.3,170.7-133.3c8,24.8,61.8,19.9,88.7,8.4c20.9-9,95-16.4,95.3-16.4c98.8,16.8,158.6,69.2,193.5,127.7
		c24.4-15.5,41.2-38.4,41.2-68.8C826,239.4,755.3,168.7,692.7,168.7z"/>
	<g>
		<path class="st6" d="M746.8,176.8c-15.4-3.4-30.6,6.4-33.9,21.8c-1.3,6-0.6,12.1,1.7,17.3c-11.5,3.5-25.5,5-40.6,0.3
			c-18.5-5.7-25.9-26.8-28.9-41.5c9.2-3.1,16.6-10.8,18.8-21c3.4-15.4-6.4-30.6-21.8-33.9c-15.4-3.4-30.6,6.4-33.9,21.8
			c-2.6,11.9,2.7,23.8,12.4,30c-10.4,14.4-26.8,23.7-48,22.1c-12.3-1-23.2-8.1-31.7-16c4.1-3.8,7.2-8.9,8.5-14.9
			c3.4-15.4-6.4-30.6-21.8-33.9c-15.4-3.4-30.6,6.4-33.9,21.8c-3.4,15.4,6.4,30.6,21.8,33.9c1.6,0.3,3.2,0.5,4.7,0.6l14.6,62.3
			c0,0,48.1,4.5,85,12.5c36.8,8,71,21.5,71,21.5l42-49.6c0.6,0.2,1.3,0.4,1.9,0.5c15.4,3.4,30.6-6.4,33.9-21.8
			C772,195.3,762.2,180.2,746.8,176.8z"/>
		<g>
			<path class="st7" d="M746.8,176.8c-15.4-3.4-30.6,6.4-33.9,21.8c-1.3,6-0.6,12.1,1.7,17.3c-11.5,3.5-25.5,5-40.6,0.3
				c-18.5-5.7-25.9-26.8-28.9-41.5c9.2-3.1,16.6-10.8,18.8-21c3.4-15.4-6.4-30.6-21.8-33.9c-15.4-3.4-30.6,6.4-33.9,21.8
				c-2.6,11.9,2.7,23.8,12.4,30c-10.4,14.4-26.8,23.7-48,22.1c-12.3-1-23.2-8.1-31.7-16c4.1-3.8,7.2-8.9,8.5-14.9
				c3.4-15.4-6.4-30.6-21.8-33.9c-15.4-3.4-30.6,6.4-33.9,21.8c-3.4,15.4,6.4,30.6,21.8,33.9c1.6,0.3,3.2,0.5,4.7,0.6l7.1,30.3
				c0.7-3.4,2.6-6.4,5.5-8.2c6.6-4.3,16.3-1.1,21.5,7s4.1,18.2-2.6,22.5c-6.4,4.1-15.5,1.4-20.8-6.1l3.9,16.8c0,0,48.1,4.5,85,12.5
				c36.8,8,71,21.5,71,21.5l12.4-14.7c-0.2,0.2-0.4,0.3-0.7,0.4c-8.1,5.2-18.2,4.1-22.5-2.6c-4.3-6.6-1.1-16.3,7-21.5
				c8.1-5.2,18.2-4.1,22.5,2.6c2.4,3.8,2.5,8.6,0.5,13l22.7-26.9c0.6,0.2,1.3,0.4,1.9,0.5c15.4,3.4,30.6-6.4,33.9-21.8
				C772,195.3,762.2,180.2,746.8,176.8z M617.6,242.8c-7.7-1.7-12.3-10.7-10.2-20.2c2.1-9.5,10-15.8,17.7-14.1
				c7.7,1.7,12.3,10.7,10.2,20.2C633.3,238.2,625.3,244.5,617.6,242.8z"/>
		</g>
	</g>
</g>
</svg>
