<?xml version="1.0" encoding="utf-8"?>
<!-- Generator: Adobe Illustrator 26.0.2, SVG Export Plug-In . SVG Version: 6.00 Build 0)  -->
<svg version="1.1" id="Layer_1" xmlns="http://www.w3.org/2000/svg" xmlns:xlink="http://www.w3.org/1999/xlink" x="0px" y="0px"
	 viewBox="0 0 1031.3 1030" style="enable-background:new 0 0 1031.3 1030;" xml:space="preserve">
<style type="text/css">
	.st0{fill:none;}
	.st1{fill:#656565;}
	.st2{fill:#7E7E7E;}
	.st3{fill:#C2C2C2;}
	.st4{fill:#909090;}
	.st5{fill:#E4E4E4;}
	.st6{fill:#E6E6E6;}
	.st7{fill:#202020;}
	.st8{fill:#FFFFFF;}
	.st9{opacity:0.33;fill:#FFFFFF;enable-background:new    ;}
	.st10{opacity:0.1;enable-background:new    ;}
	.st11{fill:#F6F6F6;}
	.st12{fill:#828282;}
	.st13{fill:#B4B4B4;}
</style>
<rect x="1.3" class="st0" width="1030" height="1030"/>
<path class="st1" d="M1011.2,615c-1.6-2.4-4.7-3-7.1-1.5c0,0,0,0,0,0l-15.2,10L813.4,564c12.2,23.2,25.9,47.1,38.3,68l133.4-5.9
	L798.5,749.4c0.7,3.3,1.5,6.9,2.4,10.8l189.8-125.4L933,755.1c14.3,19.6,31,41.6,47.5,61.9l14-184.8l15.2-10.1
	C1012.1,620.6,1012.8,617.4,1011.2,615C1011.2,615,1011.2,615,1011.2,615z"/>
<path class="st2" d="M50.5,651.3c30-57.9,88.9-95.1,154.1-97.3c-0.9-7.1-1.3-14.2-1.3-21.3c0-2.8,0-5.8,0.1-8.8
	c-76,2.7-144.6,46.1-179.6,113.5c-53.7,103.3-13.4,230.6,89.9,284.3l97.2-187.1L127.6,895C39,849,4.5,739.9,50.5,651.3z"/>
<path class="st3" d="M238.7,636.3c-13.2-17-23-36.4-29-57.1c-2.4-8.3-4.1-16.7-5.1-25.2c-65.2,2.3-124.1,39.4-154.1,97.3
	C4.5,739.9,39,849,127.6,895l83.3-160.4l26.6-51.2c1.9-11.6,3.9-22.5,5.9-32.3c1.8-0.8,3.6-1.8,5.4-2.6
	C245.2,644.5,241.9,640.5,238.7,636.3z"/>
<path class="st4" d="M995.5,625.4L783.7,500.5c6.4,17.9,17.3,40.3,29.7,63.6l181.4,61.5v0.1l-143,6.4c21.1,35.3,57,89.8,81.3,123
	l61.9-129.2h0.1L980.5,817c16.6,20.6,32.9,39.4,46.9,52.3L995.5,625.4z"/>
<path class="st5" d="M521.7,238.2c-275.4,0-318.4,194.4-318.4,294.5c0,142.9,168.6,216.4,313,216.4c143.3,0,313-73.5,313-216.4
	C829.3,441.6,777.3,238.2,521.7,238.2z"/>
<ellipse transform="matrix(0.9155 -0.4024 0.4024 0.9155 -181.6933 190.8507)" class="st6" cx="363.4" cy="527.8" rx="117.9" ry="117.9"/>
<ellipse transform="matrix(0.9155 -0.4024 0.4024 0.9155 -155.0529 317.7021)" class="st6" cx="678.6" cy="527.9" rx="117.9" ry="117.9"/>
<path class="st7" d="M556.7,611.2c-4.1-0.3-8.8,0.4-14.1,1.2c-6.5,1-14,2.1-21.6,1.6s-14.8-2.8-21.1-4.8c-5.2-1.6-9.7-3-13.8-3.3
	c-5.4-0.4-14.7,1.1-15.8,15.8c-1.8,24.2,19.1,45.5,46.5,47.6s51.3-15.9,53.1-40.1C571.1,614.5,562.2,611.6,556.7,611.2z"/>
<path class="st3" d="M785.3,645.7c-59.8,68-170.6,102.7-269,102.7c-100.5,0-212.7-35.6-271.7-105.4c-5,23.9-10.9,56.4-13.3,89.1
	c-3.6,47.9-84.7,270.3,281.3,270.3c390.8,0,287.2-219.5,283.4-270.3C793.8,701.3,789.2,669.7,785.3,645.7z"/>
<path class="st8" d="M769.8,886.8c-25.3-8.3-50.1-18-74.2-29.1c20.3-21,39.4-43.3,57.1-66.5c18.7,7.6,37.9,14.1,57.4,19.5
	c-0.3-2.8-0.6-5.6-1-8.4c-17.5-4.9-34.6-10.8-51.5-17.6c13.6-18.3,26.3-37.4,38-57c-0.4-4.4-0.8-8.9-1.2-13.3v0.1
	c-19-8.2-37.5-17.4-55.5-27.7c-2.4,1.6-4.9,3.2-7.4,4.8c19.1,11,38.8,20.9,59,29.6c-12.4,20.8-25.9,41-40.4,60.4
	c-23.6-10-46.7-21.3-69-33.9c16.4-17.3,32-35.2,46.9-53.9c-6.1,3.7-12.5,7.3-19,10.6c-11.3,13.4-23,26.4-35.1,39.1
	c-8.2-4.8-16.4-9.7-24.5-14.8c-3.3,1.1-6.7,2.1-10.1,3.1c9.5,6.1,19.2,12,29,17.7c-20.3,20.9-41.8,40.7-64,59.6
	c-25.9-15.7-51.1-32.6-75.3-50.2c4.3-3.4,8.5-6.9,12.8-10.4c-4.4,0.3-8.7,0.4-13.1,0.6l-6.2,5c-1.8-1.3-3.5-2.5-5.2-3.8l-1.4-1.1
	c-4.4,0-8.7-0.1-13.1-0.2c4.5,3.4,9,6.8,13.5,10.2c-22.8,18.2-46.4,35.8-70.8,52.4c-23.4-18.4-45.9-37.9-67.3-58.6
	c8.8-5.9,17.5-11.9,26.1-18.1c-3.1-0.8-6.3-1.7-9.4-2.5c-7.3,5.2-14.7,10.3-22.2,15.2c-11.7-11.6-23.1-23.5-34.1-35.8
	c-6.1-2.8-12-5.7-17.8-8.8c14.5,16.9,29.7,33.2,45.6,48.8c-20.3,13.3-41.4,25.7-62.8,36.9c-15.4-19.4-29.7-39.6-42.7-60.7
	c16.9-9.5,33.5-19.8,49.8-30.7c-2.4-1.4-4.9-2.9-7.3-4.3c-15.2,10-30.7,19.6-46.5,28.4c-7-11.7-13.5-23.6-19.6-35.8
	c-0.7,4.3-1.3,8.7-2,13.2c4.7,8.9,9.6,17.6,14.7,26.3c-6.1,3.3-12.3,6.5-18.6,9.6c-0.2,2.6-0.7,5.7-1.3,9.2c8-3.9,16-8,23.9-12.3
	c13,21,27.2,41.2,42.5,60.5c-18.5,9.4-37.3,17.9-56.6,25.4c-5.9-10.5-11.3-21.1-16.4-31.9c-0.6,4.8-1.1,9.7-1.4,14.8
	c3.3,6.7,6.8,13.3,10.5,19.8c-3.7,1.4-7.4,2.7-11.1,4c0.1,2.7,0.2,5.4,0.3,8.2c4.9-1.7,9.8-3.5,14.7-5.3
	c14.6,25.1,31.2,49.2,49.4,71.8c-12.5,5.2-25.1,10.1-37.9,14.6c1.5,2.2,3.1,4.4,4.8,6.6c12.9-4.6,25.6-9.6,38.2-14.9
	c18,21.9,37.4,42.6,58.1,62c-6.7,2.7-13.5,5.3-20.3,7.8c3.5,1.5,7.2,2.9,10.9,4.2c5.2-2,10.5-4.1,15.6-6.2
	c6,5.6,12.2,11.1,18.4,16.4c5.2,1.3,10.5,2.5,16,3.6c-9.1-7.5-18-15.2-26.7-23.1c26.7-11.4,52.8-24.1,78.1-38.2
	c26,19.7,53.4,37.5,82,53.3c-11,6.5-22.2,12.6-33.6,18.5c5.1,0.1,10.3,0.2,15.6,0.3c8.7-4.7,17.2-9.5,25.7-14.6
	c8.9,4.7,17.8,9.3,26.9,13.6c5.8-0.3,11.5-0.6,17-1c-12.1-5.4-24.1-11.2-35.9-17.4c22.9-14.1,45.1-29.4,66.4-45.8
	c4.1-3.1,8.2-6.4,12.2-9.6c27.4,13.2,55.7,24.7,84.6,34.3c-7.6,7.4-15.4,14.7-23.4,21.7c6.5-1.9,12.7-3.8,18.7-5.9
	c4.6-4.3,9.1-8.6,13.6-13c3.5,1.1,7,2.1,10.6,3.2c3.6-1.7,7.1-3.4,10.5-5.2c-4.9-1.4-9.9-2.8-14.8-4.3
	c19.9-20.1,38.5-41.4,55.8-63.8c7.6,2.4,15.3,4.7,22.9,6.8c1.2-2.4,2.4-4.8,3.4-7.2c-7.1-2-14.2-4-21.3-6.2
	c11.9-15.8,23-32.1,33.3-48.8c0.2-5.1,0.2-10.1,0-15.1C798.5,846.7,784.8,867.1,769.8,886.8z M675.4,753.5
	c22.5,12.8,45.8,24.3,69.6,34.5c-17.8,23.1-36.9,45.2-57.2,66.1c-26.1-12.2-51.6-26-76.4-40.7C633.6,794.5,655,774.5,675.4,753.5z
	 M522.5,763.8c24.2,17.8,49.3,34.8,75.3,50.6c-17.7,14.8-35.9,29-54.5,42.6c-5.5,4-11,8-16.6,11.9c-9.9-6.3-19.7-12.8-29.4-19.3
	c-15.6-10.6-30.8-21.7-45.8-33.2C475.9,799.7,499.6,782,522.5,763.8z M371.5,757.1c21.4,20.7,43.9,40.3,67.2,58.8
	c-23.1,15.4-46.7,30-71.1,43.5c-21.1-20.3-41-41.9-59.5-64.6C329.8,783.2,350.9,770.6,371.5,757.1L371.5,757.1z M243.7,824.4
	c19.6-7.7,38.8-16.4,57.6-26.1c18.5,22.8,38.4,44.4,59.5,64.8c-22.1,12-44.7,23-67.7,32.8C274.8,873.4,258.3,849.4,243.7,824.4z
	 M356.7,964.2c-20.8-19.3-40.4-40.1-58.5-62c23.3-10.1,46-21.3,68.4-33.6c19.8,18.8,40.4,36.6,61.5,53.2c2.1,1.7,4.3,3.3,6.4,4.9
	C409.2,940.6,383.2,953.1,356.7,964.2L356.7,964.2z M433.3,916.1c-20.5-15.9-40.6-33.1-59.9-51.3c24.5-13.6,48.3-28.4,71.5-44
	c14.4,11.2,29,22.1,43.9,32.5c10.1,7,20.3,13.9,30.7,20.6c-25,17.3-51,33.7-77.7,48.7L433.3,916.1z M605.8,928.2
	C582,947.1,557,964.5,531,980.3c-28.7-15.7-56.3-33.3-82.6-52.8c26.9-15.2,53-31.8,78.1-49.1c26.8,17.1,54.5,32.7,83,46.8
	C608.2,926.2,607,927.2,605.8,928.2L605.8,928.2z M616.5,919.5c-28.3-13.9-56-29.3-82.7-46.1c4.6-3.2,9.2-6.5,13.7-9.7
	c19.6-14.2,38.9-29.1,57.6-44.8c24.9,15,50.6,28.8,76.9,41.2C661.2,881,639.3,900.9,616.5,919.5L616.5,919.5z M708.4,957
	c-28.7-9.4-56.8-20.6-84-33.6c22.9-18.7,44.7-38.6,65.4-59.6c24.4,11.3,49.5,21.2,75,29.7C747.3,915.8,728.4,937,708.4,957z"/>
<path class="st9" d="M244.6,642.9c-1.3,6.3-2.7,13.1-4,20.4l1.2,11.4l1.1,10.5l4.3,40.5l9.6,89.5l6.9,64.4l6.2,58.1
	c10.9,9.9,22.9,18.4,35.9,25.3c9.9,5.4,20.2,10.1,30.8,14c3.2,1.2,6.5,2.4,9.9,3.5l-0.7-12.7l-3.9-67.6l0,0l-5.4-93.4l-5-87.2
	l-0.7-12.2C296.8,690.8,266.9,669.3,244.6,642.9z"/>
<path class="st10" d="M796.1,732.2c-0.4-5.1-0.8-10.2-1.3-15.4c-2.2-22.9-5.4-45.5-8.4-64.3c-0.4-2.3-0.7-4.6-1.1-6.8
	c-20.3,23-46.4,42.3-76,57.6l-1.6,27.9l-1.9,33.9l-1.8,31.2l-3,52.8l-2.9,51.5l-0.6,11.2l-2.7,47.5l-0.6,10.8l-0.5,8.9
	c2.4-0.8,4.7-1.6,6.9-2.4c3.3-1.2,6.5-2.4,9.6-3.7c3.9-1.6,7.7-3.2,11.3-4.9c6.7-3.1,12.9-6.4,18.7-9.9
	c31.2-18.6,49.6-41.5,59.8-65.6c4.7-11.3,7.9-23.1,9.6-35.2c0.7-4.7,1.1-9.4,1.4-14.1c0.7-14.3,0-28.6-2-42.8
	C805,770.6,797.1,745.5,796.1,732.2z"/>
<path class="st8" d="M553.5,634.2c2.5-1.2,4.8-2.7,6.9-4.5c0.4-0.4,2.7-2.1,3.9-3.4c-0.1-6.6-3-8.9-8-9.3c-8-0.6-21.3,3.9-35.7,2.8
	s-26.9-7.5-34.9-8.1c-5-0.4-8.3,1.5-9.3,8.4c1.1,1.4,2.7,3.1,3,3.5c1.8,2.1,3.8,3.9,6.1,5.5c1.7,1.1,3.4,2.1,5.2,3
	c1.1,0.6,2.5,1.2,3.5,1.8c-6.2,0.1-12.3-1.4-17.8-4.2c2.7,17.7,19.5,32.1,40.9,33.7c21.3,1.6,40.2-10.2,45.5-27.4
	c-6,2.1-12.4,2.7-18.7,1.7c1.1-0.5,2.5-0.9,3.7-1.2C549.7,635.7,551.6,635,553.5,634.2z M519.1,638.7c-0.2,0.1-0.5,0.2-0.8,0.3
	c-0.4,0.1-0.7,0.2-1.1,0.3c-0.9,0.2-1.9,0.3-2.8,0.3c-1.1,0-2.2,0-3.2-0.1c-1.1-0.1-2.1-0.3-3.2-0.5c-0.9-0.2-1.8-0.5-2.7-0.8
	c-0.6-0.2-1.3-0.5-1.9-0.8c-0.2-0.1-0.5-0.2-0.7-0.4l0.8-0.1c0.5-0.1,1.2-0.1,2-0.2s1.8,0,2.8,0s2.1,0.1,3.2,0.2
	c0.5,0.1,1.1,0.1,1.6,0.2s1,0.1,1.5,0.2c1,0.1,1.9,0.3,2.7,0.4l1.1,0.2c0.3,0,0.6,0.1,0.9,0.2c0.5,0.1,0.8,0.2,0.8,0.2
	C519.6,638.5,519.4,638.6,519.1,638.7L519.1,638.7z"/>
<path class="st11" d="M243.4,651.1c1.8-0.8,3.6-1.8,5.4-2.6c-3.5-3.9-6.9-8-10-12.1c-9.2,17.5-20.9,39.6-33.9,63
	c-8.2-46-14.4-86.9-16.9-104.3c-0.9-6.4,3.1-12.5,9.4-14.2c4-1,8.2-1.5,12.3-1.6c-2.4-8.2-4.1-16.6-5.1-25.2
	c-65.2,2.3-124.1,39.4-154.1,97.3C4.5,739.9,39,849,127.6,895l83.3-160.4l26.6-51.2C239.4,671.8,241.4,660.8,243.4,651.1z
	 M58.3,685.9c0.7-12.8,7.7-26.1,7.7-26.1s6.9-13.3,16.9-21.3c5.1-4,12.4-3.6,17,1c12.5,12.5,41.5,41.9,73.4,76.1
	c-46.3-6.4-87-13.3-104.4-16.3C62.4,698.2,57.9,692.4,58.3,685.9z M65.3,778c-7.3-10.5-10.1-25.2-10.1-25.2s-2.8-14.7,0.1-27.2
	c1.5-6.3,7.5-10.5,14-9.8c17.5,2.1,58.6,7.2,104.7,14.3c-40.3,23.6-76.6,43.5-92.1,51.9C76.1,785.1,69,783.4,65.3,778L65.3,778z
	 M130.7,844.2c-3,5.8-9.9,8.3-16,5.9c-11.9-4.7-22.4-15.4-22.4-15.4S81.7,824,77.3,812c-2.3-6.1,0.4-12.9,6.2-15.9
	c15.7-8,52.7-26.5,95.1-46.2C158.1,792,138.9,828.6,130.7,844.2L130.7,844.2z M114,629.6c-4.3-4.8-4.3-12.2,0-17
	c8.5-9.5,22.2-15.7,22.2-15.7s13.7-6.2,26.5-6.3c6.5,0,12,4.8,12.8,11.3c2.1,17.5,6.7,58.6,10.5,105.2
	C153.6,673.3,125.8,642.7,114,629.6z"/>
<path class="st7" d="M841.3,471.1c-26.6-53.1-82-83.7-148.4-81.6l0,0c-33.2,1-79.2,9.8-110.4,45.8c-9.9,11.5-17.4,24.7-22.3,39
	c-37.8-14.2-71.5-5.9-87.7,0c-4.9-14.3-12.5-27.5-22.3-38.9c-31.2-36-77.2-44.8-110.4-45.8l0,0c-66.4-2.1-121.8,28.4-148.4,81.6
	c-24.1,48.3-18.9,105.6,13.4,145.9c22.8,28.4,69.2,44.7,119.1,44.7c21.2,0,42.3-2.9,62.7-8.7c54.1-15.6,88-50.2,93-94.9
	c2.8-24.4,2.1-46.4-2.1-66c13-4.9,43.8-13.2,77.8,0c-4.1,19.5-4.8,41.5-2.1,66c5,44.7,38.9,79.2,93,94.9c20.4,5.8,41.5,8.8,62.7,8.7
	c49.9,0,96.4-16.2,119.1-44.7C860.1,576.7,865.4,519.4,841.3,471.1z M355.7,500.5c-18.5,12.3-49.2,30.8-67.7,18.4
	s12.3-55.4,30.8-67.6s67.7-18.5,80,0S374.1,488.2,355.7,500.5z M219.1,605.5c-27.8-34.8-32.3-84.3-11.3-126.2
	c22.5-45.1,69.2-71.5,125.7-71.5c1.9,0,3.8,0,5.7,0.1c28.1,0.9,66.5,7.9,93.3,35.3c-48.8-33.3-115.4-20.8-148.7,28
	s-20.8,115.4,28,148.7c16.9,11.5,36.7,18,57.1,18.6C310.5,651,244.2,637,219.1,605.5z M620.2,494.4c-18.5,24.6-36.9,43-43,30.8
	s4-33.6,18.5-55.4c12.3-18.5,36.9-30.8,43-24.6C648.3,454.9,630.6,480.5,620.2,494.4z M813.5,605.5c-25.4,31.8-92.7,45.7-151.3,32.6
	c3.1,0.3,6.2,0.4,9.4,0.4c59.1,0,107-47.9,107-107s-47.9-107-107-107c-39.6,0-76,21.9-94.5,56.8c4.1-12.5,10.7-24,19.2-34
	c26.8-31,67.6-38.6,97.1-39.5c59-1.8,108.1,24.9,131.4,71.5C845.8,521.2,841.3,570.8,813.5,605.5z"/>
<path class="st12" d="M704.2,189C704.2,189,704.2,189,704.2,189c0-0.2-0.1-0.4-0.1-0.6s0-0.1,0-0.1s0,0,0,0
	c-0.5-2.4-2.5-4.2-4.9-4.4c-2.6-0.1-5.1,0.1-7.6,0.4c-16.5,2.1-35.1,11.9-48.6,19l-0.3,0.2c-8,4.2-15.4,8.5-22.4,13
	c0.7-2.3,1.4-4.9,1.4-5c5.8-20.9,7-43,8.1-64.4c0.9-17.4,1.9-35.4,5.3-52.6c0.6-3.2,0.5-5.9-0.4-7.8c-0.7-1.8-1.9-3.3-3.5-4.4
	c-0.7-0.5-1.7-0.3-2.6-0.1c-2.6,0.5-5,1.6-7,3.2c-3.7,2.6-7.3,5.4-10.7,8.4c-7.7,6.8-14.6,14.5-20.6,22.9
	c-10.3,14.8-18.5,31.5-25.1,51c0.1-4.3,0.3-12.4,0.3-12.4c8.1-41.5-6.1-89.2-21.1-130.3c-0.4-1.1-0.8-2.3-1.2-3.4
	c-1.3-3.7-2.7-7.5-4.3-11.1c-1.1-2.5-2.7-4.7-4.7-6.6c-1.5-1.6-3.5-2.9-5.6-3.5c-2.4,0.3-4.3,2.3-5.7,6c-0.9,2.6-1.9,5.2-2.8,7.9
	c-2.7,7.5-5.5,15.3-8.7,22.9c-3,7.2-6.7,14.5-10.2,21.5c-7.6,15.3-15.5,31-18.5,47.7c0,0.3-1,3.9-1.9,7.2
	c-8.8-12.1-19.4-22.7-31.5-31.4c-5.9-4.3-11.8-8.4-18.4-11.5l-0.4-0.2c-3-1.5-7.4-3.4-10.5-3.3c0,0,0,0-0.1,0
	c-3.5-0.4-3.2,3.3-3.2,3.5c-0.3,1.2-0.3,2.5,0.1,3.7c1.7,5.9,3.9,11.7,6.6,17.2c1.9,4.1,3.8,8.4,5.2,12.7
	c5.9,17.2,10.1,36.2,13.3,59.6c0,0.1,0.1,2.2,0.1,4.6c-20.3-14.1-41.5-21.4-69.7-24.2c-2.6-0.3-5.1-0.3-7.7,0
	c-0.9,0-1.8,0.2-2.6,0.5c-3.7,2.6-4.8,5-4.4,7.2c0.2,1.4,0.7,2.8,1.4,4c3.3,6.2,7.5,11.8,11.6,17.3l5,6.5c5.3,7,10.8,14.2,15.7,21.6
	c12.3,18.4,20.7,39.2,24.8,61c0,0.1,0.3,2.6,0.5,4.9c-20.4-15.8-44.6-26.3-68.5-28.6l-0.4-0.1c-4.1-0.5-8.2-0.6-12.3-0.2
	c-1.9,0.2-3.8,0.3-4.6,1.3c-2.1,2.3-2.8,3.9-2.7,5c0,1.5,0.4,2.9,1.1,4.1c2.9,5,6.5,9.5,10.7,13.5c10.5,10.5,22.3,19.8,33.6,28.7
	l0.9,0.7c16.6,13,32.3,26.4,41.8,45.9c0.1,0.2,0.2,0.3,0.4,0.4c11.3,5,22.3,10.7,32.8,17.3c2,1.2,11.2,7.5,11.3,7.4
	c10.4,7,16.6-22.7,23.4-15.9c4.4,4.5,8.6,9.4,12.4,14.4l0,0c0.2,0.2,0.3,0.4,0.5,0.6l0.8,1c1.9,2.4,3.8,4.8,5.7,7.1
	c0.1,0.2,0.4,0.3,0.6,0.3h0.1c0.2,0,0.4-0.2,0.5-0.4c1.1-1.8,2.2-3.5,3.3-5.3c1.3-1.9,11.7-18.2,15.4-22.6
	c6.1-7.4,14.8,15.5,23.3,11.9l0,0c0.1,0.2,6.2-4,6.3-4c2.5-2.3,36.3,10.3,48.5,1c0.1-0.1,0.2-0.3,0.3-0.5
	c4.7-31.1,23.3-57.1,39-76.2c5.8-7.1,11.9-14.2,17.7-21s12-14,17.8-21.1s12-14.8,17.7-22.7l0.6-0.8
	C699.2,202.3,704.9,193.9,704.2,189z"/>
<path class="st13" d="M552.5,349.8c-0.2,0-0.4-0.2-0.5-0.4c-0.4-0.8-0.9-1.7-1.3-2.5c-0.1-0.1-0.1-0.3-0.1-0.4
	c5.5-36.7,24.9-70,57.5-99c13.2-11.6,27.1-22.5,41.6-32.6l0.7-0.5c16.2-11.4,33-23.2,52.6-26.8l0,0c0.3,0,0.6,0.2,0.8,0.5
	c0.1,0.2,0.1,0.4,0.2,0.5l0,0c-0.5-2.4-2.5-4.2-4.9-4.4c-2.6-0.1-5.1,0.1-7.6,0.4c-16.5,2.1-35.1,11.9-48.6,19l-0.3,0.2
	c-8,4.2-15.4,8.5-22.4,13c0.7-2.3,1.4-4.9,1.4-5c-0.1,0.2-0.2,0.4-0.3,0.5c-6.5,4.1-13,8.6-19.4,13.4l0,0l-0.3,0.2
	c-5,3.7-10,7.8-15,12.2c-0.1,0.1-0.2,0.2-0.4,0.2c-0.1,0-0.3,0-0.4-0.1c-0.2-0.1-0.4-0.4-0.4-0.7c0.3-3.9,0.9-7.7,1.8-11.5
	c0.4-1.6,0.7-3.1,1-4.6c1.6-8.7,3.7-17.1,5.6-24.2c2.4-9.1,5.4-18.2,8.2-27c2.1-6.4,4.2-13.1,6.2-19.7c1.1-3.9,2.2-7.8,3.3-11.8
	c5-18.5,10.3-37.6,21.6-52.9c0.1-0.2,0.3-0.3,0.5-0.3c0,0,0.1,0,0.1,0c0.2,0,0.5,0.1,0.6,0.3c0.1,0.2,0.2,0.4,0.3,0.5
	c0.1,0.2,0.2,0.4,0.3,0.6c-0.7-1.8-1.9-3.3-3.5-4.4c-0.7-0.5-1.7-0.3-2.6-0.1c-2.6,0.5-5,1.6-7,3.2c-3.7,2.6-7.3,5.4-10.7,8.4
	c-7.7,6.8-14.6,14.5-20.6,22.9c-10.3,14.8-18.5,31.5-25.1,51c0.1-4.3,0.3-12.4,0.3-12.4c8.1-41.5-6.1-89.2-21.1-130.3
	c-0.4-1.1-0.8-2.3-1.2-3.4c-1.3-3.7-2.7-7.5-4.3-11.1c-1.1-2.5-2.7-4.7-4.7-6.6c-1.2-1.3-2.7-2.4-4.4-3.2v0.1
	c6,18.1,10.3,38.7,13.4,64.8l0.4,3.1c2.3,19.3,5,41.2,2.4,61.2c-0.1,0.3-0.3,0.5-0.5,0.6c0,0-0.1,0-0.1,0c-0.3,0-0.5-0.1-0.7-0.3
	c-4.8-6.3-8.9-9.3-12.4-8.9c-1.2,0.2-2.2,0.7-3.1,1.5c-4.3,3.7-4.5,13.6-4.7,20.8c0,2.6-0.1,4.8-0.3,6.5c-1.2,9.8-3.2,19.5-5.8,29.1
	c-0.1,0.3-0.3,0.5-0.6,0.6H518c-0.3,0-0.6-0.2-0.7-0.5c-8.1-27.2-19.9-50.9-35-70.4c-0.4,1.3-0.8,3-1.3,4.6
	c-8.8-12.1-19.4-22.7-31.5-31.4c-5.9-4.3-11.8-8.4-18.4-11.5l-0.4-0.2c-3-1.5-7.4-3.4-10.5-3.3c0,0,0,0-0.1,0
	c-3.5-0.4-3.2,3.3-3.2,3.5c0.1-0.2,0.3-0.4,0.5-0.4c0,0,0.1,0,0.1,0c0.2,0,0.4,0,0.5,0.1c21.4,15.2,38.7,37.5,51.4,66.3
	c5.7,13,9.7,26.4,13.1,38.9l1,3.7c3.5,13,7.1,26.4,9.6,39.8c0.1,0.3-0.1,0.7-0.5,0.8l-0.2,0.1c-0.3,0-0.6-0.1-0.7-0.4
	c-11-19.6-25.7-36.8-43.3-50.8c-1.8-1.4-3.7-2.8-6-4.4c-0.2-0.1-0.3-0.3-0.3-0.5c0,0.1,0.1,2.2,0.1,4.6
	c-20.3-14.1-41.5-21.4-69.7-24.2c-2.6-0.3-5.1-0.3-7.7,0c-0.9,0-1.8,0.2-2.6,0.5c-3.7,2.6-4.8,5-4.4,7.2l0,0c-0.1-1,0-2.1,0.5-3
	c0.1-0.2,0.3-0.4,0.6-0.4h0.2c14.4,1.6,27,8.8,38.6,16.4c12.2,7.8,23.9,16.4,34.9,25.9c10.6,9.3,20.8,21.1,31,36.1
	c10.7,15.8,17.6,28.4,22.4,40.9c0.1,0.3,0,0.7-0.2,0.9c-0.1,0-0.2,0.1-0.3,0.1c-0.2,0-0.4,0-0.6-0.2c-7.4-6.6-15.5-12.4-24.1-17.2
	c-2.5-1.4-4.6-2-6.2-1.8c-1.1,0.1-2.1,0.8-2.7,1.7c-1.6,2.3-3,8.1,0.1,22.6c2.2,10.6,3.9,20.9,5,30.5c0.1,0.3-0.1,0.7-0.5,0.8
	c-0.1,0-0.1,0-0.2,0c-0.3,0-0.6-0.1-0.7-0.3c-10.3-16.2-23.5-30.5-38.9-42c-0.1-0.1-0.2-0.3-0.3-0.5c0,0.1,0.3,2.6,0.5,4.9
	c-20.4-15.8-44.6-26.3-68.5-28.6l-0.4-0.1c-4.1-0.5-8.2-0.6-12.3-0.2c-1.9,0.2-3.8,0.3-4.6,1.3c-2.1,2.3-2.8,3.9-2.7,5l0,0
	c0-0.3,0.1-0.7,0.2-1c0.1-0.2,0.2-0.4,0.4-0.4c0.1,0,0.1,0,0.2-0.1c0.1,0,0.3,0,0.4,0.1c6.1,2.6,12.4,4.9,18.6,7.2
	c6,2.3,12.2,4.6,18.1,7.1c13.6,5.8,26.5,14.3,39.5,26.2c10.9,10.2,20.7,21.5,29.2,33.8l1,1.5c8.2,11.6,17.4,24.7,20.6,39.1
	c0.1,0.3-0.1,0.6-0.3,0.8c-0.1,0.1-0.2,0.1-0.3,0.1c-0.2,0-0.3,0-0.5-0.1c-1.6-1.1-3.3-2.1-5-3.2c2.9,1.9,10.4,6.9,10.5,6.9
	c-0.2-0.2-0.4-0.5-0.3-0.7c3.5-20.3,2.2-40.4,0.4-57.4c-0.9-9.2-2.5-19.1-4.8-31.2l-0.6-3c-0.4-1.7-0.7-3.5-1-5.2
	c-0.2-1.1-0.4-2.2-0.6-3.4c-0.3-1.5-0.3-3,0.2-4.5c0.1-0.2,0.3-0.4,0.5-0.5h0.1c0.2,0,0.4,0.1,0.6,0.2
	c17.5,16.5,31.5,38.7,41.6,65.9c5.9,15.9,8.7,24.6,10.3,30.4c1.6,5.6,2.2,8.5,2.2,9c0,0.1,0,0.3-0.1,0.4c-1.5,2.4-3,4.7-4.5,7.1
	c1.1-1.8,2.2-3.5,3.3-5.3c1.3-1.9,11.7-18.2,15.3-22.6c6.1-7.4,14.8,15.5,23.3,11.9l0,0c0.1,0.2,6.2-4,6.3-4
	c-0.1,0.1-0.2,0.2-0.4,0.2C552.7,349.8,552.6,349.8,552.5,349.8z M545.2,261.4c-2.7,15-5.7,26.9-9.6,37.6c-2.4,4.4-4.7,8.8-6.9,13.1
	c-0.1,0.2-0.3,0.4-0.5,0.4c-0.2,0-0.5-0.1-0.7-0.2c-2.1-2.5-4.3-5.1-6.9-8l0,0l-2.9-3.3c-0.4-0.5-0.8-1-1.3-1.5
	c-4.6-5.2-8.4-9.3-11.9-13.1c-0.1-0.1-0.2-0.2-0.2-0.4c-5.3-22.8,0.1-45.2,7.6-69.6v-0.1l1.1-3.5c6.3-20.3,13.5-43.3,16.3-67.3
	c0.3-2.2,0.4-4.4,0.6-6.6s0.3-4.4,0.6-6.5c0.1-1.2,0.4-2.3,0.8-3.4c0.1-0.2,0.3-0.4,0.6-0.4h0.1c0.3,0,0.5,0.1,0.7,0.4
	c6.9,11.7,9.8,25.5,11.9,38.7c2.4,14.1,3.9,28.4,4.6,42.7C550,225.7,548.6,242.4,545.2,261.4z"/>
</svg>
