<svg xmlns="http://www.w3.org/2000/svg" viewBox="0 0 1030 1030"><g id="bf97bff8-cc85-480c-adac-42cc5ee97158" data-name="Layer 2"><g id="b65d6cde-05b3-4021-a8ac-6325c91e2c8d" data-name="Gray Scale"><path d="M174.08,598.11a8.11,8.11,0,0,0-6.57-4,8,8,0,0,0-3.92.75c-11.39,5.4-35.45,21.44-49.54,64.33-12.69,38.6-4.23,65.27,2.74,78.68-9.94-2.56-27.59-2.58-57.87,8.71C16.67,762.35,4.12,783.36.42,793.47a7,7,0,0,0,1,6.58,7.05,7.05,0,0,0,2.66,2.22c9.9,4.62,33.9,11.82,70.32-2.47,38.46-15.08,49.88-40.54,53-50.75,0-.14.05-.29.09-.43a7.44,7.44,0,0,0,.16-1.31,7.71,7.71,0,0,0,1.88-.36c9.11-3.07,26.85-15.23,43.21-62.34C189.8,635.45,180.35,608.83,174.08,598.11Zm-88.5,166a47.91,47.91,0,0,1-5.41,17.82c-.77,1.44-2.86.19-2.43-1.22,1.52-5.09,3-10.22,4.61-15.31C78.57,766.91,42.1,782,29.23,787.94a1,1,0,0,1-.85-1.7c2.91-1.58,22.57-11.75,27.8-14.3-6.76-1.26-13.57-2.35-20.29-3.79-1.31-.28-.67-2.07.44-2.12,7.84-.35,16.3,1.4,23.67,4.06,9.44-4.52,19.06-8.82,28.79-12.77-2.67-1.1-5.34-2.18-8.07-3.11-3.64-1.25-7.54-1.91-11-3.65-1.06-.54-.23-1.87.66-1.92,7-.41,15.12,3.49,21.1,7.59,11.43-4.56,23-8.57,34.55-11.9-.39.91-.78,1.82-1.18,2.72a8.9,8.9,0,0,0,1.92.28C113.08,753,99.33,758.56,85.58,764.09Zm86.48-113.87c-5.45,7.23-13.23,13.46-21,18.06-2.93,11.72-6.19,23.44-9.83,35,2.94-1.56,5.87-3.14,8.7-4.88,3.79-2.32,7.25-5.3,11.33-7.08,1.25-.55,1.83,1.17,1.22,2-4.81,6.55-14.23,10.88-22.28,13.18-4,12.53-8.57,24.8-13.62,36.66a6.86,6.86,0,0,0-2.15-2.14c-.32-.2-.67-.4-1-.6,4.63-15,9.41-30,14.18-45a55.54,55.54,0,0,1-11.87-17.93c-.7-1.74,1.94-2.68,2.88-1.26,3.4,5.09,6.84,10.22,10.22,15.36,1.42-4.48,14.82-48,19-63.83a1.09,1.09,0,0,1,2.13.5c-.75,3.75-6.16,28.71-7.74,35.24,6.09-5.09,12.07-10.35,18.3-15.25C171.71,647.32,172.83,649.2,172.06,650.22Z" style="fill:#b4b4b4"/><path d="M257.16,770.41c-7.55-45.74-54.32-73.87-99.88-72a25.63,25.63,0,0,0,5.18-5.11c.61-.83,0-2.55-1.22-2-4.08,1.78-7.54,4.76-11.33,7.08l-1.25.75q-3.27.4-6.5,1c3.25-10.55,6.21-21.21,8.88-31.89,7.79-4.6,15.57-10.83,21-18.06.77-1-.35-2.9-1.56-1.94-6.23,4.9-12.21,10.16-18.3,15.25,1.58-6.53,7-31.49,7.74-35.24a1.09,1.09,0,0,0-2.13-.5c-4.21,15.81-17.61,59.35-19,63.83-3.38-5.14-6.82-10.27-10.22-15.36-.94-1.42-3.58-.48-2.88,1.26a55.54,55.54,0,0,0,11.87,17.93c-.66,2.08-1.32,4.17-2,6.25a90.9,90.9,0,0,0-20.22,8.09c-12.81,7-17.9,16.05-17.9,16.05A77.49,77.49,0,0,0,83,751.44c-4.15-1.84-8.55-3-12.59-2.8-.89.05-1.72,1.38-.66,1.92,3.44,1.74,7.34,2.4,11,3.65.42.14.83.31,1.24.45q-.9,3.06-1.58,6.18-10.3,4.42-20.38,9.25c-7.37-2.66-15.83-4.41-23.67-4.06-1.11.05-1.75,1.84-.44,2.12,6.72,1.44,13.53,2.53,20.29,3.79-5.23,2.55-24.89,12.72-27.8,14.3a1,1,0,0,0,.85,1.7c11.2-5.16,40.25-17.26,50.1-21.32a95,95,0,0,0-1,12l-.6,2a1.44,1.44,0,0,0,.59,1.57c.68,39.7,25.11,80.28,64,91.14C201.26,889.84,267.12,830.76,257.16,770.41Z" style="fill:#e8e8e8"/><path d="M983.06,728.52c-14.51,2.65-55.17,8.44-59.37,9,2.9-4.72,5.75-9.5,8.61-14.23.79-1.32-1-3.11-2.14-1.87A49.81,49.81,0,0,0,920.1,738l-12,1.59a98,98,0,0,0-24.19-16.09c6.29-10.29,12.21-21,17.68-32,8.08-1,17.78-3.85,23.37-9.45.71-.71.4-2.45-.88-2.11-4.19,1.12-8,3.49-11.94,5.17-3,1.26-6,2.36-9.09,3.43,5.19-10.59,10-21.4,14.56-32.25,8.17-3.29,16.57-8.16,22.87-14.33.89-.86.09-2.84-1.22-2.09-6.71,3.81-13.23,8-19.84,12,2.48-6,11.32-29.3,12.59-32.8a1.07,1.07,0,0,0-2-.79c-6.35,14.61-25.59,54.58-27.61,58.68-2.5-5.44-5.07-10.87-7.6-16.28-.7-1.5-3.38-1-3,.8a53.84,53.84,0,0,0,8.81,19c-6.81,13.79-13.63,27.58-20.31,41.46a78.1,78.1,0,0,0-43.17-5.24s-10.1-.25-22.36,6.94c-51.37,30.14-65.6,110.36-20.12,148.81s127.72,12.9,143.39-44.56c7.35-26.92-1.46-55.22-18.93-76.68,3.77,3,8,5.46,12.23,6.29.9.18,2.09-1,1.16-1.77-3-2.64-6.78-4.32-10.13-6.52-2.51-1.64-4.92-3.42-7.32-5.22,10.82-1.47,21.63-3.31,32.32-5.42,6.74,4.58,14.81,8.54,22.8,10.21,1.13.23,2.24-1.4,1-2-6.4-3.19-13-6-19.47-9.06,5.93-1.22,28.38-6.39,31.72-7.23A1,1,0,0,0,983.06,728.52Z" style="fill:#e8e8e8"/><rect width="1030" height="1030" style="fill:none"/><path d="M1014.26,723.51a7.28,7.28,0,0,0-2.12-2.92c-8.78-7.22-31.11-20.67-71.51-15.69a113.48,113.48,0,0,0-29.81,7.63c7.55-8,16.12-19.91,25.3-37.36,23.6-44.84,18.38-71.84,13.91-83.07a8,8,0,0,0-9.63-4.66c-11.76,3.54-37.25,15.48-57.07,54.72-20.92,41.44-11.43,71.31-6.4,82.21.07.15.16.29.24.43a8.25,8.25,0,0,0,1.09,1.52c7.34-15.37,14.89-30.61,22.42-45.85a53.84,53.84,0,0,1-8.81-19c-.43-1.78,2.25-2.3,3-.8,2.53,5.41,5.1,10.84,7.6,16.28,2-4.1,21.26-44.07,27.61-58.68a1.07,1.07,0,0,1,2,.79c-1.27,3.5-10.11,26.75-12.59,32.8,6.61-4,13.13-8.2,19.84-12,1.31-.75,2.11,1.23,1.22,2.09-6.3,6.17-14.7,11-22.87,14.33-4.52,10.85-9.37,21.66-14.56,32.25,3.06-1.07,6.11-2.17,9.09-3.43,4-1.68,7.75-4.05,11.94-5.17,1.28-.34,1.59,1.4.88,2.11-5.59,5.6-15.29,8.4-23.37,9.45A410.09,410.09,0,0,1,881,728.31a7.69,7.69,0,0,0,4.18.6,66.67,66.67,0,0,0-11.06,13.43c-.08.13-.13.27-.2.41a7.38,7.38,0,0,0-.61,1.62c15.61-2.27,31.22-4.32,46.83-6.38a49.81,49.81,0,0,1,10.06-16.57c1.15-1.24,2.93.55,2.14,1.87-2.86,4.73-5.71,9.51-8.61,14.23,4.2-.56,44.86-6.35,59.37-9a1,1,0,0,1,.42,1.93c-3.34.84-25.79,6-31.72,7.23,6.49,3,13.07,5.87,19.47,9.06,1.25.63.14,2.26-1,2-8-1.67-16.06-5.63-22.8-10.21-10.69,2.11-21.5,4-32.32,5.42,2.4,1.8,4.81,3.58,7.32,5.22,3.35,2.2,7.11,3.88,10.13,6.52.93.82-.26,1.95-1.16,1.77-7.19-1.41-14.35-7.43-19.32-13.11a380,380,0,0,1-39,3.09,7.12,7.12,0,0,0,1.87,3.74c6,6.26,22.74,16.06,67.45,11.31,46.65-5,64.74-22.89,71.07-32.12A7.31,7.31,0,0,0,1014.26,723.51Z" style="fill:#b4b4b4"/><path d="M522.42,239.15C247,239.15,204,433.54,204,533.61c0,142.93,168.55,216.44,313,216.44,143.34,0,313-73.51,313-216.44C830,442.54,778,239.15,522.42,239.15Z" style="fill:#3b3b3b"/><path d="M512,211s-64.71,4.56-118,28.14-69.11,42.65-71.16,65.2,24.93,26.66,40.66,20.51,38.18-16.41,55.66-8.21,30.81,20.54,55.42,10.79,16.41-31.07,41-35.8,57.42,8.61,72.8,16.81,70.66,25.63,96.33,15.38,16.45-36.18,6.19-45.26S624.79,217.5,512,211Z" style="fill:#575757"/><path d="M474.71,546.5a10,10,0,0,1-9.38-6.53A110.23,110.23,0,0,0,443.46,507C423.18,485.77,397.36,475,366.71,475c-30.93,0-58.42,11-81.7,32.56C267.28,524,258.74,540.79,258.65,541a10,10,0,0,1-17.9-8.91c.4-.8,9.91-19.71,30.05-38.6,26.83-25.16,60-38.46,95.91-38.46,45.67,0,75.15,21.16,91.84,38.9,18,19.13,25.23,38.32,25.53,39.13a10,10,0,0,1-9.37,13.48Z" style="fill:#bcbcbc"/><path d="M789.71,546.5a10,10,0,0,1-9.38-6.53A110.23,110.23,0,0,0,758.46,507C738.18,485.77,712.36,475,681.71,475c-30.93,0-58.42,11-81.7,32.56C582.28,524,573.74,540.79,573.65,541a10,10,0,0,1-17.9-8.91c.4-.8,9.91-19.71,30-38.6,26.83-25.16,60-38.46,95.91-38.46,45.67,0,75.15,21.16,91.84,38.9,18,19.13,25.23,38.32,25.53,39.13a10,10,0,0,1-9.37,13.48Z" style="fill:#bcbcbc"/><path d="M579.65,614.13c-.81-3.53-4.15-5.21-21.8-5.83-10.38-.37-24.11-.23-38.65.39-54.37,2.3-55,6.87-55.47,9.9-1.86,13-.4,31.84,8.4,47.78.41-.52.75-1,1.22-1.56s.93-1,1.41-1.5c.89-.91,1.82-1.83,2.83-2.74,10.75-9.63,28.57-18.75,44.23-19.42,19.73-.87,36.32,4.29,47.65,11.3,1.15.71,2.25,1.44,3.3,2.2s2.13,1.59,3.1,2.4C581.52,641.15,581.94,624.09,579.65,614.13Z" style="fill:#bcbcbc"/><path d="M572.77,654.65c-1-.76-2.15-1.49-3.3-2.2-11.33-7-27.92-12.17-47.65-11.3-15.66.67-33.48,9.79-44.23,19.42-1,.91-1.94,1.83-2.83,2.74-.48.5-1,1-1.41,1.5s-.81,1-1.22,1.56a60,60,0,0,0,4.34,6.76c.95,1.28,1.95,2.54,3,3.76,10.74,12.22,26.06,18.67,44.35,18.67h1c17.08-.23,30.81-6.8,40.82-19.54a62.43,62.43,0,0,0,7.14-11.58,74.84,74.84,0,0,0,3-7.38C574.9,656.24,573.87,655.44,572.77,654.65Z" style="fill:#656565"/><path d="M449.81,766.94V767A.07.07,0,0,0,449.81,766.94Z" style="fill:#939393"/><path d="M456.2,775h0Z" style="fill:#939393"/><polygon points="449.57 770.13 449.57 770.12 449.55 770.14 449.57 770.13" style="fill:#939393"/><path d="M286.21,694.06l.08.16A.13.13,0,0,1,286.21,694.06Z" style="fill:#b4b4b4"/><path d="M286.33,722.8l0,0S286.32,722.8,286.33,722.8Z" style="fill:#b4b4b4"/><polygon points="289.23 699.43 289.23 699.42 289.27 699.4 289.23 699.43" style="fill:#b4b4b4"/><path d="M444.53,875.61h.27S444.68,875.69,444.53,875.61Z" style="fill:#b4b4b4"/><path d="M369.92,795.49l.2.13C370.06,795.64,370,795.61,369.92,795.49Z" style="fill:#b4b4b4"/><path d="M383.54,842.73v0A.07.07,0,0,1,383.54,842.73Z" style="fill:#b4b4b4"/><path d="M376,802.24h0l0-.05Z" style="fill:#b4b4b4"/><path d="M345.66,794.22l.29.26C345.89,794.5,345.8,794.45,345.66,794.22Z" style="fill:#b4b4b4"/><path d="M410.69,858.94l.07.06C410.7,859,410.69,859,410.69,858.94Z" style="fill:#b4b4b4"/><path d="M355.91,805.12h0s0-.06,0-.1Z" style="fill:#b4b4b4"/><path d="M396.78,856.28l.14.1A.13.13,0,0,1,396.78,856.28Z" style="fill:#b4b4b4"/><path d="M406.58,877.72l0,0Z" style="fill:#b4b4b4"/><polygon points="402.39 858.39 402.38 858.39 402.41 858.35 402.39 858.39" style="fill:#b4b4b4"/><path d="M708.63,808.23l-.33.11C708.35,808.38,708.44,808.37,708.63,808.23Z" style="fill:#b4b4b4"/><path d="M650.6,859.09l0,.08S650.61,859.1,650.6,859.09Z" style="fill:#b4b4b4"/><path d="M696.63,812.05h0l.05-.07Z" style="fill:#b4b4b4"/><polygon points="563.02 923.52 563.03 923.52 563.04 923.47 563.02 923.52" style="fill:#b4b4b4"/><path d="M650.49,863.28l-.15.11A.14.14,0,0,0,650.49,863.28Z" style="fill:#b4b4b4"/><path d="M640.33,890.08v0A.08.08,0,0,0,640.33,890.08Z" style="fill:#b4b4b4"/><polygon points="645.29 866.84 645.29 866.83 645.26 866.8 645.29 866.84" style="fill:#b4b4b4"/><path d="M776.17,712.76l-.09-.17A.13.13,0,0,0,776.17,712.76Z" style="fill:#b4b4b4"/><path d="M743.87,716.13l0,0S743.88,716.14,743.87,716.13Z" style="fill:#b4b4b4"/><path d="M771.72,707.27h0l0,0Z" style="fill:#b4b4b4"/><path d="M757.64,680.74l-.08-.16A.13.13,0,0,0,757.64,680.74Z" style="fill:#b4b4b4"/><path d="M731.3,681.09l0,0S731.3,681.1,731.3,681.09Z" style="fill:#b4b4b4"/><path d="M754.44,675.09h0l0,0Z" style="fill:#b4b4b4"/><path d="M759.47,751.13l.1-.12C759.51,751.05,759.47,751.09,759.47,751.13Z" style="fill:#b4b4b4"/><path d="M746.57,744.4l0,0Z" style="fill:#b4b4b4"/><polygon points="761.44 746.12 761.44 746.12 761.48 746.11 761.44 746.12" style="fill:#b4b4b4"/><path d="M716.44,786.37l.19-.09C716.57,786.26,716.5,786.27,716.44,786.37Z" style="fill:#b4b4b4"/><path d="M739.65,754.74l0,0A.06.06,0,0,0,739.65,754.74Z" style="fill:#b4b4b4"/><polygon points="723.77 784.17 723.76 784.18 723.76 784.24 723.77 784.17" style="fill:#b4b4b4"/><path d="M728.23,783.19l-.13.16C728.17,783.34,728.22,783.3,728.23,783.19Z" style="fill:#b4b4b4"/><path d="M727.87,816.86l0,0S727.88,816.87,727.87,816.86Z" style="fill:#b4b4b4"/><polygon points="723.81 788.68 723.81 788.67 723.77 788.64 723.81 788.68" style="fill:#b4b4b4"/><path d="M679,96.9c-7.14-19.55-74.47-30.08-114.32-8.68-47.66,25.59-49.55,78.45-50,80,0,0-14.3-54.43-69.22-43.25-24.65,5-48.36,32.92-44.48,42.06.67,1.57,13.68,27.94,43.26,30,34.73,2.44,55.5-11.4,61-5C519,208,503.39,237,503.39,237s14.27,11.41,28.36,0c0,0-5-11,0-55.29C533,170.57,599.33,193.4,640.36,170,673.27,151.15,686.14,116.44,679,96.9ZM469.22,154a68.24,68.24,0,0,0-39.7,4.11C468.87,129.81,505,170.34,505,170.34S486.7,157.67,469.22,154Zm116-24.2c-15.81,8.28-55.09,32.3-55.09,32.3S566.12,111.84,640.36,106C640.36,106,607.47,118.18,585.27,129.81Z" style="fill:#b4b4b4"/><path d="M796.56,727.83c-2.14-28.61-6.26-58-10-81.34a220.77,220.77,0,0,1-25.26,24.65c0-.44,0-.87,0-1.3-.47-13.72-13.1-21.56-24.2-41.86-4,8.62-28.81,7.88-30.86,23.3s-7.34,10.15-2.33,26.45c1.68,5.22-2.16,6.95,1.16,11.31-7.82-.37-15.31-8.09-20.74-5.59-3.72,1.73-8.84,7.71-12.78,11.74-14.7-1.49-15.49-2.39-27.5,6-12.21,8.53-28.48,16.52-29.11,25.73a63.33,63.33,0,0,1-2.69,12.68,450,450,0,0,1-95.51,10.45,446.6,446.6,0,0,1-55.51-3.52c-.05-1.21-.08-2.21-.09-2.93,0-6.7,6.41-10-1.43-11.83s-14,3-20.55,7.34c-1.17.79-2.9,1.89-5,3.2-75.14-14-147.12-47.19-190-98.85-4.76,23.4-10,53.81-12.31,84.37-3.57,47.87-84.68,270.34,281.34,270.34C903.89,998.17,800.36,778.63,796.56,727.83ZM677.22,696.68c2.95-3.58,5.17-6.51,10.12-5.74,8.65,1.38,11,3.26,21.9,3.1a36.69,36.69,0,0,0,7.81,7.11q-12.16,6.71-25.11,12.5C688.19,708.59,684.1,700.1,677.22,696.68Z" style="fill:#b4b4b4"/><path d="M796.56,727.83c-2.14-28.61-6.26-58-10-81.34a220.77,220.77,0,0,1-25.26,24.65c0,13.42-7.09,28.87-30.76,32.9a18.76,18.76,0,0,1-13.51-2.89q-12.16,6.71-25.11,12.5a14.38,14.38,0,0,0,2.89,3.1,66.23,66.23,0,0,1,6.14,4.93c3.5-1.17,7.81-2.32,10.93-1.93,5.07.63,9.46,2.23,14.31,3.22,6.59-5.31,11.81-6.12,16.84-10.62,5.35-4.75,5.27-13.18,22.84-12.11,10.67.66,18.68,3.08,24.16,13.67s.29,29.74-.7,36.42,3,12.84-6.58,11.78-14.71.6-25.4-3c-8.63-2.88-9.62-8.93-15.84-16.54-4.74-5.81-6.32-10.74-10.21-15.13-3,.11-7.76-1.1-15.13-3a19.4,19.4,0,0,0-11.67.73,27,27,0,0,1,5.94,9.87c1,3.27-.4,6.63-3.13,10.43.09.85.17,1.73.27,2.61l7.26.59c4.52.36,7,6.46,8.1,10a10.81,10.81,0,0,1,3.3.87c6.8,2.81,23.56,17.52,33.09,29.53s14.18,33.5,11.87,49.64-2.66,19.52-2.66,19.52-4.45-4.25-17-5.67S730.24,841,717.9,826.83s-4.54-23.19-1.91-32.1.87-15.45,1.17-23.36,2-9.86,2-9.86v-.06c.83-4.4-5.36-7.23-11.31-8.92a31.49,31.49,0,0,1-.11,3.76c-.68,7.31-9.24,25.13-17.48,33.89l.28.22c4.21,3.55,6.65,12.37,6.57,21.09a44.91,44.91,0,0,1-.39,5.68c13.15,4.13,13.56,30.74,14.81,55.26,1.36,26.5-36,45-36,45a90.06,90.06,0,0,1,1.38-10.21c1.15-6.47-5.83-27-11.46-45.68s1.7-21.65,11.25-34.49c6.8-9.15,12.28-10.55,14.88-10.59a70.38,70.38,0,0,0,.71-8.83c.05-6.26-4.32-12.3-4.32-12.3a16.76,16.76,0,0,1-.27-2.64c-9,7.31-15.84,21.9-19.17,29.76S641,862.83,636,868c-3.78,4.08-9.32,10.17-13.67,13.63,1.56,4.24.92,16.67-1.32,17.6-1.45.61-3.16,1.32-2.33-4-.61.92-1.29,1.89-2,2.89-.41.57-.83,1.14-1.26,1.72.16,3.73.39,8.31-.7,10.06,4.7,5.2,4.61,10.72-.38,23.88-5.25,13.81-15.06,9.41-26.29,15s-28.78-.42-37.45-8.75-15.09-7.13-15.09-7.13,2.72-10.73,14.29-28.6,17.91-14.25,27.82-20.82c8.87-5.88,16.68-1.34,25,1.94,4.65-3.22,20.2-14,25.9-16.62,4.5-2.1,11.76-12,17.25-20.25A31.63,31.63,0,0,1,635,849.58c-9.68-.47-25.68,1.82-40.42-8.8s-6.63-22.68-9.1-33.31-4.18-17.89-2.07-20.22,11,6.34,27.29,12,26.09,18.1,33,25.89c4.72,5.36,5.26,13.84,5.1,18.61,1.35-2.11,2.46-3.9,3.2-5.1,3.72-6.12,20.14-34.24,27.45-44s10.91-13.68,16.3-18.75c5.12-4.82,5-15.88,5.83-23.46-3.22,3.59-7,7.61-10.72,12.23-10.86,13.43-22,8.87-34.59,10.46s-29.43-6.14-39.14-9.5S604.51,762,606.27,757c1.08-3.08,3.85-10.21,6-17.39a450,450,0,0,1-95.51,10.45,446.6,446.6,0,0,1-55.51-3.52c.43,10.11,2,35.6-4.16,46.33-6.87,12-24.27,29.68-34.12,32.31C416,827,407.09,820.29,403,820a32.74,32.74,0,0,0-.94,8.6c.13,13.24,2.77,15.83,6.13,20.86,2,1.06,4.15,2,6.38,3,10.71,4.49,11.9,5.42,17.77,11.69s6.14,6.48,13.82,5.52,13.64,4.49,27.48,6.55c8.31,1.25,10.2,0,12.06-3.16-10.27.65-9-12.1-7.83-22.86,1.21-11.05-1.65-28.49,5.86-38.5s16.54-18.53,18.66-21.05,5.83,1.39,10.89,5.46,22.94,16.62,22.93,31.33-5,43.75-18.47,49.29-22.32,3-22.32,3a22,22,0,0,0-3.84-4.66l-.57.61c-11.2,11.67-36.49.09-45-.16-20.32-.6-16.6-14.71-29.08-14.86a11.66,11.66,0,0,1-3.56-.7c5.32,14.68,14.84,16.6,23.45,23.08S464,893.78,470.38,899c18.55-12.08,26.22-8,42.59,4.56s7,29.61,6.89,37.75,2.39,20.87,2.39,20.87a35,35,0,0,1-9.57-4.92c-5.07-3.62-18.92-.53-33.81-5.28s-14.77-17.52-16.62-31A25,25,0,0,1,467,902.89c-13.27-6.68-33.52-13.2-44.61-23.41-7-6.41-10.84-8.42-16.21-17.17-1.49,3.21-3.78,6.48-2.69,8.74,1.88,3.87-5.08,9.34-7.84,25.39C391,924,368,927.15,358.33,930.3s-31.73-5-35.41-7.51S301.38,910.64,296.25,905s-15.63-14.23-12.47-21c3.87-8.44,17.06-15.47,44-26.72s35.38-4.21,50.54-6c9.77-1.16,15.53-3.28,20.41-1.82-9-8.65-18.24-19.81-25.25-24.6-7.31-5-16-6.08-21.52-6.19a113.24,113.24,0,0,0-13.89,17.3c-6.95,11.37-29.25,9.39-52.94,14.63s-40.05-.3-45.46-7.81c10.17-7.54,20.07-22.08,23.83-36.54s10.65-17.58,21.85-24.46a25.11,25.11,0,0,1,10.36-2.91c-1.39-2.2-10.73-20.08-11.06-21.36-13.92,4.37-29.33,4.11-34.6-4s-16-17.31-14.65-35,8.05-38.35,7.93-46,45,6.88,52,20.43,21.78,24.57,11.86,36.18c-6.66,7.79-11.61,18.47-18.21,24.91.15.62,12.22,22.14,14.07,24.45,12.49.14,32.35,7,43.77,11.54s11.59,22.15,11.59,22.15c10.57,2.75,24.6,12.35,30.95,21.33a48,48,0,0,0,7.94,8.77,50.26,50.26,0,0,1-.32-17c-5.63-1.24-15.57-7.24-17.25-17.6-2.41-14.82,8.2-32.19,18.91-41.3,8.78-7.46,26-18,35.52-24-75.14-14-147.12-47.19-190-98.85-4.76,23.4-10,53.81-12.31,84.37-3.57,47.87-84.68,270.34,281.34,270.34C903.89,998.17,800.36,778.63,796.56,727.83Z" style="fill:#747474"/><path d="M837.2,716.69s-10.1-.25-22.36,6.94c-51.37,30.14-65.6,110.36-20.12,148.81s127.72,12.9,143.39-44.56S895.9,706.64,837.2,716.69Zm14.32,58.23s12.56,12.24,8.09,18-22-11.48-22-11.48-.24,19.21-10,18.23-.78-23.69-.78-23.69-18.39-.79-18.24-13.6S828,758.14,828,758.14s1.5-23.24,14.59-20.89,4.07,21.49,4.07,21.49,21.31-5.54,25.44,2.41S851.52,774.92,851.52,774.92Z" style="fill:#a7a7a7"/><path d="M257.16,770.41c-10-60.35-88.19-90-141.82-60.62-12.81,7-17.9,16.05-17.9,16.05-39.77,46.48-14,131.12,44.9,147.56S267.12,830.76,257.16,770.41Zm-104-11.49s18.12,18.71,10.14,23.3-23.34-12-23.34-12-2.81,21.55-15.43,16.33-1-26.15-1-26.15-21.37-3.26-14.41-14.43,23.3-1.64,23.3-1.64,4.8-24.63,13.82-20.06-1.44,21.32-1.44,21.32,24.71-5.21,25.37,2.26S153.17,758.92,153.17,758.92Z" style="fill:#a7a7a7"/></g></g></svg>