<svg xmlns="http://www.w3.org/2000/svg" viewBox="0 0 1030 1030"><g id="bf3ef0b5-d325-4dd7-87c6-a9bbcaf180ee" data-name="Layer 2"><g id="adc57a46-fb1a-43c8-b00a-83d99b7a6c36" data-name="Gray Scale"><rect width="1030" height="1030" style="fill:none"/><path d="M522.42,238.89C247,238.89,204,433.28,204,533.35c0,142.93,168.55,216.44,313,216.44,143.34,0,313-73.51,313-216.44C830,442.28,778,238.89,522.42,238.89Z" style="fill:#e2e2e2"/><path d="M545.47,635.55c0-7.45-11.84-13.48-26.46-13.48s-26.45,6-26.45,13.48c0,6.4,8.77,17.27,20.52,20.18v18a4,4,0,0,0,8,0V656.37C534.73,655.19,545.47,642.64,545.47,635.55Z" style="fill:#646464"/><path d="M556.64,537A117.69,117.69,0,0,1,792,537c0,65-52.69,77.68-117.69,77.68S556.64,602,556.64,537Z" style="fill:#d6d6d6"/><path d="M242,537a117.69,117.69,0,0,1,235.38,0c0,65-52.7,77.68-117.7,77.68S242,602,242,537Z" style="fill:#d6d6d6"/><path d="M691.48,635.8c-13.23-.79-25.84,0-25.84,4.44,0,4.26,8.26,7.82,21.49,8.61s26.44,0,26.44-5.76S704.72,636.58,691.48,635.8Z" style="fill:#d6d6d6"/><path d="M349.65,635.8c13.24-.79,25.84,0,25.84,4.44,0,4.26-8.26,7.82-21.49,8.61s-26.44,0-26.44-5.76S336.42,636.58,349.65,635.8Z" style="fill:#d6d6d6"/><path d="M666.4,431.12a107,107,0,0,0-107,107c0,59.08,47.9,67,107,67s107-7.9,107-67A107,107,0,0,0,666.4,431.12Zm-54,146.22c-12.45,8.79-32.61,6.3-32-19.15.32-13.05,6.81-27.53,23.82-25.07C620,535.4,623.43,569.55,612.39,577.34Zm20.34-50.08c-24.25,0-48.19-21.71-24-54.25,12.38-16.7,34.11-29.57,54-10.77C681,479.64,654.25,527.25,632.73,527.26Z" style="fill:#202020"/><path d="M366.83,431.17a107,107,0,0,0-107,107c0,59.09,47.91,67,107,67s107-7.9,107-67A107,107,0,0,0,366.83,431.17Zm-56.4,146.17c-12.44,8.79-32.6,6.3-32-19.15.31-13.05,6.81-27.53,23.81-25.07C318,535.4,321.48,569.55,310.43,577.34Zm20.34-50.08c-24.24,0-48.18-21.71-24-54.25,12.38-16.7,34.1-29.57,54-10.77C379.08,479.64,352.29,527.25,330.77,527.26Z" style="fill:#202020"/><path d="M789.09,643.6c-59,70.33-172,106.19-272.08,106.19-100.54,0-212.75-35.61-271.68-105.46-4.47,22.61-9.15,50.81-11.26,79.12C230.5,771.33,149.39,993.8,515.42,993.8c390.75,0,287.22-219.55,283.42-270.35C796.74,695.45,792.75,666.66,789.09,643.6Z" style="fill:#e2e2e2"/><path d="M905.06,587.41c-32.68-9.69-67.91,11.89-78.68,48.2-12.94,62.11-18.76,121.12-3.12,177.46,2.28,6.6,6.63,10.89,11.22,12.29s10.6.1,16.11-4.18c43.83-38.71,71.14-91.35,94.15-150.47,10.77-36.31-7-73.61-39.68-83.3" style="fill:#7e7e7e"/><path d="M126.18,581.91c-32.3,10.89-48.68,48.81-36.59,84.7,25.17,58.24,54.38,109.84,99.6,146.91,5.66,4.08,11.69,5.09,16.25,3.59s8.72-6,10.77-12.69c13.56-56.88,5.58-115.65-9.63-177.24-12.1-35.89-48.09-56.16-80.4-45.27" style="fill:#7e7e7e"/><path d="M209.67,814.68c10.08-58.37.72-119.09-15.42-182.77-9.71-28.8-32.48-48.66-56.79-52.53.88-.11,1.76-.19,2.65-.25a55.89,55.89,0,0,0-13.93,2.78c-32.3,10.89-48.68,48.81-36.59,84.7,25.17,58.24,54.38,109.84,99.6,146.91,5.66,4.08,11.69,5.09,16.25,3.59,3.76-1.3,7.26-4.57,9.52-9.44A19.83,19.83,0,0,1,209.67,814.68ZM112.05,643.42c-4.66,1.57-9,1.12-9.74-1s2.48-5.13,7.14-6.71,9-1.12,9.75,1S116.72,641.85,112.05,643.42Zm54.46-6.19c4.67-1.57,9-1.12,9.75,1s-2.49,5.13-7.15,6.7-9,1.12-9.74-1S161.85,638.8,166.51,637.23Zm-25.4,48.65c-4.66,1.57-9,1.12-9.74-1s2.48-5.13,7.15-6.71,9-1.12,9.74,1S145.78,684.3,141.11,685.88Zm.49-73.18c-4.66,1.57-9,1.12-9.74-1s2.48-5.13,7.14-6.71,9-1.12,9.75,1S146.27,611.13,141.6,612.7Zm19.84,121.44c-4.67,1.58-9,1.13-9.75-1s2.48-5.14,7.14-6.71,9-1.12,9.75,1S166.1,732.57,161.44,734.14Zm15.85,31.17c-4.67,1.57-9,1.12-9.75-1s2.48-5.13,7.15-6.7,9-1.12,9.74,1S182,763.74,177.29,765.31Zm2.44-60.95c-.72-2.13,2.48-5.14,7.14-6.71s9-1.11,9.75,1-2.48,5.12-7.15,6.7S180.44,706.49,179.73,704.36Zm5.63,38.18c-.72-2.13,2.48-5.13,7.14-6.7s9-1.12,9.75,1-2.48,5.13-7.15,6.7S186.08,744.68,185.36,742.54Zm11.06,47.81c-4.66,1.58-9,1.13-9.74-1s2.48-5.13,7.14-6.7,9-1.12,9.75,1S201.09,788.78,196.42,790.35Z" style="fill:#909090"/><path d="M931.94,667.48c8.64-29.13,1.45-58.49-16.2-75.65.78.43,1.55.87,2.31,1.33a55.74,55.74,0,0,0-13-5.75c-32.69-9.69-67.92,11.89-78.69,48.2-12.94,62.11-18.76,121.12-3.12,177.46,2.28,6.6,6.62,10.89,11.22,12.29,3.82,1.11,8.57.45,13.22-2.24a19.63,19.63,0,0,1-8.36,2.68C881.18,783.89,908.48,728.84,931.94,667.48Zm-18.36-5.18c-.64,2.15-5,2.77-9.7,1.37s-8-4.28-7.39-6.44,5-2.76,9.7-1.37S914.22,660.14,913.58,662.3Zm-21-47.27c.64-2.15,5-2.77,9.71-1.37s8,4.28,7.38,6.44-5,2.77-9.7,1.37S891.92,617.19,892.56,615Zm-14.2,103.33c.64-2.15,5-2.77,9.7-1.37s8,4.29,7.39,6.44-5,2.77-9.7,1.37S877.72,720.52,878.36,718.36Zm-.29,39.54c-.64,2.15-5,2.77-9.7,1.36s-8-4.27-7.38-6.43,5-2.77,9.7-1.37S878.71,755.74,878.07,757.9ZM850.71,623.14c.64-2.16,5-2.77,9.71-1.37s8,4.28,7.38,6.44-5,2.76-9.7,1.36S850.08,625.29,850.71,623.14ZM850,674.59c.64-2.16,5-2.77,9.7-1.37s8,4.28,7.39,6.44-5,2.76-9.71,1.36S849.4,676.74,850,674.59Zm-11.17,51.17c.64-2.16,5-2.77,9.7-1.37s8,4.28,7.39,6.43-5,2.77-9.7,1.37S838.23,727.91,838.87,725.76Zm-5,34.6c.64-2.15,5-2.77,9.7-1.37s8,4.29,7.39,6.44-5,2.77-9.7,1.37S833.25,762.52,833.89,760.36Zm1.24,31.5c.63-2.16,5-2.77,9.7-1.37s8,4.28,7.38,6.44-5,2.76-9.7,1.36S834.48,794,835.13,791.86Z" style="fill:#909090"/><path d="M967.78,528.72l.36-.71C983,498.42,988.2,471,979.69,466.68c-5.57-2.8-15.65,5.05-26.12,19.13,11.08-39.38,11-73.33-.4-76.72C941.4,405.6,922,436,909.87,476.88c-.09.33-.18.66-.28,1-2.34-5.46-4.92-9.44-7.51-11.43-2.05-8.8-5.3-14.31-9.44-14.75-9.47-1-20,24.85-23.56,57.78,0,.27-.05.53-.08.79-4-6-7.86-9.14-10.78-8.12-5.84,2-5.51,20.05.73,40.27.21.7.44,1.38.67,2.07-2.69-2.18-5-3-6.74-2.16-4.77,2.51-2.31,17.91,5.49,34.4a85.65,85.65,0,0,0,12.26,19.48c-.2,2.24.19,3.94,1.28,4.85s2.66,1,4.63.34c1.8,1,3.37,1.29,4.59.65s2-2.23,2.29-4.47a66.73,66.73,0,0,0,7.79-6.84,4.72,4.72,0,0,0,1,2.93c1.14,1.37,3.15,1.82,5.8,1.5,2,1.71,4,2.43,5.67,1.9s3-2.31,3.88-5c.25.76.51,1.49.77,2.18-1,2-1.2,3.76-.5,5s2.15,1.82,4.22,1.94c1.32,1.58,2.7,2.4,4.07,2.23s2.66-1.39,3.71-3.39a85,85,0,0,0,20.86-9.72c15.5-9.62,25.92-21.23,23.27-25.92-.93-1.66-3.39-2.21-6.83-1.84.57-.46,1.13-.9,1.69-1.37,16.21-13.61,26.26-28.58,22.46-33.45C979.35,525.3,974.34,525.85,967.78,528.72Z" style="fill:#828282"/><path d="M161.06,529.19c-1.71-.81-4,.15-6.64,2.43.2-.69.4-1.38.59-2.09,5.43-20.46,5-38.48-.88-40.28-3-.89-6.74,2.45-10.45,8.56,0-.26-.08-.52-.11-.79-4.86-32.76-16.44-58.19-25.86-56.79-6.18.91-9.89,13.13-10.35,30.67-13.61-38.57-33.21-66.3-44.49-62.5-11.64,3.92-10,39.9,3.62,80.36.11.33.23.64.34,1-5.06-3.12-9.46-4.88-12.73-5-6.74-6-12.56-8.65-16.2-6.63-8.33,4.61-2.07,31.84,14,60.81l.4.69c-6.67-2.59-11.7-2.94-13.5-.44-3.61,5,7,19.58,23.78,32.51.58.45,1.16.88,1.74,1.31-3.45-.23-5.88.42-6.75,2.11-2.46,4.8,8.41,16,24.29,25a85.82,85.82,0,0,0,21.23,8.87c1.13,1.94,2.43,3.11,3.84,3.23s2.72-.76,4-2.39c2.06-.2,3.51-.89,4.14-2.11s.35-3-.71-5a65.49,65.49,0,0,0,2.43-10.08,4.75,4.75,0,0,0,2.49,1.83c1.71.47,3.62-.32,5.6-2.11,2.65.23,4.65-.3,5.73-1.71s1.13-3.62.3-6.31c.64.47,1.27.92,1.89,1.34.38,2.22,1.18,3.76,2.46,4.37s2.81.25,4.57-.84c2,.53,3.59.4,4.61-.52s1.37-2.67,1.09-4.9a85.64,85.64,0,0,0,11.46-20C164.09,547,165.93,531.51,161.06,529.19Z" style="fill:#828282"/><path d="M798.84,723.45c-.63-8.32-1.42-16.71-2.32-25-33.78,40.8-79.84,68.61-119.69,84.61l-81.17,21.56c-62.72,10.3-117.24,5.85-171-3.9l-78.86-25.39c-37.91-17.32-85.45-42.15-111.08-59.8q-.36,4-.66,7.92C230.5,771.33,149.39,993.8,515.42,993.8,906.17,993.8,802.64,774.25,798.84,723.45ZM572.31,942.92a2.61,2.61,0,0,1-.86.27,1.19,1.19,0,0,1-1.06-.54A3.23,3.23,0,0,1,570,941a5.8,5.8,0,0,1,.46-1.91c.31-.85.76-1.65,1.1-2.5a12.41,12.41,0,0,0,.35-1.23,2.2,2.2,0,1,1,4.3.95,16.48,16.48,0,0,1-1.47,3.83,10.52,10.52,0,0,1-1.22,1.82,3.39,3.39,0,0,1-.9.74ZM433.73,865.86a2.42,2.42,0,0,1,2.51,2.26l.33,6.43a2.39,2.39,0,1,1-4.77.25l-.33-6.44A2.4,2.4,0,0,1,433.73,865.86ZM437.41,898a7.06,7.06,0,0,0,.35,1.19,2.42,2.42,0,0,1-.15,1.85,2.4,2.4,0,0,1-1.37,1.17,2.45,2.45,0,0,1-3-1.51c-1-2.46-.74-5.14-.39-7.7a2.36,2.36,0,0,1,1-1.48,2.43,2.43,0,0,1,1.82-.34,2.46,2.46,0,0,1,1.49,1,2.71,2.71,0,0,1,.33,1.83c-.06.46-.11.92-.16,1.38A12.47,12.47,0,0,0,437.41,898ZM439,923.14a22.51,22.51,0,0,1-1-3.61c-.16-.76-.29-1.51-.42-2.27,0-.29-.1-.57-.13-.86a2.35,2.35,0,0,1,.65-1.83,1.69,1.69,0,0,1,2-.37,4.81,4.81,0,0,1,.6.4,2.54,2.54,0,0,1,.71,1.53c0,.21.07.41.11.61a25.64,25.64,0,0,0,1.42,5.09,2.08,2.08,0,0,1-1.32,2.62A2.12,2.12,0,0,1,439,923.14Zm9.35,16.19c-.16-.4-.35-.79-.53-1.19l-.42-.81c-.24-.46-.41-.93-.6-1.4a5.11,5.11,0,0,1-.26-1.28,2.7,2.7,0,0,1,0-1,.7.7,0,0,1,.8-.51,3,3,0,0,1,1.15.62l.28.18a3,3,0,0,1,.69.65c.18.2.35.41.52.61a9.76,9.76,0,0,1,.81,1.36q.46.84.87,1.71a1.71,1.71,0,0,1-1.09,2.17A1.76,1.76,0,0,1,448.33,939.33Zm15.78,10.07c.33.23.66.45,1,.65s.7.47,1,.71c.56.38,1.12.75,1.7,1.09a1.82,1.82,0,0,1,.85,1,1.78,1.78,0,0,1-.1,1.34,1.75,1.75,0,0,1-1,.85,1.65,1.65,0,0,1-1.34-.11c-.57-.38-1.13-.76-1.68-1.17a9.54,9.54,0,0,1-1.3-1.06c-.44-.47-.86-1-1.26-1.45a4.11,4.11,0,0,1-.43-.73,4,4,0,0,1-.31-1.13.84.84,0,0,1,1-.86,5.42,5.42,0,0,1,1,.39,10.93,10.93,0,0,1,1.07.7Zm15.53,10.29a23.57,23.57,0,0,0,3.74.74c1.3.15,2.59.29,3.88.57a1.74,1.74,0,1,1-.75,3.39c-1.32-.38-2.66-.61-4-1a8.06,8.06,0,0,1-3.78-2.4A.83.83,0,0,1,479.64,959.69ZM502,967.47a.86.86,0,0,1,.14-1.69c2.21-.11,4.43-.33,6.64-.3a37.13,37.13,0,0,0,6.66-.41,1.75,1.75,0,0,1,1.82,1.65,1.77,1.77,0,0,1-1.64,1.82A27.53,27.53,0,0,1,502,967.47Zm29.94-2.12c.54-.22,1.08-.44,1.61-.68l.87-.37.43-.19.12-.06c.34-.18.69-.36,1-.52l.13-.06c.08-.06.26-.12.33-.17a9.09,9.09,0,0,0,1.51-1,1.92,1.92,0,0,1,2.64.55,2,2,0,0,1-.55,2.64,9.48,9.48,0,0,1-3.7,1.74,11.32,11.32,0,0,1-2.17.29c-.62,0-1.24,0-1.87,0a1.08,1.08,0,0,1-.39-2.1Zm29.42-12a2.25,2.25,0,0,1-.8,1.16c-1.07.87-2.12,1.78-3.27,2.55a6.83,6.83,0,0,1-2.09,1,6.63,6.63,0,0,1-1.3.25,6.71,6.71,0,0,1-1.26-.11,1,1,0,0,1-.8-.84,1.09,1.09,0,0,1,.45-1.09c-.09.08,0,0,0,0a1.54,1.54,0,0,0,.19-.17l.41-.38c.28-.24.59-.44.88-.67,0,0,.22-.19.14-.11a4.17,4.17,0,0,1,.62-.49c.29-.17.57-.36.85-.55,1.09-.76,2.09-1.64,3.11-2.48a1.85,1.85,0,0,1,1.43-.26,1.85,1.85,0,0,1,1.42,2.22Zm-35.8-91.87c-19.87.34-39.71.12-59.53-1.47q-8-.63-16.05-1.57c-5.42-.65-11.09-1-16-3.41a1.13,1.13,0,0,1,.45-2.11c4.77-.66,9.5.35,14.24.94s9.53,1.09,14.31,1.52c9.93.87,19.89,1.33,29.85,1.54,19.83.41,39.68-.16,59.51-.12,11.36,0,22.71-.34,34-1.39,1.45-.13,1.52,2,.11,2.24C566.19,860.51,545.88,861.12,525.51,861.46Zm62,50.1c-.34,1.16-.56,2.36-.86,3.54a7.5,7.5,0,0,1-.67,2,3.27,3.27,0,0,1-1.78,1.55,1,1,0,0,1-1.29-.65,4.25,4.25,0,0,1-.14-2.18c.09-.54.28-1.08.39-1.62.24-1.16.42-2.32.71-3.47a1.86,1.86,0,1,1,3.64.81Zm.63-20.7c.07-.63.14-1.26.2-1.89,0,0,0,0,0,0v-.06l0-.54c0-.33,0-.65,0-1a1.66,1.66,0,0,1,3.32-.17,32.64,32.64,0,0,1-.28,4.19c-.07.63-.11,1.26-.22,1.88a4.7,4.7,0,0,1-1,1.92.85.85,0,0,1-1.32-.11,3.49,3.49,0,0,1-.89-2A12.53,12.53,0,0,1,588.16,890.86Zm4-15.53a2.59,2.59,0,0,1-1,1.49,2.4,2.4,0,0,1-3.31-.69,2.32,2.32,0,0,1-.33-1.83,8,8,0,0,0,.27-1.38c.05-1.48-.15-3-.23-4.43a2.39,2.39,0,0,1,4.77-.25C592.46,870.58,592.93,873,592.19,875.33Z" style="fill:#747474"/><path d="M798.84,723.45c-.63-8.32-1.42-16.71-2.32-25-33.78,40.8-79.84,68.61-119.69,84.61.19-11.21.57-52.43,1.15-63.65a425.85,425.85,0,0,1-82.9,23.39c0,10.61.2,51.21.58,61.82-62.72,10.3-117.24,5.85-171-3.9.95-9.81,1.64-49.91,2.15-60.16a415.17,415.17,0,0,1-79.24-24.44c-.44,9.75-1,49.48-1.77,59.21-37.91-17.32-85.45-42.15-111.08-59.8q-.36,4-.66,7.92c-2.3,30.87-36.82,134.3,37,203.9-16.57-37.65-14.31-75.1,8.51-92.37,29.42-22.26,81.82-2.57,117,44,28.61,37.8,37.1,81.69,23.52,108.78,27.79,3.9,59.36,6,95.25,6a799.39,799.39,0,0,0,94.3-5.11c-12.83-27.69-2.58-71.64,27.85-108.58,37.25-45.23,90.61-62.81,119.18-39.27,23.07,19,22.92,59,2.43,97.46C849.74,869.72,801.41,757.87,798.84,723.45ZM404.62,823.84a23.28,23.28,0,1,1-18.11-27.5A23.29,23.29,0,0,1,404.62,823.84Zm192.43,81.47c-3.07,20.25-11.83,42.17-27.14,55.76-18.65,16.55-86.27,40.25-129.31-15.12-14.13-18.19-19.39-56.86-20.38-79.87-.33-7.74.49-16.55,6.54-21.39,5.36-4.28,12.93-4,19.77-3.41,40.34,3.21,74.31,5.52,106.89,2.86,18.26-1.5,28-7.45,36.5-.5C599,851.09,600.13,885.07,597.05,905.31Zm42.6-57a23.29,23.29,0,1,1,20.49-25.78A23.29,23.29,0,0,1,639.65,848.28Z" style="fill:#cecece"/><path d="M756.75,840.84c-28.57-23.54-81.93-6-119.18,39.27-18.08,21.95-29,46.37-32.25,68.39H580.83a68.36,68.36,0,0,1-10.92,12.57c-18.36,16.29-84.16,39.51-127.26-12.57H426c-2.28-22.09-12.18-46.89-29.31-69.53-35.23-46.56-87.63-66.25-117-44s-24.7,78,10.53,124.6,87.64,66.25,117.05,44a44.61,44.61,0,0,0,13-15.82c27.79,3.9,59.36,6,95.25,6a797.09,797.09,0,0,0,94.3-5.12,44.74,44.74,0,0,0,12.14,15.93c28.57,23.53,81.94,5.95,119.19-39.27S785.33,864.38,756.75,840.84Z" style="fill:#a7a7a7"/><path d="M756.75,840.84c-28.57-23.54-81.93-6-119.18,39.27-18.08,21.95-29,46.37-32.25,68.39H580.83a68.36,68.36,0,0,1-10.92,12.57c-18.36,16.29-84.16,39.51-127.26-12.57H426c-2.28-22.09-12.18-46.89-29.31-69.53-35.23-46.56-87.63-66.25-117-44s-24.7,78,10.53,124.6,87.64,66.25,117.05,44a44.61,44.61,0,0,0,13-15.82c27.79,3.9,59.36,6,95.25,6a797.09,797.09,0,0,0,94.3-5.12,44.74,44.74,0,0,0,12.14,15.93c28.57,23.53,81.94,5.95,119.19-39.27S785.33,864.38,756.75,840.84ZM381.6,985c-20.64,13.38-53.28-.33-72.92-30.61s-18.8-65.69,1.83-79.06,53.28.33,72.91,30.61S402.24,971.61,381.6,985Zm341.06-25.64c-20.94,29.56-54.24,41.95-74.38,27.69s-19.49-49.79,1.44-79.35,54.23-42,74.37-27.68S743.59,929.8,722.66,959.35Z" style="fill:#e2e2e2"/><path d="M648.28,2.88a22.15,22.15,0,0,0-2.86-1.1l-.14,0q-.69-.21-1.41-.36l-.22,0c-.47-.1-.94-.18-1.42-.24h0c-31-4-82.08,63.34-109.75,154.52-9.53,31.43-15.12,61.71-17.19,88.48-1.72-26.82-6.91-57.2-16-88.76C491.46,128.44,477.78,103.59,467,82a25,25,0,0,0-5.89-11.3C440.14,48.13,378,71.83,322.24,123.6s-84,112-63,134.55c18.66,20.1,70.11,3.43,120.55-37.12,27.84,70.7,72.25,121,100.49,122.85a21.19,21.19,0,0,0,7.27-.71h0c15-4.35,24.58-26.1,27.47-58.05,2.47,32,11.81,53.88,26.74,58.41.48.15,1,.27,1.47.38C560,347.57,585,329.71,609,298.11c20.85-27.51,40.89-65.44,54-108.68C690.69,98,677.31,16.43,648.28,2.88Z" style="fill:#e2e2e2"/><path d="M653,72.89a143.56,143.56,0,0,0-2.73-22.3c-3.62-17-9.42-22.39-11.26-22.86h0a2.93,2.93,0,0,0-.76-.07h-.09l-.43,0-.1,0-.5.07h0c-5.91,1.1-20,9.79-38.17,37-18.55,27.79-35.47,65.92-47.64,107.38-13,44.26-19.17,87.15-17.41,120.78,1.71,32.87,10.35,43.27,13.46,44.94l0,0,.23.12.24.08h0a2.8,2.8,0,0,0,.76.08c5.08-.11,19.82-8,39.29-37.16a323,323,0,0,0,24.69-45.18,474.88,474.88,0,0,0,23-62.2c8.82-30.07,14.5-59.49,16.68-85.82A258.71,258.71,0,0,0,653,72.89Z" style="fill:#a7a7a7"/><path d="M480.18,171.72a520.06,520.06,0,0,0-17.9-54.11c-9.89,26-32.18,57.55-63.11,86.54q2.56,8.4,5.38,16.57C415,251,427.83,278.43,441.7,299.85l.15.24c.6.92,1.19,1.82,1.78,2.7,18.21,27.2,32.1,34.81,37,35h.48a1.41,1.41,0,0,0,.29-.05c2.5-.61,12.3-10,14.59-45C498.2,259.13,492.58,216.15,480.18,171.72Z" style="fill:#a7a7a7"/></g></g></svg>